<?xml version="1.0" encoding="utf-8"?>
<!-- Generator: Adobe Illustrator 24.3.0, SVG Export Plug-In . SVG Version: 6.00 Build 0)  -->
<svg version="1.1" id="圖層_1" xmlns="http://www.w3.org/2000/svg" xmlns:xlink="http://www.w3.org/1999/xlink" x="0px" y="0px"
	 viewBox="0 0 148.1 148.3" style="enable-background:new 0 0 148.1 148.3;" xml:space="preserve">
<style type="text/css">
	.st0{fill-rule:evenodd;clip-rule:evenodd;fill:#FDB713;}
	.st1{fill:#FFFFFF;}
	.st2{fill-rule:evenodd;clip-rule:evenodd;fill:#FFFFFF;}
	.st3{display:none;}
	.st4{display:inline;}
	.st5{enable-background:new    ;}
</style>
<g id="圖層_4">
	<path id="rect8528-63-2-4-3-6-0-4-3-6" class="st0" d="M0.9,0h146.4c0.5,0,0.8,0.4,0.8,0.8v146.7c0,0.5-0.4,0.8-0.8,0.8H0.9
		c-0.5,0-0.8-0.4-0.8-0.8V0.8C0.1,0.4,0.5,0,0.9,0z"/>
	<g id="text6075-0-6-9-2-5-9">
		<path id="path2136" class="st1" d="M19.2,19.8h-3.8v-7.5h12.7v3.9l-7,26h-4.6l7.3-26h-4.7v3.6H19.2z"/>
	</g>
	<path id="rect7141-6-0-9-8-6-8-6-9-7" class="st2" d="M44.4,73.7l8,4.6c0.9,0.5,1.2,1.7,0.7,2.6s-1.7,1.2-2.6,0.7l-8-4.6
		c-0.9-0.5-1.2-1.7-0.7-2.6C42.3,73.4,43.5,73.1,44.4,73.7z M58.3,61.2l4.6,8c0.5,0.9,0.2,2.1-0.7,2.6s-2.1,0.2-2.6-0.7l-4.6-8
		c-0.5-0.9-0.2-2.1,0.7-2.6C56.7,60,57.8,60.3,58.3,61.2L58.3,61.2z M76.7,57.4v9.3c0,1.1-0.9,1.9-1.9,1.9c-1.1,0-1.9-0.9-1.9-1.9
		v-9.3c0-1.1,0.9-1.9,1.9-1.9C75.8,55.5,76.7,56.3,76.7,57.4z M94.4,63.3l-4.6,8c-0.5,0.9-1.7,1.2-2.6,0.7s-1.2-1.7-0.7-2.6l4.6-8
		c0.5-0.9,1.7-1.2,2.6-0.7S95,62.3,94.4,63.3z M106.9,77.2l-8,4.6c-0.9,0.5-2.1,0.2-2.6-0.7S96.1,79,97,78.5l8-4.6
		c0.9-0.5,2.1-0.2,2.6,0.7C108.1,75.5,107.8,76.7,106.9,77.2L106.9,77.2z M110.7,95.5h-9.3c-1.1,0-1.9-0.9-1.9-1.9
		c0-1.1,0.9-1.9,1.9-1.9h9.3c1.1,0,1.9,0.9,1.9,1.9C112.6,94.7,111.8,95.5,110.7,95.5L110.7,95.5z M104.9,113.3l-8-4.6
		c-0.9-0.5-1.2-1.7-0.7-2.6s1.7-1.2,2.6-0.7l8,4.6c0.9,0.5,1.2,1.7,0.7,2.6S105.8,113.8,104.9,113.3z M90.9,125.8l-4.6-8
		c-0.5-0.9-0.2-2.1,0.7-2.6c0.9-0.5,2.1-0.2,2.6,0.7l4.6,8c0.5,0.9,0.2,2.1-0.7,2.6C92.6,127,91.4,126.7,90.9,125.8L90.9,125.8z
		 M72.6,129.6v-9.3c0-1.1,0.9-1.9,1.9-1.9c1.1,0,1.9,0.9,1.9,1.9v9.3c0,1.1-0.9,1.9-1.9,1.9C73.4,131.5,72.6,130.6,72.6,129.6
		L72.6,129.6z M54.8,123.7l4.6-8c0.5-0.9,1.7-1.2,2.6-0.7s1.2,1.7,0.7,2.6l-4.6,8c-0.5,0.9-1.7,1.2-2.6,0.7
		C54.6,125.8,54.3,124.6,54.8,123.7z M42.3,109.8l8-4.6c0.9-0.5,2.1-0.2,2.6,0.7c0.5,0.9,0.2,2.1-0.7,2.6l-8,4.6
		c-0.9,0.5-2.1,0.2-2.6-0.7C41.1,111.5,41.4,110.3,42.3,109.8L42.3,109.8z M38.5,91.4h9.3c1.1,0,1.9,0.9,1.9,1.9
		c0,1.1-0.9,1.9-1.9,1.9h-9.3c-1.1,0-1.9-0.9-1.9-1.9S37.5,91.4,38.5,91.4L38.5,91.4z M74.6,71.6c-12.1,0-21.9,9.8-21.9,21.9
		s9.8,21.9,21.9,21.9s21.9-9.8,21.9-21.9S86.7,71.6,74.6,71.6L74.6,71.6z M74.5,79c0.7,0,1.3,0.6,1.3,1.3v7.4c0,0.7-0.6,1.3-1.3,1.3
		c-0.7,0-1.3-0.6-1.3-1.3v-7.4C73.2,79.6,73.8,79,74.5,79z M71.2,82.8v3.8c-2.6,1.3-4.2,4-4.2,6.9c0,4.2,3.4,7.7,7.7,7.7
		c4.2,0,7.7-3.4,7.7-7.7l0,0c0-2.9-1.6-5.5-4.2-6.8v-3.8c4.6,1.5,7.7,5.8,7.7,10.7c0,6.2-5,11.2-11.2,11.2l0,0
		c-6.2,0-11.2-5-11.2-11.2C63.4,88.6,66.5,84.3,71.2,82.8L71.2,82.8z"/>
</g>
<g id="en" class="st3">
	<g id="text6065-3-2-9-6-6-5" class="st4">
		<path id="path2087" class="st1" d="M42,25.6l2.8-12.5h1.5l2.8,12.5h-1.9l-0.5-2.7h-2.3l-0.5,2.7H42z M44.7,21.2h1.7l-0.8-4.6
			L44.7,21.2z"/>
		<path id="path2089" class="st1" d="M49.9,25.6V13.1h5.3v1.7h-3.6v3.8h3.1v1.7h-3.1v5.4h-1.7V25.6z"/>
		<path id="path2091" class="st1" d="M56.1,25.6V13.1h5.3v1.7h-3.6v3.8H61v1.7h-3.1v5.4h-1.8V25.6z"/>
		<path id="path2093" class="st1" d="M62.3,14.2c0.3-0.4,0.6-0.7,1.1-0.9c0.4-0.2,0.9-0.4,1.4-0.4s0.9,0.1,1.3,0.3s0.8,0.4,1,0.8
			s0.5,0.7,0.6,1s0.1,0.7,0.1,1.1v6.4c0,0.4,0,0.7-0.1,1s-0.2,0.6-0.4,1c-0.2,0.3-0.6,0.6-1,0.9c-0.4,0.2-0.9,0.4-1.4,0.4
			c-0.3,0-0.6,0-0.9-0.1c-0.3-0.1-0.5-0.2-0.8-0.3c-0.2-0.1-0.4-0.3-0.6-0.5c-0.2-0.2-0.3-0.4-0.4-0.5c-0.2-0.4-0.3-0.7-0.3-0.9
			c0-0.2-0.1-0.5-0.1-0.8v-6.4c0-0.4,0-0.7,0.1-1C61.9,14.8,62.1,14.5,62.3,14.2z M65.7,15.2c-0.2-0.3-0.6-0.5-1-0.5
			c-0.2,0-0.4,0.1-0.6,0.2c-0.2,0.1-0.3,0.2-0.4,0.4c-0.1,0.1-0.1,0.3-0.1,0.4c0,0.1,0,0.3,0,0.4v6.4c0,0.1,0,0.1,0,0.2s0,0.1,0,0.2
			s0.1,0.3,0.3,0.6c0.2,0.3,0.5,0.4,0.9,0.4c0.2,0,0.4,0,0.6-0.1s0.3-0.2,0.4-0.4c0.1-0.1,0.1-0.3,0.2-0.4c0-0.1,0-0.3,0-0.5v-6.4
			c0-0.2,0-0.4,0-0.5C65.9,15.5,65.9,15.4,65.7,15.2L65.7,15.2z"/>
		<path id="path2095" class="st1" d="M69.3,25.6V13.1h3.1c0.8,0,1.5,0.3,2.1,0.9c0.6,0.6,0.9,1.3,0.9,2.1v1.2c0,1.2-0.5,2-1.5,2.7
			l1.9,5.7h-1.9l-1.7-5.4h-1.1v5.4L69.3,25.6z M73.3,18.2c0.1-0.1,0.2-0.3,0.2-0.5s0.1-0.4,0.1-0.6V16c0-0.4-0.1-0.7-0.3-0.9
			c-0.2-0.2-0.5-0.4-0.9-0.4h-1.3v3.9h1.3C72.7,18.6,73,18.5,73.3,18.2L73.3,18.2z"/>
		<path id="path2097" class="st1" d="M79.3,13.1c0.8,0,1.5,0.3,2.1,0.9c0.6,0.6,0.9,1.2,0.9,2.1v6.5c0,0.9-0.3,1.7-0.8,2.2
			c-0.6,0.6-1.3,0.9-2.2,0.9h-2.8V13.1H79.3z M80.5,22.5V16c0-0.3-0.1-0.6-0.4-0.9c-0.2-0.2-0.6-0.4-0.9-0.4h-0.9v9.2h0.9
			C80,23.9,80.5,23.4,80.5,22.5z"/>
		<path id="path2099" class="st1" d="M83.1,25.6l2.8-12.5h1.5l2.8,12.5h-1.9l-0.5-2.7h-2.3L85,25.6H83.1z M85.8,21.2h1.7l-0.8-4.6
			L85.8,21.2z"/>
		<path id="path2101" class="st1" d="M94.1,13.1c0.4,0,0.7,0.1,1.1,0.2c0.4,0.2,0.8,0.5,1.1,0.8c0.4,0.4,0.6,1,0.6,1.9v1
			c0,1-0.4,1.6-1.1,2c0.8,0.4,1.1,1.1,1.1,2.1v1.5c0,0.9-0.3,1.6-0.9,2.2s-1.3,0.9-2.2,0.9H91V13.1H94.1z M95.2,16.8V16
			c0-0.4-0.1-0.7-0.3-0.9c-0.2-0.2-0.5-0.4-0.9-0.4h-1v3.5h1c0.4,0,0.7-0.1,0.9-0.4C95.1,17.6,95.2,17.2,95.2,16.8z M95.2,22.5V21
			c0-0.4-0.1-0.7-0.3-0.9c-0.2-0.2-0.5-0.4-0.9-0.4h-1v4h1c0.4,0,0.7-0.1,0.9-0.4C95.1,23.2,95.2,22.9,95.2,22.5L95.2,22.5z"/>
		<path id="path2103" class="st1" d="M103.7,25.6h-5.3V13.1h1.8v10.7h3.5V25.6z"/>
		<path id="path2105" class="st1" d="M109.6,23.8v1.8h-5.4V13.1h5.4v1.6H106v3.7h3.1v1.7H106v3.7C106,23.8,109.6,23.8,109.6,23.8z"
			/>
		<path id="path2107" class="st1" d="M111.6,25.6l2.8-12.5h1.5l2.8,12.5h-1.9l-0.5-2.7H114l-0.5,2.7H111.6z M114.3,21.2h1.7
			l-0.8-4.6L114.3,21.2z"/>
		<path id="path2109" class="st1" d="M124.2,25.6l-2.8-7.6v7.6h-1.8V13.1h1.7l2.8,7.6v-7.6h1.8v12.5H124.2z"/>
		<path id="path2111" class="st1" d="M130,13.1c0.8,0,1.5,0.3,2.1,0.9c0.6,0.6,0.9,1.2,0.9,2.1v6.5c0,0.9-0.3,1.7-0.8,2.2
			c-0.6,0.6-1.3,0.9-2.2,0.9h-2.8V13.1H130z M131.2,22.5V16c0-0.3-0.1-0.6-0.4-0.9c-0.2-0.2-0.6-0.4-0.9-0.4H129v9.2h0.9
			C130.7,23.9,131.2,23.4,131.2,22.5z"/>
		<path id="path2113" class="st1" d="M48.5,39.7c0,0.4,0,0.7-0.1,1c0,0.3-0.2,0.6-0.4,0.9c-0.1,0.2-0.3,0.3-0.4,0.5
			c-0.2,0.1-0.3,0.3-0.6,0.4c-0.2,0.1-0.4,0.2-0.7,0.3c-0.2,0.1-0.5,0.1-0.7,0.1c-0.6,0-1.1-0.1-1.5-0.4c-0.4-0.2-0.8-0.5-1-0.9
			s-0.3-0.7-0.4-1c0-0.3-0.1-0.6-0.1-1v-6.4c0-0.3,0-0.7,0.1-0.9c0.1-0.3,0.2-0.6,0.4-0.9s0.5-0.6,1-0.8c0.4-0.2,0.8-0.4,1.3-0.4
			c0.9,0,1.6,0.3,2.1,0.9c0.6,0.6,0.9,1.3,0.9,2.2V34h-1.8v-0.7c0-0.3-0.1-0.6-0.3-0.9c-0.2-0.2-0.5-0.4-0.8-0.4s-0.6,0.1-0.8,0.4
			c-0.2,0.2-0.3,0.5-0.3,0.9v6.9c0,0.2,0.1,0.4,0.3,0.6c0.2,0.2,0.5,0.4,0.9,0.4s0.7-0.1,0.8-0.3s0.2-0.4,0.2-0.5s0-0.3,0-0.4v-0.6
			h1.8L48.5,39.7z"/>
		<path id="path2115" class="st1" d="M55,42.8h-5.3V30.3h1.8V41H55V42.8z"/>
		<path id="path2117" class="st1" d="M60.8,41v1.8h-5.4V30.3h5.4V32h-3.6v3.7h3.1v1.7h-3.1V41H60.8z"/>
		<path id="path2119" class="st1" d="M61.1,42.8l2.8-12.5h1.5l2.8,12.5h-1.9l-0.5-2.7h-2.3L63,42.8H61.1z M63.8,38.5h1.7l-0.8-4.6
			L63.8,38.5z"/>
		<path id="path2121" class="st1" d="M73.7,42.8l-2.8-7.6v7.6h-1.8V30.3h1.7l2.8,7.6v-7.6h1.8v12.5C75.4,42.8,73.7,42.8,73.7,42.8z"
			/>
		<path id="path2123" class="st1" d="M83.8,41v1.8h-5.4V30.3h5.4V32h-3.6v3.7h3.1v1.7h-3.1V41H83.8z"/>
		<path id="path2125" class="st1" d="M89.1,42.8l-2.8-7.6v7.6h-1.8V30.3h1.7l2.8,7.6v-7.6h1.8v12.5C90.8,42.8,89.1,42.8,89.1,42.8z"
			/>
		<path id="path2127" class="st1" d="M97.1,41v1.8h-5.4V30.3h5.4V32h-3.6v3.7h3.1v1.7h-3.1V41H97.1z"/>
		<path id="path2129" class="st1" d="M98,42.8V30.3h3.1c0.8,0,1.5,0.3,2.1,0.9s0.9,1.3,0.9,2.1v1.2c0,1.2-0.5,2-1.5,2.7l1.9,5.7
			h-1.9l-1.7-5.4h-1.1v5.4H98V42.8z M102,35.5c0.1-0.1,0.2-0.3,0.2-0.5s0.1-0.4,0.1-0.6v-1.2c0-0.4-0.1-0.7-0.3-0.9
			c-0.2-0.2-0.5-0.4-0.9-0.4h-1.3v3.9h1.3C101.4,35.9,101.7,35.7,102,35.5L102,35.5z"/>
		<path id="path2131" class="st1" d="M110.7,41.5c-0.3,0.4-0.7,0.8-1.1,1s-0.9,0.4-1.5,0.4c-0.5,0-0.9-0.1-1.4-0.3
			c-0.4-0.2-0.8-0.5-1-0.8s-0.4-0.7-0.5-1s-0.1-0.7-0.1-1.1v-6.3c0-0.3,0-0.6,0.1-0.9c0.1-0.3,0.3-0.8,0.7-1.3
			c0.4-0.6,1.1-0.9,2.3-0.9c0.5,0,1,0.1,1.4,0.4s0.8,0.5,1,0.9c0.2,0.3,0.4,0.7,0.4,1c0.1,0.3,0.1,0.6,0.1,1v0.5h-1.8v-0.5
			c0-0.1,0-0.2,0-0.3s0-0.2,0-0.2c0-0.1-0.1-0.3-0.3-0.5c-0.2-0.2-0.5-0.4-0.9-0.4c-0.5,0-0.8,0.1-1,0.4c-0.1,0.3-0.2,0.5-0.3,0.6
			c0,0.1,0,0.3,0,0.4v6.3c0,0.1,0,0.2,0,0.3s0,0.2,0,0.2c0,0.1,0.1,0.3,0.3,0.6c0.2,0.3,0.5,0.4,1,0.4s0.8-0.1,0.9-0.4
			c0.1-0.1,0.1-0.2,0.2-0.3c0-0.1,0.1-0.2,0.1-0.3s0-0.1,0-0.2c0-0.1,0-0.2,0-0.3v-2.2H108v-1.6h3.2v3.8c0,0.3,0,0.5,0,0.7
			s0,0.3-0.1,0.5c0,0.1-0.1,0.3-0.1,0.4C110.9,41.3,110.8,41.4,110.7,41.5L110.7,41.5z"/>
		<path id="path2133" class="st1" d="M113.9,42.8v-5.4l-2.4-7.1h1.9l1.5,4.9l1.5-4.9h1.9l-2.5,7.1v5.4H113.9z"/>
	</g>
</g>
<g id="tw">
	<g class="st5">
		<path class="st1" d="M48.4,14h-1.5v11.1c0,0.5-0.1,0.8-0.4,1.1c-0.3,0.3-0.6,0.4-0.9,0.4c-0.3,0-1.4,0-3.2,0l-0.5-1.5
			c0.7,0,1.4,0.1,2,0.1s1,0,1.1,0c0.1,0,0.2-0.1,0.2-0.2c0.1-0.1,0.1-0.2,0.1-0.3V14H34.2v-1.5h14.2V14z M43,23.1h-7.2v-7H43V23.1z
			 M41.5,21.7v-4.1h-4.3v4.1H41.5z"/>
		<path class="st1" d="M63.1,23.6h-7.4l0.8,0.9c-1.1,0.7-2.7,1.4-5,2.2l-0.9-1.3c1.8-0.5,3.3-1.1,4.5-1.8h-2.6v-7.3
			c-0.4,0.3-0.8,0.5-1.2,0.8l-0.8-1.2c1.8-0.9,3.5-2.2,5-3.7l1.6,0.4c-0.1,0.2-0.3,0.4-0.5,0.6h5.1v1.2c-0.4,0.4-0.7,0.7-1,1h2.6
			V23.6z M59.4,14.4h-4.3c-0.5,0.4-0.9,0.8-1.3,1h4.3C58.7,15,59.1,14.7,59.4,14.4z M61.7,17.7v-1.1h-7.8v1.1H61.7z M61.7,20v-1.1
			h-7.8V20H61.7z M61.7,22.3v-1.1h-7.8v1.1H61.7z M65,25.3l-0.7,1.3c-1.9-0.6-3.6-1-5.3-1.3l0.7-1.3C61.4,24.2,63.1,24.7,65,25.3z"
			/>
		<path class="st1" d="M71.3,19.7c-0.4,0.2-0.8,0.5-1.3,0.7v4.9c0,0.4-0.1,0.8-0.4,1c-0.3,0.2-1,0.3-2.2,0.3L67,25.2
			c0.4,0,0.7,0,0.9,0c0.3,0,0.5,0,0.6-0.1c0.1,0,0.1-0.1,0.1-0.3V21c-0.6,0.3-1.1,0.5-1.3,0.5l-0.4-1.4c0.8-0.3,1.4-0.6,1.8-0.8
			v-3.1H67v-1.4h1.6v-2.6H70v2.6h0.9v1.4H70v2.5l1.1-0.6L71.3,19.7z M81.2,17.8h-2.4c-0.7,0-1-0.4-1-1.1v-0.8h-1.3
			c0,0.6-0.3,1.1-0.7,1.5c-0.4,0.5-1,0.7-1.6,0.8l-0.6-1.1c1-0.2,1.6-0.6,1.7-1.3h-2v5.4c0,2.2-0.5,4-1.5,5.4l-1.1-1
			c0.8-1.3,1.2-2.8,1.2-4.7v-4.6l-0.3,0.2L71,15.1c1.3-0.9,2.3-1.9,2.9-3l1.4,0.4c0,0.1-0.1,0.3-0.2,0.4h4.3v1.1l-0.6,0.6h2.5v1.2
			h-2.1v0.5c0,0.1,0,0.2,0.1,0.3c0.1,0.1,0.2,0.1,0.3,0.1h1.7V17.8z M81.2,19.6h-7.6v-1.1h2.9c0-0.2-0.2-0.5-0.4-0.9l1.4-0.2
			c0.1,0.3,0.3,0.6,0.5,1.2h3.2V19.6z M77.4,14.1h-3.1c-0.1,0.1-0.2,0.3-0.5,0.6h3L77.4,14.1z M80.7,21.1h-6.8v-0.9h6.8V21.1z
			 M80.7,22.6h-6.8v-0.9h6.8V22.6z M80.6,26.6h-1.4V26h-3.9v0.6H74v-3.4h6.6V26.6z M79.3,24.9v-0.6h-3.9v0.6H79.3z"/>
		<path class="st1" d="M89.5,26.5h-1.4v-1.1h-3v1.2h-1.4V14.7h1.5c0.4-0.8,0.7-1.6,1-2.5l1.5,0.2c-0.1,0.5-0.3,1.3-0.8,2.2h2.6V26.5
			z M88.1,19.1v-3h-3v3H88.1z M88.1,24v-3.4h-3V24H88.1z M97.5,14.8c0,1.6-0.1,3.6-0.2,6.1c-0.1,2.5-0.3,4-0.4,4.4
			c-0.2,0.4-0.5,0.8-0.9,1c-0.4,0.2-1.4,0.3-2.9,0.3l-0.5-1.4l2.2,0c0.2,0,0.4-0.1,0.7-0.3c0.2-0.2,0.4-1.4,0.5-3.6s0.2-3.9,0.2-5.1
			h-3.3c-0.5,1.3-1.1,2.4-1.7,3.3l-1.1-1c1.2-1.9,2-4,2.5-6.4l1.4,0.3c-0.1,0.6-0.3,1.3-0.6,2.3H97.5z M95.1,22.1l-1.3,0.8
			c-0.7-1.4-1.5-2.6-2.3-3.5l1.3-0.8C93.9,19.9,94.7,21.1,95.1,22.1z"/>
	</g>
	<g class="st5">
		<path class="st1" d="M37.5,38.4l-1,1c-0.7-0.8-1.4-1.5-2.3-2.2l1-1C36,36.8,36.8,37.6,37.5,38.4z M37.2,41
			c-0.5,2.1-1.1,3.9-1.8,5.4l-1.2-0.8c0.8-1.6,1.3-3.4,1.8-5.4L37.2,41z M37.4,34l-1,0.9c-0.6-0.8-1.3-1.6-2-2.2l1-0.9
			C36.2,32.6,36.9,33.3,37.4,34z M40.8,44c-1,0.8-2,1.4-3.1,2l-0.9-1.1c1-0.4,2-1.1,3-1.9L40.8,44z M42.6,37.1
			c-0.8,0.2-1.4,0.3-1.9,0.3v1h-1.3v-0.8c-0.9,0.1-1.5,0.2-1.8,0.2l-0.2-1.1c0.7,0,1.3-0.1,2-0.2v-0.9h-1.7v-1.1h1.7v-0.6h-1.9v-1.2
			h1.9V32h1.3v0.7h1.8v1.2h-1.8v0.6h1.6v1.1h-1.6v0.6c0.4-0.1,1-0.2,1.8-0.3L42.6,37.1z M48.3,42.5l-1.1,0.7
			c-0.2-0.4-0.4-0.7-0.6-0.8c-0.7,0.1-1.8,0.2-3.1,0.2V45c0,0.4-0.1,0.7-0.3,0.9c-0.2,0.2-0.5,0.4-1,0.4c-0.5,0-1,0-1.6,0L40.3,45
			c0.3,0,0.8,0,1.6,0c0,0,0.1,0,0.2-0.1c0.1-0.1,0.1-0.1,0.1-0.2v-2c-1.4,0.1-2.8,0.2-4.2,0.2l-0.2-1.1c1-0.2,2.2-0.6,3.6-1.3
			c-1.2,0.1-2.1,0.1-2.9,0.2l-0.1-1c1.3-0.3,2.6-0.9,3.9-1.9l1.3,0.6c-0.6,0.4-1.2,0.7-1.8,1.1c0.2,0,0.5,0,0.7,0
			c0.2,0,0.5,0,0.8-0.1c0.3,0,0.4-0.1,0.5-0.1l0.6-0.4c0.3-0.2,0.6-0.4,0.9-0.6l1.2,0.8c-1.7,1.1-3.3,1.9-4.8,2.5l4.3-0.3
			c-0.2-0.2-0.4-0.5-0.7-0.8l1.1-0.7C47.1,40.8,47.8,41.7,48.3,42.5z M48.2,32.3c0,1-0.1,2-0.2,3.1c-0.1,1.1-0.2,1.8-0.3,2
			c-0.1,0.3-0.3,0.5-0.5,0.6c-0.2,0.2-0.6,0.2-1.2,0.2c-0.1,0-0.3,0-0.6,0L45,36.9l1.1,0c0.2,0,0.3-0.1,0.4-0.4
			c0.1-0.3,0.2-1.2,0.3-2.9h-1.1c-0.3,2-0.9,3.5-1.9,4.5l-1-0.9c0.9-0.9,1.4-2.1,1.5-3.6h-1.2v-1.3H48.2z M48.7,44.9l-0.9,1
			c-0.8-0.6-1.9-1.3-3.2-1.9l0.8-1.1C46.7,43.5,47.7,44.1,48.7,44.9z"/>
		<path class="st1" d="M54,38.2l-1,1.2c-0.7-0.8-1.5-1.5-2.4-2.1l1-1.1C52.4,36.7,53.2,37.4,54,38.2z M53.9,41.2
			c-0.4,1.8-1.1,3.5-2,5.3l-1.3-0.8c0.8-1.4,1.5-3.1,2.1-5.2L53.9,41.2z M54.3,34.3l-1.1,1.1c-0.7-0.9-1.6-1.7-2.6-2.4l1.1-1
			C52.7,32.7,53.6,33.5,54.3,34.3z M64.9,40.6h-1.1v2.6h-3.9v1.5c0,0.4-0.1,0.7-0.2,0.9c-0.2,0.3-0.4,0.4-0.6,0.5
			c-0.3,0.1-0.8,0.1-1.6,0.1c-0.3,0-0.6,0-0.9,0l-0.6-1.4c0.3,0,1.1,0,2.2,0c0.1,0,0.1,0,0.2-0.1s0.1-0.1,0.1-0.2v-1.4h-3.7v-1.3
			h3.7v-1.3H54v-1.3h4.4v-1.2h-3.7v-1.3h9.1v2.5h1.1V40.6z M64,33.1c-2.4,0.7-5.4,1-9.2,1l-0.6-1.3c3.8,0.1,6.7-0.2,8.9-0.8L64,33.1
			z M57.1,36.1l-1.3,0.5c-0.4-0.7-0.7-1.3-1-1.7l1.3-0.5C56.5,35,56.8,35.5,57.1,36.1z M60.2,36l-1.3,0.5c-0.3-0.7-0.6-1.3-1-1.8
			l1.4-0.6C59.7,34.9,60,35.5,60.2,36z M62.2,39.4v-1.2h-2.4v1.2H62.2z M62.2,41.9v-1.3h-2.4v1.3H62.2z M64,34.3
			c-0.5,1-0.9,1.7-1.4,2.2l-1.4-0.5c0.6-0.7,1.1-1.5,1.4-2.2L64,34.3z"/>
		<path class="st1" d="M73.8,45c0,0.3-0.1,0.6-0.2,0.8c-0.2,0.2-0.3,0.3-0.5,0.4c-0.2,0.1-0.6,0.1-1.1,0.1c-0.2,0-0.6,0-1,0
			l-0.3-1.4c0.3,0,0.6,0,0.9,0c0.4,0,0.7,0,0.8-0.1c0.1,0,0.1-0.1,0.1-0.2v-1.8c-1.9,0.8-2.9,1.2-3,1.2L69,43.5
			c-0.2,1.1-0.5,2.1-1,2.9l-1.2-1c0.5-0.9,0.8-2.4,0.8-4.4v-3.5h6.1V45z M74.8,36l-1.2,0.8c-0.2-0.4-0.4-0.7-0.6-0.9
			c-1.8,0.3-3.7,0.5-5.7,0.7L67,35.5c1.2-1.1,2.1-2.3,2.7-3.6l1.4,0.4c-0.7,1.2-1.4,2.2-2.1,2.8c0.8-0.1,1.9-0.2,3.2-0.4
			c-0.4-0.5-0.8-0.9-1.2-1.2l1.2-0.8C73.3,33.8,74.2,34.9,74.8,36z M72.4,41.5v-2.7h-3.2v0.9c1.1,0.1,2,0.3,2.8,0.6l-0.5,1.2
			c-0.5-0.2-1.2-0.3-2.4-0.5c0,0.6,0,1.2-0.1,1.9C69.7,42.7,70.8,42.2,72.4,41.5z M81.3,43.4c0,1.1-0.2,1.8-0.3,2
			c-0.2,0.3-0.4,0.5-0.6,0.6c-0.2,0.1-1,0.2-2.4,0.2c-1.1,0-1.7-0.1-2-0.2s-0.5-0.3-0.6-0.5c-0.1-0.2-0.2-0.5-0.2-0.8v-5.8h1.4v2.1
			h4.3v1.3h-4.3v2.2c0,0.2,0.1,0.3,0.3,0.3h2.4c0.2,0,0.3-0.1,0.4-0.3c0.1-0.2,0.2-0.7,0.2-1.6L81.3,43.4z M81.1,38.4h-4.5
			c-0.4,0-0.8-0.1-1-0.4c-0.3-0.3-0.4-0.6-0.4-1.1V32h1.4v1.8h4.3v1.3h-4.3v1.7c0,0.1,0,0.1,0.1,0.2s0.2,0.1,0.2,0.1h4.2V38.4z"/>
		<path class="st1" d="M86.4,40.9c-0.5,1.9-1.1,3.7-1.9,5.4l-1.3-0.9c0.7-1.6,1.3-3.4,1.8-5.4L86.4,40.9z M86.8,38l-0.9,1.2
			c-0.7-0.7-1.5-1.4-2.6-2l0.9-1.2C85.1,36.5,85.9,37.1,86.8,38z M86.9,34.1l-1,1.1c-0.6-0.8-1.4-1.6-2.4-2.3l1.1-1.1
			C85.5,32.6,86.3,33.3,86.9,34.1z M97.6,33.6H94c-0.1,0.4-0.3,0.8-0.5,1.3h3.6v6.1h-3v4.3c0,0.4-0.1,0.7-0.4,0.8s-0.7,0.3-1.4,0.3
			c-0.3,0-0.6,0-0.8,0l-0.6-1.5c0.4,0,0.8,0,1.1,0c0.3,0,0.5,0,0.6-0.1c0.1-0.1,0.1-0.1,0.1-0.3v-3.6h-3v-6.1h2.2
			c0.1-0.3,0.3-0.7,0.5-1.3h-3.5v5.6c0,2.9-0.5,5.3-1.6,7.3l-1.2-0.8c0.9-1.9,1.4-4.1,1.4-6.6v-6.8h10.3V33.6z M91.8,42.2
			c-0.6,1.4-1.4,2.6-2.2,3.5l-1.2-1c0.8-0.9,1.5-2,2.1-3.3L91.8,42.2z M95.7,37.2v-1.1h-4.6v1.1H95.7z M95.7,39.6v-1.2h-4.6v1.2
			H95.7z M97.8,44.8l-1.3,0.9c-0.3-0.9-0.8-2.1-1.6-3.6l1.2-0.7C96.8,42.4,97.4,43.6,97.8,44.8z"/>
	</g>
</g>
</svg>
