<?xml version="1.0" encoding="utf-8"?>
<!-- Generator: Adobe Illustrator 24.3.0, SVG Export Plug-In . SVG Version: 6.00 Build 0)  -->
<svg version="1.1" id="圖層_1" xmlns="http://www.w3.org/2000/svg" xmlns:xlink="http://www.w3.org/1999/xlink" x="0px" y="0px"
	 viewBox="0 0 148.1 148.3" style="enable-background:new 0 0 148.1 148.3;" xml:space="preserve">
<style type="text/css">
	.st0{fill-rule:evenodd;clip-rule:evenodd;fill:#8F1838;}
	.st1{fill:#FFFFFF;}
	.st2{display:none;}
	.st3{display:inline;}
	.st4{enable-background:new    ;}
</style>
<g id="圖層_4">
	<path id="rect8528-63-2-4-3-6-0-4-3" class="st0" d="M0.9,0h146.4c0.5,0,0.8,0.4,0.8,0.8v146.7c0,0.5-0.4,0.8-0.8,0.8H0.9
		c-0.5,0-0.8-0.4-0.8-0.8V0.8C0.1,0.4,0.4,0,0.9,0z"/>
	<g id="text6075-0-6-9-2-5-9-0">
		<path id="path2194" class="st1" d="M28.2,36.1v0.3c0,0.7-0.1,1.3-0.4,2.1c-0.3,0.7-0.7,1.4-1.3,2c-0.5,0.6-1.2,1.1-1.9,1.5
			s-1.5,0.6-2.4,0.6h-0.1c-0.6,0-1.3-0.1-1.9-0.3s-1.2-0.4-1.7-0.7s-1-0.6-1.3-1c-0.4-0.4-0.7-0.8-0.8-1.2c-0.4-0.8-0.6-1.5-0.7-2.1
			c-0.1-0.6-0.1-1.1-0.1-1.7v-5.2c0-1.5,0.7-2.9,2.1-3.9c-1.4-1.1-2.1-2.5-2.1-4.4v-4c0-0.6,0.1-1.2,0.3-1.7
			c0.2-0.6,0.7-1.4,1.6-2.5c0.8-1.1,2.4-1.7,4.6-1.7c0.8,0,1.6,0.2,2.4,0.5c0.7,0.4,1.6,1,2.5,2c0.9,0.9,1.4,2.2,1.4,3.9v3.8
			c0,1.7-0.7,3.1-2.1,4.1c1.4,1,2.1,2.5,2.1,4.2L28.2,36.1z M21.9,16.3c-0.6,0-1.1,0.2-1.6,0.7c-0.4,0.4-0.6,0.9-0.6,1.5v3.8
			c0,0.7,0.2,1.3,0.5,1.8c0.4,0.5,0.9,0.7,1.6,0.7s1.3-0.2,1.6-0.7c0.4-0.5,0.5-1.1,0.5-1.8v-3.8c0-0.6-0.2-1.1-0.6-1.5
			C22.9,16.5,22.5,16.3,21.9,16.3z M21.9,28.1c-0.7,0-1.2,0.2-1.6,0.7c-0.4,0.4-0.6,1-0.6,1.6v5.2c0,0.8,0.2,1.4,0.5,1.9
			c0.4,0.5,0.9,0.7,1.7,0.7c0.8,0,1.3-0.3,1.6-0.8c0.3-0.5,0.4-1.2,0.4-1.9v-5.2c0-0.7-0.2-1.2-0.6-1.6C23,28.3,22.5,28.1,21.9,28.1
			L21.9,28.1z"/>
	</g>
	<path id="path7328" class="st1" d="M109.3,54.3c-0.1,0-0.1,0-0.2,0l-12.2,3.3c-0.5,0.1-0.7,0.8-0.3,1.2l2.6,2.6l-26,26.1L62.8,77.1
		c-1-1-2.6-1-3.5,0l-21,21l3.5,3.5L61,82.4l10.4,10.4c1,1,2.6,1,3.5,0L102.8,65l2.8,2.8c0.1,0.1,0.3,0.2,0.5,0.2
		c0.3,0,0.6-0.2,0.7-0.5l3.3-12.2C110.1,54.8,109.8,54.3,109.3,54.3L109.3,54.3z M102.8,72L86.3,88.5v40.2c0,1.1,0.9,1.9,1.9,1.9h14
		c1.1,0,1.9-0.9,1.9-1.9V73.4L102.8,72z M60.5,90l-17.8,17.8v20.9c0,1.1,0.9,1.9,1.9,1.9h14c1.1,0,1.9-0.9,1.9-1.9
		C60.5,128.7,60.5,90,60.5,90z M82.4,92.5L75,99.9c-1,1-2.6,1-3.5,0l-7-6.9v35.7c0,1.1,0.9,1.9,1.9,1.9h14c1.1,0,1.9-0.9,1.9-1.9
		L82.4,92.5L82.4,92.5z"/>
	<path id="path7328-8" class="st1" d="M109.3,54.3c-0.1,0-0.1,0-0.2,0l-12.2,3.3c-0.5,0.1-0.7,0.8-0.3,1.2l2.6,2.6l-26,26.1
		L62.8,77.1c-1-1-2.6-1-3.5,0l-21,21l3.5,3.5L61,82.4l10.4,10.4c1,1,2.6,1,3.5,0L102.8,65l2.8,2.8c0.1,0.1,0.3,0.2,0.5,0.2
		c0.3,0,0.6-0.2,0.7-0.5l3.3-12.2C110.1,54.8,109.8,54.3,109.3,54.3L109.3,54.3z"/>
</g>
<g id="en" class="st2">
	<g id="text6065-3-2-9-6-6-5-0" class="st3">
		<path id="path2139" class="st1" d="M43,13.1c0.8,0,1.5,0.3,2.1,0.9c0.6,0.6,0.9,1.2,0.9,2.1v6.5c0,0.9-0.3,1.7-0.8,2.2
			c-0.6,0.6-1.3,0.9-2.2,0.9h-2.8V13.1H43z M44.1,22.5V16c0-0.3-0.1-0.6-0.4-0.9c-0.2-0.2-0.6-0.4-0.9-0.4h-0.9v9.2h0.9
			C43.7,23.9,44.1,23.4,44.1,22.5z"/>
		<path id="path2141" class="st1" d="M52.8,23.8v1.8h-5.4V13.1h5.4v1.6h-3.6v3.7h3.1v1.7h-3.1v3.7C49.2,23.8,52.8,23.8,52.8,23.8z"
			/>
		<path id="path2143" class="st1" d="M59.4,22.4c0,0.4,0,0.7-0.1,1c0,0.3-0.2,0.6-0.4,0.9c-0.1,0.2-0.3,0.3-0.4,0.5
			c-0.2,0.1-0.3,0.3-0.6,0.4c-0.2,0.1-0.4,0.2-0.7,0.3c-0.2,0.1-0.5,0.1-0.7,0.1c-0.6,0-1.1-0.1-1.5-0.4c-0.4-0.2-0.8-0.5-1-0.9
			s-0.3-0.7-0.4-1c0-0.3-0.1-0.6-0.1-1V16c0-0.3,0-0.7,0.1-0.9c0.1-0.3,0.2-0.6,0.4-0.9c0.2-0.3,0.5-0.6,1-0.8
			c0.4-0.2,0.8-0.4,1.3-0.4c0.9,0,1.6,0.3,2.1,0.9c0.6,0.6,0.9,1.3,0.9,2.2v0.7h-1.8V16c0-0.3-0.1-0.6-0.3-0.9
			c-0.2-0.2-0.5-0.4-0.8-0.4s-0.6,0.1-0.8,0.4c-0.2,0.2-0.3,0.5-0.3,0.9v6.9c0,0.2,0.1,0.4,0.3,0.6s0.5,0.4,0.9,0.4s0.7-0.1,0.8-0.3
			c0.1-0.2,0.2-0.4,0.2-0.5s0-0.3,0-0.4V22h1.8L59.4,22.4z"/>
		<path id="path2145" class="st1" d="M65.9,23.8v1.8h-5.4V13.1h5.4v1.6h-3.6v3.7h3.1v1.7h-3.1v3.7C62.3,23.8,65.9,23.8,65.9,23.8z"
			/>
		<path id="path2147" class="st1" d="M71.5,25.6L68.8,18v7.6H67V13.1h1.7l2.8,7.6v-7.6h1.8v12.5H71.5z"/>
		<path id="path2149" class="st1" d="M75.7,25.6V14.7h-2.1V13h6v1.7h-2.1v10.8h-1.8V25.6z"/>
		<path id="path2151" class="st1" d="M88.4,25.6L86.9,18l-1.4,7.6h-1.7L82,13.1h1.9l0.9,7.6l1.4-7.6h1.3l1.5,7.6l0.9-7.6h1.9
			L90,25.6H88.4z"/>
		<path id="path2153" class="st1" d="M93,14.2c0.3-0.4,0.6-0.7,1.1-0.9c0.4-0.2,0.9-0.4,1.4-0.4s0.9,0.1,1.3,0.3s0.8,0.4,1,0.8
			s0.5,0.7,0.6,1s0.1,0.7,0.1,1.1v6.4c0,0.4,0,0.7-0.1,1s-0.2,0.6-0.4,1c-0.2,0.3-0.6,0.6-1,0.9c-0.4,0.2-0.9,0.4-1.4,0.4
			c-0.3,0-0.6,0-0.9-0.1s-0.5-0.2-0.8-0.3c-0.2-0.1-0.4-0.3-0.6-0.5s-0.3-0.4-0.4-0.5c-0.2-0.4-0.3-0.7-0.3-0.9
			c0-0.2-0.1-0.5-0.1-0.8v-6.4c0-0.4,0-0.7,0.1-1C92.6,14.8,92.8,14.5,93,14.2L93,14.2z M96.4,15.2c-0.2-0.3-0.6-0.5-1-0.5
			c-0.2,0-0.4,0.1-0.6,0.2c-0.2,0.1-0.3,0.2-0.4,0.4c-0.1,0.1-0.1,0.3-0.1,0.4c0,0.1,0,0.3,0,0.4v6.4c0,0.1,0,0.1,0,0.2s0,0.1,0,0.2
			s0.1,0.3,0.3,0.6c0.2,0.3,0.5,0.4,0.9,0.4c0.2,0,0.4,0,0.6-0.1s0.3-0.2,0.4-0.4c0.1-0.1,0.1-0.3,0.2-0.4s0-0.3,0-0.5v-6.4
			c0-0.2,0-0.4,0-0.5C96.6,15.5,96.5,15.4,96.4,15.2L96.4,15.2z"/>
		<path id="path2155" class="st1" d="M100,25.6V13.1h3.1c0.8,0,1.5,0.3,2.1,0.9c0.6,0.6,0.9,1.3,0.9,2.1v1.2c0,1.2-0.5,2-1.5,2.7
			l1.9,5.7h-1.9l-1.7-5.4h-1.1v5.4L100,25.6z M103.9,18.2c0.1-0.1,0.2-0.3,0.2-0.5s0.1-0.4,0.1-0.6V16c0-0.4-0.1-0.7-0.3-0.9
			c-0.2-0.2-0.5-0.4-0.9-0.4h-1.3v3.9h1.3C103.4,18.6,103.7,18.5,103.9,18.2L103.9,18.2z"/>
		<path id="path2157" class="st1" d="M111.8,25.6l-2-5.6l-1,1.8v3.7H107V13.1h1.8v5.7l2.7-5.7h1.8l-2.4,5l2.9,7.5
			C113.8,25.6,111.8,25.6,111.8,25.6z"/>
		<path id="path2159" class="st1" d="M115.5,25.6l2.8-12.5h1.5l2.8,12.5h-1.9l-0.5-2.7h-2.3l-0.5,2.7H115.5z M118.3,21.2h1.7
			l-0.8-4.6L118.3,21.2z"/>
		<path id="path2161" class="st1" d="M128.2,25.6l-2.8-7.6v7.6h-1.8V13.1h1.7l2.8,7.6v-7.6h1.8v12.5H128.2z"/>
		<path id="path2163" class="st1" d="M133.9,13.1c0.8,0,1.5,0.3,2.1,0.9c0.6,0.6,0.9,1.2,0.9,2.1v6.5c0,0.9-0.3,1.7-0.8,2.2
			c-0.6,0.6-1.3,0.9-2.2,0.9h-2.8V13.1H133.9z M135.1,22.5V16c0-0.3-0.1-0.6-0.4-0.9c-0.2-0.2-0.6-0.4-0.9-0.4h-0.9v9.2h0.9
			C134.7,23.9,135.1,23.4,135.1,22.5z"/>
		<path id="path2165" class="st1" d="M45.5,41v1.8h-5.4V30.3h5.4V32h-3.6v3.7H45v1.7h-3.1V41H45.5z"/>
		<path id="path2167" class="st1" d="M52,39.7c0,0.4,0,0.7-0.1,1c0,0.3-0.2,0.6-0.4,0.9c-0.1,0.2-0.3,0.3-0.4,0.5
			c-0.2,0.1-0.3,0.3-0.6,0.4c-0.2,0.1-0.4,0.2-0.7,0.3s-0.5,0.1-0.7,0.1c-0.6,0-1.1-0.1-1.5-0.4c-0.4-0.2-0.8-0.5-1-0.9
			s-0.3-0.7-0.4-1c0-0.3-0.1-0.6-0.1-1v-6.4c0-0.3,0-0.7,0.1-0.9c0.1-0.3,0.2-0.6,0.4-0.9s0.5-0.6,1-0.8c0.4-0.2,0.8-0.4,1.3-0.4
			c0.9,0,1.6,0.3,2.1,0.9c0.6,0.6,0.9,1.3,0.9,2.2V34h-1.8v-0.7c0-0.3-0.1-0.6-0.3-0.9C49.7,32.1,49.4,32,49,32
			c-0.3,0-0.6,0.1-0.8,0.4c-0.2,0.2-0.3,0.5-0.3,0.9v6.9c0,0.2,0.1,0.4,0.3,0.6c0.2,0.2,0.5,0.4,0.9,0.4s0.7-0.1,0.8-0.3
			s0.2-0.4,0.2-0.5s0-0.3,0-0.4v-0.6H52V39.7z"/>
		<path id="path2169" class="st1" d="M53.8,31.5c0.3-0.4,0.6-0.7,1.1-0.9c0.4-0.2,0.9-0.4,1.4-0.4s0.9,0.1,1.3,0.3
			c0.4,0.2,0.8,0.4,1,0.8c0.3,0.3,0.5,0.7,0.6,1s0.1,0.7,0.1,1.1v6.4c0,0.4,0,0.7-0.1,1s-0.2,0.6-0.4,1c-0.2,0.3-0.6,0.6-1,0.9
			c-0.4,0.2-0.9,0.4-1.4,0.4c-0.3,0-0.6,0-0.9-0.1c-0.3-0.1-0.5-0.2-0.8-0.3c-0.2-0.1-0.4-0.3-0.6-0.5c-0.2-0.2-0.3-0.4-0.4-0.5
			c-0.2-0.4-0.3-0.7-0.3-0.9s-0.1-0.5-0.1-0.8v-6.4c0-0.4,0-0.7,0.1-1C53.4,32.1,53.6,31.8,53.8,31.5L53.8,31.5z M57.3,32.5
			c-0.2-0.3-0.6-0.5-1-0.5c-0.2,0-0.4,0.1-0.6,0.2c-0.2,0.1-0.3,0.2-0.4,0.4c-0.1,0.1-0.1,0.3-0.1,0.4c0,0.1,0,0.3,0,0.4v6.4
			c0,0.1,0,0.1,0,0.2c0,0.1,0,0.1,0,0.2c0,0.1,0.1,0.3,0.3,0.6s0.5,0.4,0.9,0.4c0.2,0,0.4,0,0.6-0.1c0.2-0.1,0.3-0.2,0.4-0.4
			c0.1-0.1,0.1-0.3,0.2-0.4c0-0.1,0-0.3,0-0.5v-6.4c0-0.2,0-0.4,0-0.5C57.4,32.7,57.4,32.6,57.3,32.5L57.3,32.5z"/>
		<path id="path2171" class="st1" d="M65.3,42.8l-2.8-7.6v7.6h-1.8V30.3h1.7l2.8,7.6v-7.6H67v12.5C67,42.8,65.3,42.8,65.3,42.8z"/>
		<path id="path2173" class="st1" d="M68.6,31.5c0.3-0.4,0.6-0.7,1.1-0.9c0.4-0.2,0.9-0.4,1.4-0.4s0.9,0.1,1.3,0.3
			c0.4,0.2,0.8,0.4,1,0.8c0.3,0.3,0.5,0.7,0.6,1s0.1,0.7,0.1,1.1v6.4c0,0.4,0,0.7-0.1,1s-0.2,0.6-0.4,1c-0.2,0.3-0.6,0.6-1,0.9
			c-0.4,0.2-0.9,0.4-1.4,0.4c-0.3,0-0.6,0-0.9-0.1s-0.5-0.2-0.8-0.3c-0.2-0.1-0.4-0.3-0.6-0.5s-0.3-0.4-0.4-0.5
			c-0.2-0.4-0.3-0.7-0.3-0.9s-0.1-0.5-0.1-0.8v-6.4c0-0.4,0-0.7,0.1-1C68.3,32.1,68.4,31.8,68.6,31.5L68.6,31.5z M72.1,32.5
			c-0.2-0.3-0.6-0.5-1-0.5c-0.2,0-0.4,0.1-0.6,0.2c-0.2,0.1-0.3,0.2-0.4,0.4C70,32.7,70,32.9,70,33c0,0.1,0,0.3,0,0.4v6.4
			c0,0.1,0,0.1,0,0.2c0,0.1,0,0.1,0,0.2c0,0.1,0.1,0.3,0.3,0.6c0.2,0.3,0.5,0.4,0.9,0.4c0.2,0,0.4,0,0.6-0.1s0.3-0.2,0.4-0.4
			c0.1-0.1,0.1-0.3,0.2-0.4c0-0.1,0-0.3,0-0.5v-6.4c0-0.2,0-0.4,0-0.5C72.2,32.7,72.2,32.6,72.1,32.5L72.1,32.5z"/>
		<path id="path2175" class="st1" d="M81.6,42.8v-7.6l-1.8,5.3H79l-1.8-5.3v7.6h-1.8V30.3h1.7l2.4,6.7l2.3-6.7h1.6v12.5H81.6z"/>
		<path id="path2177" class="st1" d="M84.5,42.8V30.3h1.8v12.5H84.5z"/>
		<path id="path2179" class="st1" d="M93.7,39.7c0,0.4,0,0.7-0.1,1c0,0.3-0.2,0.6-0.4,0.9c-0.1,0.2-0.3,0.3-0.4,0.5
			c-0.2,0.1-0.3,0.3-0.6,0.4c-0.2,0.1-0.4,0.2-0.7,0.3s-0.5,0.1-0.7,0.1c-0.6,0-1.1-0.1-1.5-0.4c-0.4-0.2-0.8-0.5-1-0.9
			s-0.3-0.7-0.4-1c0-0.3-0.1-0.6-0.1-1v-6.4c0-0.3,0-0.7,0.1-0.9c0.1-0.3,0.2-0.6,0.4-0.9s0.5-0.6,1-0.8c0.4-0.2,0.8-0.4,1.3-0.4
			c0.9,0,1.6,0.3,2.1,0.9c0.6,0.6,0.9,1.3,0.9,2.2V34h-1.8v-0.7c0-0.3-0.1-0.6-0.3-0.9C91.3,32.2,91,32,90.7,32s-0.6,0.1-0.8,0.4
			c-0.2,0.2-0.3,0.5-0.3,0.9v6.9c0,0.2,0.1,0.4,0.3,0.6c0.2,0.2,0.5,0.4,0.9,0.4s0.7-0.1,0.8-0.3c0.1-0.2,0.2-0.4,0.2-0.5
			s0-0.3,0-0.4v-0.6h1.8L93.7,39.7z"/>
		<path id="path2181" class="st1" d="M102.5,41.5c-0.3,0.4-0.7,0.8-1.1,1s-0.9,0.4-1.5,0.4c-0.5,0-0.9-0.1-1.4-0.3
			c-0.4-0.2-0.8-0.5-1-0.8s-0.4-0.7-0.5-1s-0.1-0.7-0.1-1.1v-6.3c0-0.3,0-0.6,0.1-0.9c0.1-0.3,0.3-0.8,0.7-1.3
			c0.4-0.6,1.1-0.9,2.3-0.9c0.5,0,1,0.1,1.4,0.4s0.8,0.5,1,0.9c0.2,0.3,0.4,0.7,0.4,1c0.1,0.3,0.1,0.6,0.1,1v0.5h-1.8v-0.5
			c0-0.1,0-0.2,0-0.3s0-0.2,0-0.2c0-0.1-0.1-0.3-0.3-0.5c-0.2-0.2-0.5-0.4-0.9-0.4c-0.5,0-0.8,0.1-1,0.4c-0.1,0.3-0.2,0.5-0.3,0.6
			c0,0.1,0,0.3,0,0.4v6.3c0,0.1,0,0.2,0,0.3s0,0.2,0,0.2c0,0.1,0.1,0.3,0.3,0.6c0.2,0.3,0.5,0.4,1,0.4s0.8-0.1,0.9-0.4
			c0.1-0.1,0.1-0.2,0.2-0.3c0-0.1,0.1-0.2,0.1-0.3s0-0.1,0-0.2c0-0.1,0-0.2,0-0.3v-2.2h-1.4v-1.6h3.2v3.8c0,0.3,0,0.5,0,0.7
			s0,0.3-0.1,0.5c0,0.1-0.1,0.3-0.1,0.4C102.7,41.3,102.6,41.4,102.5,41.5L102.5,41.5z"/>
		<path id="path2183" class="st1" d="M104.2,42.8V30.3h3.1c0.8,0,1.5,0.3,2.1,0.9s0.9,1.3,0.9,2.1v1.2c0,1.2-0.5,2-1.5,2.7l1.9,5.7
			h-1.9l-1.7-5.4H106v5.4h-1.8V42.8z M108.2,35.5c0.1-0.1,0.2-0.3,0.2-0.5s0.1-0.4,0.1-0.6v-1.2c0-0.4-0.1-0.7-0.3-0.9
			c-0.2-0.2-0.5-0.4-0.9-0.4H106v3.9h1.3C107.6,35.9,107.9,35.7,108.2,35.5L108.2,35.5z"/>
		<path id="path2185" class="st1" d="M111.8,31.5c0.3-0.4,0.6-0.7,1.1-0.9c0.4-0.2,0.9-0.4,1.4-0.4s0.9,0.1,1.3,0.3
			c0.4,0.2,0.8,0.4,1,0.8c0.3,0.3,0.5,0.7,0.6,1s0.1,0.7,0.1,1.1v6.4c0,0.4,0,0.7-0.1,1s-0.2,0.6-0.4,1c-0.2,0.3-0.6,0.6-1,0.9
			c-0.4,0.2-0.9,0.4-1.4,0.4c-0.3,0-0.6,0-0.9-0.1s-0.5-0.2-0.8-0.3c-0.2-0.1-0.4-0.3-0.6-0.5s-0.3-0.4-0.4-0.5
			c-0.2-0.4-0.3-0.7-0.3-0.9s-0.1-0.5-0.1-0.8v-6.4c0-0.4,0-0.7,0.1-1C111.4,32.1,111.6,31.8,111.8,31.5L111.8,31.5z M115.2,32.5
			c-0.2-0.3-0.6-0.5-1-0.5c-0.2,0-0.4,0.1-0.6,0.2c-0.2,0.1-0.3,0.2-0.4,0.4c-0.1,0.1-0.1,0.3-0.1,0.4c0,0.1,0,0.3,0,0.4v6.4
			c0,0.1,0,0.1,0,0.2c0,0.1,0,0.1,0,0.2c0,0.1,0.1,0.3,0.3,0.6c0.2,0.3,0.5,0.4,0.9,0.4c0.2,0,0.4,0,0.6-0.1s0.3-0.2,0.4-0.4
			c0.1-0.1,0.1-0.3,0.2-0.4c0-0.1,0-0.3,0-0.5v-6.4c0-0.2,0-0.4,0-0.5C115.4,32.7,115.4,32.6,115.2,32.5L115.2,32.5z"/>
		<path id="path2187" class="st1" d="M124.6,42.8l-1.5-7.6l-1.4,7.6H120l-1.8-12.5h1.9l0.9,7.6l1.4-7.6h1.3l1.5,7.6l0.9-7.6h1.9
			l-1.8,12.5C126.2,42.8,124.6,42.8,124.6,42.8z"/>
		<path id="path2189" class="st1" d="M130.5,42.8V32h-2.1v-1.7h6V32h-2.1v10.8H130.5z"/>
		<path id="path2191" class="st1" d="M135.3,42.8V30.3h1.8v5.3h2.3v-5.3h1.8v12.5h-1.8v-5.6h-2.3v5.6H135.3z"/>
	</g>
</g>
<g id="tw">
	<g class="st4">
		<path class="st1" d="M48.7,16.8l-0.9,1.3c-2.6-1.2-4.8-2.5-6.5-4c-1.6,1.3-3.7,2.6-6.3,3.9l-1-1.2c3.1-1.4,5.4-3,7-4.6l1.6,0.6
			c-0.1,0.1-0.2,0.2-0.3,0.3C43.9,14.4,46.1,15.6,48.7,16.8z M46.7,26.6h-1.5v-0.8h-7.7v0.8H36V20h10.7V26.6z M45.2,24.4v-3h-7.7v3
			H45.2z M45.1,18.2h-7.5v-1.4h7.5V18.2z"/>
		<path class="st1" d="M65,25l-0.4,1.4c-1.3,0-3.4,0-6.2,0c-2.4,0-4.2-0.5-5.4-1.6c-0.4,0.7-0.9,1.3-1.4,2l-1.2-0.9
			c1.3-1.5,2.2-3,2.7-4.7h-2.4v-1.4c0.8-0.8,1.5-1.7,2.1-2.8h-2.2v-1.4h4v1.2c-0.5,0.9-1.2,1.9-2,3h2.1v1.4
			c-0.2,0.8-0.5,1.6-0.9,2.4c0.5,0.5,1.2,0.8,2,1.1s1.9,0.4,3.3,0.4C60,25.1,62.1,25.1,65,25z M54.5,14.2l-1,1
			c-0.7-0.7-1.5-1.4-2.6-2.1l1-1.1C52.9,12.7,53.7,13.4,54.5,14.2z M64.6,14.7h-3.1l1.2,0.5c-0.1,0.3-0.3,0.6-0.5,0.9h2.1v7.6
			c0,0.7-0.7,1.1-2,1l-0.5-1.2l0.9,0c0,0,0.1,0,0.2-0.1c0.1-0.1,0.1-0.1,0.1-0.2v-5.9h-2.5v0.9h1.9v1.1h-1.9v0.8H62v3.1h-4.3v-3.1
			h1.4v-0.8h-1.9v-1.1h1.9v-0.9h-2.4v7.1h-1.4v-8.3h2c-0.2-0.4-0.3-0.7-0.5-0.9l0.9-0.5H55v-1.2h3.9c-0.1-0.3-0.2-0.6-0.4-0.9
			l1.5-0.4c0.2,0.4,0.4,0.8,0.6,1.3h4.1V14.7z M61.2,14.7h-3c0.3,0.5,0.5,1,0.6,1.4h1.7C60.9,15.6,61.1,15.1,61.2,14.7z M60.7,22.2
			v-0.9H59v0.9H60.7z"/>
		<path class="st1" d="M73.2,26.5h-1.4v-1.1h-3v1.2h-1.4V14.7h1.5c0.4-0.8,0.7-1.6,1-2.5l1.5,0.2c-0.1,0.5-0.3,1.3-0.8,2.2h2.6V26.5
			z M71.7,19.1v-3h-3v3H71.7z M71.7,24v-3.4h-3V24H71.7z M81.1,14.8c0,1.6-0.1,3.6-0.2,6.1c-0.1,2.5-0.3,4-0.4,4.4s-0.5,0.8-0.9,1
			c-0.4,0.2-1.4,0.3-2.9,0.3l-0.5-1.4l2.2,0c0.2,0,0.4-0.1,0.7-0.3c0.2-0.2,0.4-1.4,0.5-3.6c0.1-2.2,0.2-3.9,0.2-5.1h-3.3
			c-0.5,1.3-1.1,2.4-1.7,3.3l-1.1-1c1.2-1.9,2-4,2.5-6.4l1.4,0.3c-0.1,0.6-0.3,1.3-0.6,2.3H81.1z M78.7,22.1l-1.3,0.8
			c-0.7-1.4-1.5-2.6-2.3-3.5l1.3-0.8C77.5,19.9,78.3,21.1,78.7,22.1z"/>
		<path class="st1" d="M97.6,26H83.3v-1.5h6.4V14.4H84v-1.5h13v1.5h-5.7v10.2h6.3V26z"/>
		<path class="st1" d="M104.3,12.5c-0.2,0.7-0.5,1.3-0.7,1.8l-0.7,1.6v10.7h-1.5v-8.2c-0.4,0.6-0.8,1-1.1,1.4l-0.7-1.5
			c1.4-1.7,2.4-3.7,3.2-6.1L104.3,12.5z M114,15.7h-5.1v2.4h4.7v1.4h-4.7v2.4h4.7v1.3h-4.7v3.4h-1.5V15.7h-0.6
			c-0.8,1.5-1.6,2.7-2.4,3.6l-1.1-1c1.4-1.7,2.5-3.7,3.2-6.1l1.5,0.3c-0.1,0.3-0.3,1-0.6,1.9h6.5V15.7z"/>
	</g>
	<g class="st4">
		<path class="st1" d="M48.4,45.1l-0.8,1.2c-1.6-0.7-3-1.5-4.1-2.3c-1.4,0.9-3.1,1.7-5.1,2.4l-0.8-1.3c1.9-0.6,3.4-1.3,4.7-2.1
			c-1.1-1.1-2.1-2.5-3.1-4.3c-0.6,3-2,5.5-4.2,7.5l-1-1.1c1.4-1.3,2.4-2.7,3-4.1s1-3.9,1.2-7.3h-3v-1.4h11c-0.4,1.5-0.8,3-1.4,4.4
			h2.6c-0.5,2.8-1.4,5-2.9,6.5C45.7,43.8,46.9,44.5,48.4,45.1z M44.4,33.6h-4.5c0,1.1-0.1,2-0.3,3h3.8C43.7,35.8,44,34.8,44.4,33.6z
			 M45.8,38.1h-5.2c0.9,1.7,1.9,3.1,3,4.1C44.5,41.2,45.3,39.8,45.8,38.1z"/>
		<path class="st1" d="M52.5,42.6c-0.1,1.3-0.4,2.5-0.8,3.8l-1.2-0.6c0.4-1.4,0.7-2.6,0.8-3.5L52.5,42.6z M56.3,34.6
			c-1,2.2-2.2,4-3.6,5.6c0.6-0.1,1.3-0.2,1.9-0.4c-0.1-0.3-0.2-0.6-0.3-0.8l1.1-0.4c0.4,0.9,0.7,1.8,0.8,2.8L55,41.7
			c0-0.2-0.1-0.5-0.1-0.7c-1.4,0.4-2.8,0.6-4,0.8l-0.3-1.2c0.9-0.8,1.8-2,2.7-3.4c-0.8,0.2-1.6,0.3-2.3,0.4l-0.3-1.3
			c1-1.1,1.8-2.6,2.4-4.5l1.4,0.5c-0.6,1.5-1.2,2.7-2,3.7c0.4,0,1-0.2,1.7-0.4c0.2-0.4,0.5-0.9,0.8-1.7L56.3,34.6z M54.4,45.5
			l-1.3,0.3c0-0.7-0.1-1.8-0.3-3.2l1.2-0.3C54.3,43.4,54.4,44.5,54.4,45.5z M56.1,44.1L55,44.4c-0.1-0.9-0.3-1.6-0.4-2l1.1-0.3
			C55.8,42.6,56,43.3,56.1,44.1z M59.1,39.7l-1.2,0.6c-0.5-1-1.2-2.1-2-3.2c0.7-1,1.3-2,1.8-2.9l1.3,0.5c-0.3,0.7-0.8,1.5-1.5,2.4
			C58.3,38.3,58.8,39.2,59.1,39.7z M64.9,46h-8.8v-1.4h3.7V42h-3.2v-1.4h7.8V42h-3.1v2.5h3.6V46z M64.6,33.6h-8.3v-1.4h8.3V33.6z
			 M61.9,39.7l-1.3,0.6c-0.6-1.2-1.2-2.3-2-3.3c0.6-0.8,1.2-1.8,1.7-2.9l1.3,0.5c-0.5,0.9-1,1.7-1.4,2.4
			C61.2,38.3,61.7,39.2,61.9,39.7z M64.7,39.7l-1.3,0.6c-0.5-1-1.1-2.1-1.9-3.2c0.7-1.1,1.3-2.1,1.8-3l1.2,0.6
			c-0.2,0.6-0.7,1.4-1.3,2.4C63.8,38,64.3,38.9,64.7,39.7z"/>
		<path class="st1" d="M70.6,40.8c-0.7,2.1-1.5,3.9-2.5,5.5l-1.2-1c0.9-1.5,1.7-3.2,2.4-5.2L70.6,40.8z M70.3,38.2l-1,1
			c-0.6-0.7-1.4-1.5-2.3-2.2l1-1C68.9,36.7,69.7,37.4,70.3,38.2z M70.5,34.1l-1,1c-0.8-0.9-1.6-1.6-2.4-2.2l1.1-1
			C69.3,32.7,70,33.4,70.5,34.1z M80.1,46.4h-1.4v-2.2h-6c-0.4,0.9-0.9,1.7-1.7,2.2l-1.2-0.9c1.1-0.8,1.7-1.9,1.7-3.3v-2.5h1.4v0.8
			h5.7v-0.8h1.4V46.4z M81.3,34.1h-4.1l0.8,0.6c-0.1,0.3-0.2,0.5-0.3,0.6c1-0.1,1.9-0.4,2.7-0.8l0.7,1c-0.7,0.3-1.5,0.6-2.5,0.7v1.7
			c0.1,0,0.4-0.1,0.7-0.3l0.2,1.1c-0.6,0.3-1.2,0.5-2,0.7l-0.4-1c0.2-0.1,0.3-0.3,0.3-0.5v-2.2l-0.8,1.1v2.8h-1.3v-2.6
			c-0.1-0.5-0.4-1-0.7-1.6c0,0.8,0,1.6-0.1,2.2s-0.1,1-0.2,1.1s-0.3,0.3-0.5,0.4c-0.2,0.1-0.5,0.1-0.9,0.1l-0.3-1.2
			c0.4,0,0.6-0.1,0.7-0.2c0.1-0.1,0.1-0.7,0.1-1.7h-0.7c-0.1,1.4-0.5,2.5-1.2,3.3l-1-0.7c0.6-0.6,0.9-1.4,1-2.6h-0.8v-1.1h3.6
			c-0.1-0.2-0.2-0.4-0.2-0.4l0.9-0.5h-4.2v-1.2h4.6c0-0.1-0.1-0.4-0.3-0.7l1.4-0.2c0.1,0.3,0.3,0.6,0.4,1h4.5V34.1z M78.7,42.9v-1.2
			h-5.7v1.2H78.7z M76.9,34.1h-1.8c0.2,0.4,0.5,1,0.8,1.7C76.4,35.3,76.7,34.7,76.9,34.1z M81.5,38.8l-1,0.8c-0.6-0.8-1.1-1.8-1.4-3
			l1.1-0.3C80.5,37.4,80.9,38.2,81.5,38.8z"/>
		<path class="st1" d="M97.7,43.2c-0.3,2.2-0.9,3.3-1.9,3.3c-1,0-1.9-1-2.7-3c-1.1,1.2-2.3,2.2-3.7,3.1l-1-1.1
			c1.8-1.1,3.2-2.3,4.2-3.5c-0.5-1.9-0.8-3.9-0.9-6h-5.6v1.8h4.3c-0.1,1.3-0.1,2.4-0.2,3.2c-0.1,0.8-0.1,1.3-0.2,1.7
			c-0.1,0.4-0.2,0.7-0.4,1c-0.2,0.3-0.5,0.5-0.8,0.6c-0.3,0.1-0.7,0.1-1.2,0.1c-0.3,0-0.5,0-0.8,0l-0.4-1.4c0.3,0,0.6,0,0.8,0
			c0.8,0,1.2-0.1,1.3-0.3c0.1-0.2,0.2-0.7,0.3-1.5s0.1-1.5,0.1-2h-2.9c-0.1,3.1-0.7,5.6-1.8,7.3l-1.1-1.1c1-1.6,1.5-4.1,1.5-7.3
			v-3.5h6.9c0-0.9,0-1.7,0-2.6H93c0,0.3,0,0.6,0,0.9c0,0.5,0,1.1,0.1,1.8h4.3V36h-4.2c0.1,1.5,0.3,3,0.6,4.5c0.6-1,1.2-2.2,1.7-3.6
			l1.3,0.5c-0.7,2-1.6,3.6-2.6,4.8c0.2,0.6,0.4,1.2,0.7,1.7c0.3,0.5,0.5,0.8,0.5,0.8c0.1,0.1,0.2,0.1,0.2,0.1c0.1,0,0.2,0,0.2-0.1
			c0.1-0.1,0.1-0.3,0.2-0.8c0.1-0.5,0.2-0.9,0.2-1.4L97.7,43.2z M96.9,33.3l-0.8,1.1c-0.6-0.4-1.4-0.8-2.3-1.2l0.8-1.1
			C95.5,32.4,96.2,32.8,96.9,33.3z"/>
		<path class="st1" d="M114,40.3h-10.9v4.1c1-0.2,2.1-0.6,3.4-1l0.1,1.5c-1.8,0.6-3.4,1.1-5,1.4l-0.4-1.2c0.2-0.1,0.4-0.3,0.4-0.6
			v-4.2h-1.9v-1.4h2.3v-6.7h11v1.3h-9.5v1h8.6v1.3h-8.6v1h8.6V38h-8.6v1H114V40.3z M114.1,45l-0.7,1.4c-2-0.5-3.5-1.1-4.6-1.8
			s-2.1-1.8-3.1-3.2l1.3-0.7c0.4,0.7,1,1.4,1.6,2c1.2-0.7,2.2-1.4,2.9-2.1l1.1,1c-1,0.9-1.9,1.5-2.8,2
			C110.9,44.2,112.3,44.7,114.1,45z"/>
	</g>
</g>
</svg>
