<?xml version="1.0" encoding="utf-8"?>
<!-- Generator: Adobe Illustrator 24.3.0, SVG Export Plug-In . SVG Version: 6.00 Build 0)  -->
<svg version="1.1" id="圖層_1" xmlns="http://www.w3.org/2000/svg" xmlns:xlink="http://www.w3.org/1999/xlink" x="0px" y="0px"
	 viewBox="0 0 148.1 148.3" style="enable-background:new 0 0 148.1 148.3;" xml:space="preserve">
<style type="text/css">
	.st0{fill-rule:evenodd;clip-rule:evenodd;fill:#00AED9;}
	.st1{fill:#FFFFFF;}
	.st2{display:none;}
	.st3{display:inline;}
	.st4{enable-background:new    ;}
</style>
<g id="圖層_4">
	<path id="rect8528-63-2-4" class="st0" d="M0.9,0.1h146.4c0.5,0,0.8,0.4,0.8,0.8v146.7c0,0.5-0.4,0.8-0.8,0.8H0.9
		c-0.5,0-0.8-0.4-0.8-0.8V0.9C0.1,0.4,0.5,0.1,0.9,0.1z"/>
	<g id="text6075-0-6-9-2-5">
		<path id="path2084" class="st1" d="M28.5,27.2c0.2,0.4,0.4,0.8,0.4,1.3c0.1,0.4,0.1,1,0.1,1.7v5.7c0,0.7-0.1,1.4-0.2,2.1
			c-0.1,0.7-0.6,1.6-1.3,2.8c-0.8,1.2-2.2,1.9-4.4,2.1c-1.3,0-2.6-0.3-3.7-0.8c-1.1-0.6-1.8-1.3-2.3-2.1c-0.4-0.8-0.7-1.5-0.8-2.1
			c-0.1-0.6-0.1-1.2-0.1-1.9v-4.7c0-0.7,0-1.1,0-1.4s0.1-0.7,0.3-1.2l5.9-16h4.8l-4.8,12.6c0.5-0.2,1.2-0.3,1.9-0.3h0.4
			C26.5,25.1,27.7,25.8,28.5,27.2L28.5,27.2z M24.4,29.5c-0.4-0.6-1-0.9-1.8-0.9c-0.7,0-1.2,0.2-1.5,0.7c-0.4,0.5-0.5,1.1-0.5,1.9
			v4.7c0,0.6,0.1,1.2,0.4,1.8c0.3,0.5,0.9,0.8,1.7,0.8H23c0.8,0,1.3-0.3,1.5-0.8s0.4-1.1,0.4-1.8v-4.7c0-0.4,0-0.7-0.1-0.9
			C24.7,30,24.6,29.7,24.4,29.5z"/>
	</g>
	<path id="path7044-1" class="st1" d="M47.9,59.9c-0.7,0-1.4,0.6-1.2,1.6l8.7,53.1c0.1,0.7,0.5,1.3,1.2,1.3h10.6l0.8,8.7h-4.5
		l10.7,10.7L85,124.5h-4.5l0.8-8.7h10.6c0.7,0,1.1-0.6,1.2-1.3l8.7-53.1c0.2-0.9-0.5-1.6-1.2-1.6L47.9,59.9L47.9,59.9z M49.5,62.5
		H99l-1.5,8.9c-5.7-0.7-14.3,6.7-24,1.8c-11.9-6-12.1,0.5-22.2-0.1L49.5,62.5z M74.2,81.1c4.7,8.1,8.6,11.2,8.6,16.7
		c0,3.7-2.3,8.4-8.6,8.4s-8.6-4.7-8.6-8.4C65.6,92.3,69.5,89.2,74.2,81.1z"/>
</g>
<g id="en" class="st2">
	<g id="text6065-3-2-9-6-6" class="st3">
		<path id="path2037" class="st1" d="M49.1,22.7c0,0.4,0,0.7-0.1,1c0,0.3-0.2,0.6-0.4,0.9c-0.1,0.2-0.3,0.3-0.4,0.5
			c-0.2,0.1-0.3,0.3-0.6,0.4c-0.2,0.1-0.4,0.2-0.7,0.3c-0.2,0.1-0.5,0.1-0.7,0.1c-0.6,0-1.1-0.1-1.5-0.4c-0.4-0.2-0.8-0.5-1-0.9
			s-0.3-0.7-0.4-1c0-0.3-0.1-0.6-0.1-1v-6.4c0-0.3,0-0.7,0.1-0.9c0.1-0.3,0.2-0.6,0.4-0.9c0.2-0.3,0.5-0.6,1-0.8
			c0.4-0.2,0.8-0.4,1.3-0.4c0.9,0,1.6,0.3,2.1,0.9c0.6,0.6,0.9,1.3,0.9,2.2V17h-1.8v-0.7c0-0.3-0.1-0.6-0.3-0.9
			c-0.2-0.2-0.5-0.4-0.8-0.4s-0.6,0.1-0.8,0.4c-0.2,0.2-0.3,0.5-0.3,0.9v6.9c0,0.2,0.1,0.4,0.3,0.6s0.5,0.4,0.9,0.4s0.7-0.1,0.8-0.3
			c0.1-0.2,0.2-0.4,0.2-0.5s0-0.3,0-0.4v-0.6H49L49.1,22.7z"/>
		<path id="path2039" class="st1" d="M55.8,25.8h-5.3V13.3h1.8V24h3.5V25.8z"/>
		<path id="path2041" class="st1" d="M61.7,24v1.8h-5.4V13.3h5.4V15h-3.6v3.7h3.1v1.7h-3.1V24H61.7z"/>
		<path id="path2043" class="st1" d="M62,25.8l2.8-12.5h1.5l2.8,12.5h-1.9l-0.5-2.7h-2.3l-0.5,2.7H62z M64.7,21.5h1.7l-0.8-4.6
			L64.7,21.5z"/>
		<path id="path2045" class="st1" d="M74.5,25.8l-2.8-7.6v7.6h-1.8V13.3h1.7l2.8,7.6v-7.6h1.8v12.5H74.5z"/>
		<path id="path2047" class="st1" d="M85.2,25.8l-1.5-7.6l-1.4,7.6h-1.7l-1.8-12.5h1.9l0.9,7.6l1.4-7.6h1.3l1.5,7.6l0.9-7.6h1.9
			l-1.8,12.5H85.2z"/>
		<path id="path2049" class="st1" d="M88.2,25.8L91,13.3h1.5l2.8,12.5h-1.9l-0.5-2.7h-2.3l-0.5,2.7H88.2z M90.9,21.5h1.7l-0.8-4.6
			L90.9,21.5z"/>
		<path id="path2051" class="st1" d="M96.7,25.8V15h-2.1v-1.7h6V15h-2.1v10.8H96.7z"/>
		<path id="path2053" class="st1" d="M107,24v1.8h-5.4V13.3h5.4V15h-3.6v3.7h3.1v1.7h-3.1V24H107z"/>
		<path id="path2055" class="st1" d="M107.9,25.8V13.3h3.1c0.8,0,1.5,0.3,2.1,0.9c0.6,0.6,0.9,1.3,0.9,2.1v1.2c0,1.2-0.5,2-1.5,2.7
			l1.9,5.7h-1.9l-1.7-5.4h-1.1v5.4L107.9,25.8z M111.9,18.5c0.1-0.1,0.2-0.3,0.2-0.5s0.1-0.4,0.1-0.6v-1.2c0-0.4-0.1-0.7-0.3-0.9
			c-0.2-0.2-0.5-0.4-0.9-0.4h-1.3v3.9h1.3C111.4,18.9,111.7,18.8,111.9,18.5z"/>
		<path id="path2057" class="st1" d="M42.9,43.1l2.8-12.5h1.5L50,43.1h-1.9l-0.5-2.7h-2.3l-0.5,2.7H42.9z M45.7,38.7h1.7l-0.8-4.6
			L45.7,38.7z"/>
		<path id="path2059" class="st1" d="M55.4,43.1l-2.8-7.6v7.6h-1.8V30.6h1.7l2.8,7.6v-7.6h1.8v12.5H55.4z"/>
		<path id="path2061" class="st1" d="M61,30.6c0.8,0,1.5,0.3,2.1,0.9c0.6,0.6,0.9,1.2,0.9,2.1V40c0,0.9-0.3,1.7-0.8,2.2
			c-0.6,0.6-1.3,0.9-2.2,0.9h-2.8V30.6H61z M62.2,40v-6.5c0-0.3-0.1-0.6-0.4-0.9c-0.2-0.2-0.6-0.4-0.9-0.4H60v9.2h0.9
			C61.8,41.4,62.2,40.9,62.2,40L62.2,40z"/>
		<path id="path2063" class="st1" d="M69.2,40c0,0.1,0,0.2,0,0.3s0,0.2,0,0.2c0,0.1,0.1,0.3,0.3,0.5c0.2,0.2,0.5,0.4,0.9,0.4
			c0.2,0,0.5,0,0.7-0.1s0.4-0.3,0.5-0.4c0.1-0.1,0.1-0.3,0.1-0.4c0-0.1,0-0.2,0-0.3V40v-0.9v-0.2c0-0.3,0-0.5-0.1-0.6
			c-0.1-0.2-0.3-0.3-0.7-0.5c-0.2-0.1-0.7-0.3-1.3-0.5c-0.6-0.2-1.1-0.6-1.5-1.1s-0.6-1.1-0.6-2v-0.6c0-0.9,0.3-1.6,0.9-2.2
			c0.6-0.6,1.3-0.9,2.1-0.9c0.9,0,1.6,0.3,2.2,0.9c0.6,0.6,0.9,1.4,0.9,2.2v0.6h-1.8v-0.6c0-0.1,0-0.2,0-0.2c0-0.1,0-0.1,0-0.2
			c0-0.1,0-0.1-0.1-0.2c0-0.1-0.1-0.2-0.2-0.3c-0.2-0.2-0.5-0.4-0.9-0.4s-0.7,0.1-0.9,0.4c-0.2,0.3-0.3,0.6-0.3,1v0.6v0.2
			c0,0.2,0,0.4,0.1,0.6c0.1,0.1,0.3,0.3,0.6,0.5c0.1,0,0.2,0.1,0.4,0.2c0.2,0.1,0.5,0.2,0.8,0.3c0.6,0.2,1.1,0.6,1.6,1.1
			s0.7,1.2,0.7,2v1c0,0.4,0,0.8-0.1,1.1s-0.3,0.7-0.8,1.3c-0.4,0.5-1.2,0.8-2.2,0.8c-1.1,0-1.9-0.3-2.4-1s-0.7-1.4-0.7-2.2v-0.4h1.8
			V40z"/>
		<path id="path2065" class="st1" d="M73.9,43.1l2.8-12.5h1.5L81,43.1h-1.9l-0.5-2.7h-2.3l-0.5,2.7H73.9z M76.7,38.7h1.7l-0.8-4.6
			L76.7,38.7z"/>
		<path id="path2067" class="st1" d="M86.6,43.1l-2.8-7.6v7.6H82V30.6h1.7l2.8,7.6v-7.6h1.8v12.5H86.6z"/>
		<path id="path2069" class="st1" d="M89.4,43.1V30.6h1.8v12.5H89.4z"/>
		<path id="path2071" class="st1" d="M94.3,43.1V32.2h-2.1v-1.7h6v1.7h-2.1V43L94.3,43.1L94.3,43.1z"/>
		<path id="path2073" class="st1" d="M97.6,43.1l2.8-12.5h1.5l2.8,12.5h-1.9l-0.5-2.7H100l-0.5,2.7H97.6z M100.3,38.7h1.7l-0.8-4.6
			L100.3,38.7z"/>
		<path id="path2075" class="st1" d="M106.3,43.1V32.2h-2.1v-1.7h6v1.7h-2.1V43L106.3,43.1L106.3,43.1z"/>
		<path id="path2077" class="st1" d="M111.2,43.1V30.6h1.8v12.5H111.2z"/>
		<path id="path2079" class="st1" d="M115,31.7c0.3-0.4,0.6-0.7,1.1-0.9c0.4-0.2,0.9-0.4,1.4-0.4s0.9,0.1,1.3,0.3
			c0.4,0.2,0.8,0.4,1,0.8c0.3,0.3,0.5,0.7,0.6,1s0.1,0.7,0.1,1.1V40c0,0.4,0,0.7-0.1,1s-0.2,0.6-0.4,1c-0.2,0.3-0.6,0.6-1,0.9
			c-0.4,0.2-0.9,0.4-1.4,0.4c-0.3,0-0.6,0-0.9-0.1s-0.5-0.2-0.8-0.3s-0.4-0.3-0.6-0.5s-0.3-0.4-0.4-0.5c-0.2-0.4-0.3-0.7-0.3-0.9
			s-0.1-0.5-0.1-0.8v-6.4c0-0.4,0-0.7,0.1-1C114.6,32.3,114.8,32,115,31.7L115,31.7z M118.4,32.7c-0.2-0.3-0.6-0.5-1-0.5
			c-0.2,0-0.4,0.1-0.6,0.2c-0.2,0.1-0.3,0.2-0.4,0.4c-0.1,0.1-0.1,0.3-0.1,0.4c0,0.1,0,0.3,0,0.4V40c0,0.1,0,0.1,0,0.2
			c0,0.1,0,0.1,0,0.2c0,0.1,0.1,0.3,0.3,0.6c0.2,0.3,0.5,0.4,0.9,0.4c0.2,0,0.4,0,0.6-0.1s0.3-0.2,0.4-0.4c0.1-0.1,0.1-0.3,0.2-0.4
			s0-0.3,0-0.5v-6.4c0-0.2,0-0.4,0-0.5C118.6,33,118.5,32.9,118.4,32.7L118.4,32.7z"/>
		<path id="path2081" class="st1" d="M126.5,43.1l-2.8-7.6v7.6H122V30.6h1.7l2.8,7.6v-7.6h1.8v12.5H126.5z"/>
	</g>
</g>
<g id="tw">
	<g class="st4">
		<path class="st1" d="M37.6,18.6l-1,1.2c-0.7-0.8-1.5-1.5-2.4-2.1l1-1.1C36,17.1,36.8,17.8,37.6,18.6z M37.5,21.6
			c-0.4,1.8-1.1,3.5-2,5.3L34.1,26c0.8-1.4,1.5-3.1,2.1-5.2L37.5,21.6z M37.9,14.7l-1.1,1.1c-0.7-0.9-1.6-1.7-2.6-2.4l1.1-1
			C36.3,13.1,37.2,13.9,37.9,14.7z M48.5,21h-1.1v2.6h-3.9v1.5c0,0.4-0.1,0.7-0.2,0.9c-0.2,0.3-0.4,0.4-0.6,0.5
			c-0.3,0.1-0.8,0.1-1.6,0.1c-0.3,0-0.6,0-0.9,0l-0.6-1.4c0.3,0,1.1,0,2.2,0c0.1,0,0.1,0,0.2-0.1S42,25.1,42,25v-1.4h-3.7v-1.3H42
			V21h-4.4v-1.3H42v-1.2h-3.7v-1.3h9.1v2.5h1.1V21z M47.6,13.5c-2.4,0.7-5.4,1-9.2,1l-0.6-1.3c3.8,0.1,6.7-0.2,8.9-0.8L47.6,13.5z
			 M40.7,16.5L39.4,17c-0.4-0.7-0.7-1.3-1-1.7l1.3-0.5C40.1,15.4,40.4,15.9,40.7,16.5z M43.8,16.4l-1.3,0.5c-0.3-0.7-0.6-1.3-1-1.8
			l1.4-0.6C43.3,15.3,43.6,15.9,43.8,16.4z M45.8,19.7v-1.2h-2.4v1.2H45.8z M45.8,22.3V21h-2.4v1.3H45.8z M47.6,14.7
			c-0.5,1-0.9,1.7-1.4,2.2l-1.4-0.5c0.6-0.7,1.1-1.5,1.4-2.2L47.6,14.7z"/>
		<path class="st1" d="M56.5,15.9c-0.4,4.1-2,7.4-5,9.7l-0.9-1.2c1.2-0.8,2.2-1.9,3-3.3c0.8-1.3,1.2-2.6,1.3-3.9H51v-1.4H56.5z
			 M65,24.3l-1,1.2c-2.6-1.7-4.4-3.8-5.4-6.2V25c0,0.5-0.1,0.8-0.3,1.1s-0.4,0.4-0.7,0.5c-0.3,0.1-0.7,0.1-1.3,0.1
			c-0.4,0-0.9,0-1.3,0l-0.4-1.5c0.6,0.1,1.1,0.1,1.5,0.1c0.5,0,0.8,0,0.9-0.1s0.2-0.2,0.2-0.4V12.4h1.5v3.3c0.2,0.7,0.4,1.5,0.8,2.3
			c1.3-0.9,2.6-2.2,3.8-3.8l1.2,0.8c-1.3,1.7-2.8,3.1-4.4,4.2C61.1,21.2,62.7,22.9,65,24.3z"/>
		<path class="st1" d="M81.2,25.5l-0.8,1.2c-1.6-0.7-3-1.5-4.1-2.3c-1.4,0.9-3.1,1.7-5.1,2.4l-0.8-1.3c1.9-0.6,3.4-1.3,4.7-2.1
			C74,22.4,73,20.9,72,19.1c-0.6,3-2,5.5-4.2,7.5l-1-1.1c1.4-1.3,2.4-2.7,3-4.1s1-3.9,1.2-7.3h-3v-1.4h11c-0.4,1.5-0.8,3-1.4,4.4
			h2.6c-0.5,2.8-1.4,5-2.9,6.5C78.5,24.2,79.7,24.9,81.2,25.5z M77.2,14h-4.5c0,1.1-0.1,2-0.3,3h3.8C76.5,16.2,76.8,15.2,77.2,14z
			 M78.6,18.5h-5.2c0.9,1.7,1.9,3.1,3,4.1C77.3,21.6,78.1,20.2,78.6,18.5z"/>
		<path class="st1" d="M87.1,12.8c-1.1,1.9-2.2,3.2-3.2,4l-0.7-1.3c0.9-0.8,1.8-1.8,2.5-3.2L87.1,12.8z M86.8,16.9l-0.7,1.4v8.4
			h-1.4v-6.2c-0.2,0.3-0.5,0.6-0.9,1l-0.7-1.4c0.8-0.8,1.5-2,2.3-3.8L86.8,16.9z M94.1,24.9h-2.4v1.7h-1.4v-1.7h-3.1l0.5-2.2h-0.8
			v-1.2h3.4v-0.9h-2.7v-3.2h5.8v3.2h-1.7v0.9h2.1v1.2h-2.1v1h2.4V24.9z M93.9,16.6h-7v-1.2h1.6l0.3-1h-1.5v-1.2h1.8l0.2-1l1.4,0.1
			l-0.2,0.8h2.6v2.2h0.8V16.6z M90.2,23.8v-1H89l-0.2,1H90.2z M91.9,19.5v-0.9h-3v0.9H91.9z M91.8,15.5v-1h-1.5l-0.3,1H91.8z
			 M97.7,18.4h-0.9v6.9c0,0.9-0.6,1.3-1.7,1.3c-0.2,0-0.3,0-0.5,0l-0.5-1.4c0.1,0,0.4,0,0.9,0c0.2,0,0.3-0.1,0.3-0.3v-6.6H94V17h3.7
			V18.4z M97.4,14.1h-3.3v-1.4h3.3V14.1z"/>
		<path class="st1" d="M113.9,26.3H99.7v-1.4h6.6v-3.6h-5v-1.4h5v-3.1h-3.7c-0.6,1-1.3,1.9-2,2.7l-1.1-1.1c1.5-1.5,2.5-3.4,3-5.6
			L104,13c-0.2,0.7-0.4,1.4-0.7,2.2h3v-2.9h1.5v2.9h5.9v1.4h-5.9v3.1h5.2v1.4h-5.2v3.6h6.1V26.3z"/>
	</g>
</g>
</svg>
