<?xml version="1.0" encoding="utf-8"?>
<!-- Generator: Adobe Illustrator 24.3.0, SVG Export Plug-In . SVG Version: 6.00 Build 0)  -->
<svg version="1.1" id="圖層_1" xmlns="http://www.w3.org/2000/svg" xmlns:xlink="http://www.w3.org/1999/xlink" x="0px" y="0px"
	 viewBox="0 0 148.1 148.3" style="enable-background:new 0 0 148.1 148.3;" xml:space="preserve">
<style type="text/css">
	.st0{fill-rule:evenodd;clip-rule:evenodd;fill:#48773E;}
	.st1{fill:#FFFFFF;}
	.st2{display:none;}
	.st3{display:inline;}
	.st4{enable-background:new    ;}
</style>
<g id="圖層_4">
	<path id="rect8528-63-2-4-3-6-0-4-3-6-3" class="st0" d="M0.9,0h146.4c0.5,0,0.8,0.4,0.8,0.8v146.7c0,0.5-0.4,0.8-0.8,0.8H0.9
		c-0.5,0-0.8-0.4-0.8-0.8V0.8C0.1,0.4,0.5,0,0.9,0L0.9,0z"/>
	<g id="text6075-0-6-9-2-5-9-1">
		<path id="path2489" class="st1" d="M14.6,42.9V17.5l-4.3,3.2v-4.6l4.3-3.1h4.2v29.9H14.6z"/>
		<path id="path2491" class="st1" d="M34.9,36.1v0.5c0,0.2,0,0.4,0,0.7c0,0.2,0,0.6-0.1,1.1c-0.4,1.4-1.2,2.6-2.4,3.5
			c-1.1,0.9-2.5,1.3-4,1.3c-1.2,0-2.3-0.4-3.4-1.1c-1.1-0.7-1.8-1.5-2.1-2.2c-0.2-0.4-0.3-0.7-0.4-1s-0.2-0.6-0.2-0.8
			c-0.1-0.3-0.1-0.6-0.1-0.8c0-0.3,0-0.7,0-1.2v-1.7h4.3v2.5c0.1,0.4,0.2,0.8,0.5,1.3s0.8,0.8,1.6,0.8s1.3-0.3,1.7-0.8
			s0.5-1.2,0.5-2v-4.6c0-0.6-0.1-1-0.4-1.3c-0.2-0.3-0.4-0.5-0.7-0.6c-0.3-0.1-0.6-0.2-0.8-0.2c-0.3,0-0.6,0-0.8,0h-0.8v-3.8h0.8
			c1.8,0,2.7-0.8,2.7-2.5v-3.6c0-0.4,0-0.7-0.1-0.9c0-0.1,0-0.2-0.1-0.4c-0.1-0.2-0.2-0.4-0.4-0.5c-0.1-0.2-0.3-0.3-0.6-0.4
			s-0.5-0.2-0.8-0.2c-0.7,0-1.3,0.2-1.7,0.7c-0.4,0.4-0.5,1-0.5,1.7v2.2h-4.5v-2.2c0-1.9,0.6-3.5,1.8-4.7c1.2-1.3,2.7-1.9,4.6-1.9
			c1,0,2,0.3,3,0.8c1,0.5,1.7,1.2,2.1,1.9c0.5,0.7,0.8,1.4,0.9,2c0.1,0.6,0.2,1.3,0.2,2v3.5c0,1.9-0.8,3.4-2.5,4.4
			c1,0.7,1.6,1.4,2,2.1s0.6,1.5,0.6,2.7L34.9,36.1L34.9,36.1z"/>
	</g>
	<path id="path8205-2" class="st1" d="M76.9,66c-21.6-0.2-43.3,9.6-56,28.2c24.5,36.1,83.2,39.2,108.8,0
		C117.3,75.3,97.2,66.2,76.9,66z M75.6,71.4c1.1,0,2.3,0.1,2.8,0.2c0.4,0.1,1.2,0.3,1.8,0.4c1.2,0.2,3,0.7,3.7,1.1
		c0.3,0.2,0.7,0.3,0.9,0.3s0.5,0.1,0.6,0.3c0.2,0.2,0.5,0.3,0.7,0.3s0.4,0.1,0.4,0.2s0.2,0.3,0.5,0.4s0.6,0.3,0.7,0.4s0.7,0.6,1.3,1
		c1.1,0.8,3.8,3.3,3.8,3.5c0,0.1,0.4,0.7,1,1.4c0.5,0.7,1,1.4,1,1.5s0.1,0.3,0.2,0.5c0.8,0.8,2.3,5,2.3,6.2c0,1.4-1.2,1.8-2.1,0.8
		c-1.3-1.5-2.5,0.1-1.4,1.9c0.2,0.3,0.2,0.5,0,0.7c-0.3,0.4-1.8,1.2-2.3,1.2s-1.4,1.1-1.5,2s0.1,2.2,0.6,2.6
		c0.3,0.2,0.4,1.2,0.2,1.2c-0.2,0-1.3-0.8-2-1.5c-0.6-0.5-0.9-1.1-1.8-3c-0.1-0.3-0.3-0.8-0.4-1.1c-0.2-0.9-1-1.6-1.9-1.6
		c-1.2,0-1.5,0.4-1.6,1.7c0,0.8-0.1,1.4-0.4,1.7c-0.5,0.6-0.5,0.6-1,0.2c-1-0.8-1.3-1-1.6-1c-0.1,0-0.3-0.1-0.5-0.3
		c-0.1-0.2-0.5-0.3-0.8-0.3c-1,0-2.3-0.8-2.8-1.8c-0.2-0.5-0.5-1-0.5-1.1c0-0.2-1.8-1.5-2.1-1.5c-0.1,0-0.6-0.3-1.1-0.7
		c-1.2-0.8-1.6-0.7-1.6,0.1c0,0.5,0.3,0.9,1.6,2.1c1.7,1.7,2.1,2.4,1.5,3c-0.3,0.4-1.5,1-1.9,1c-0.1,0-0.8-0.7-1.7-1.5
		c-1.1-1.1-1.6-1.5-1.9-1.4c-0.3,0-0.5,0.2-0.5,0.6c0,0.3,0,0.7,0.2,0.8c0.1,0.1,0.2,0.4,0.2,0.6c0,0.6,1.7,2.8,2.2,2.8
		c0.1,0,0.4,0.2,0.7,0.4c0.7,0.6,0.5,1.2-0.6,2.3c-0.8,0.8-0.9,0.9-1,2.5c-0.1,0.9-0.2,1.7-0.3,1.8c-0.1,0.1-0.3,0.5-0.3,0.8
		c-0.1,0.3-0.4,0.9-0.7,1.3c-0.3,0.4-0.6,0.9-0.6,1.2c0,0.3-0.1,0.7-0.3,0.9c-0.2,0.2-0.3,0.5-0.3,0.6c0,0.3-0.9,1.3-1.2,1.3
		c-0.1,0-0.2,0.1-0.3,0.2c0,0.1-0.5,0.3-1.1,0.3c-0.9,0.1-1,0-1.3-0.4l0,0c-0.2-0.3-0.3-0.9-0.3-1.8c0-1.1-0.1-1.4-0.5-1.9
		c-0.3-0.3-0.5-0.8-0.6-1s-0.1-0.7-0.2-1c-0.1-0.3-0.3-0.6-0.8-0.8c-0.4-0.2-0.7-0.4-0.7-0.5s-0.4-0.6-0.8-1
		c-0.8-0.8-0.8-0.8-1.7-0.7c-0.5,0.1-1.1,0.3-1.3,0.4c-0.2,0.2-0.6,0.3-1,0.3c-0.6,0-0.7-0.1-1-0.7c-0.2-0.4-0.3-0.9-0.3-1.1
		s-0.1-0.7-0.3-1c-0.4-0.9-0.7-3.2-0.8-5.5c-0.1-1.8-0.1-1.9,0.5-2.8c0.3-0.5,0.6-1,0.6-1.1c0-0.2,1.4-0.7,1.7-0.6
		c0.1,0,0.7,0.1,1.3,0.2s1.4,0.3,1.7,0.5s0.7,0.3,0.9,0.3s0.5,0.1,0.7,0.3c0.2,0.2,0.6,0.3,0.8,0.3s0.5,0.1,0.6,0.2s0.4,0.2,0.8,0.3
		c1.3,0.2,3.1-0.9,3.1-1.9c0-0.8-0.7-1.4-1.6-1.4c-0.4,0-0.8-0.1-1-0.3c-0.1-0.2-0.6-0.3-1-0.3s-0.9-0.2-1.2-0.4
		c-0.6-0.5-2.1-0.6-2.6-0.1c-0.2,0.2-0.6,0.3-0.8,0.3s-0.7,0.1-1,0.3s-1,0.3-1.5,0.4l-1,0.1l0.1-0.6c0.1-0.5,0.2-0.6,1-0.7
		c1.7-0.2,2.7-0.6,2.8-1.2c0.1-0.4,0.3-0.7,1.3-1.5c0.1-0.1,0.7-0.3,1.3-0.5c1-0.3,1.2-0.3,2.4,0c1.6,0.4,2.3,0.3,3.1-0.6
		c0.4-0.3,0.9-0.8,1.2-1.1c0.6-0.5,0.6-0.7,0.2-1c-0.5-0.4-1.7-0.1-2.4,0.6c-0.5,0.6-0.7,0.7-1.5,0.6c-1.1,0-2.6-0.6-2.7-1.1
		c-0.3-0.9,1.3-1.7,3.8-1.8c1.1-0.1,2-0.2,2.2-0.3c0.3-0.2,2.9-0.5,2.9-0.3c0,0.1-0.4,0.4-0.8,0.6c-0.7,0.4-0.8,0.5-0.8,1.1
		c0,0.5,0.1,0.7,0.4,0.8c0.4,0.1,2-0.6,2.8-1.3c0.3-0.3,0.8-0.5,1-0.5s0.5-0.3,0.6-0.7c0.2-0.5,0.1-0.6-0.5-1.2
		c-0.9-0.8-1.4-1.5-1.4-2.2c0-1.2-0.3-1.4-3.3-1.5c-1.4,0-2.5-0.1-2.2-0.1c0.2,0,0.5-0.2,0.7-0.3c0.1-0.2,0.4-0.3,0.6-0.3
		s0.5-0.1,0.7-0.3c0.2-0.2,0.6-0.3,0.8-0.3c0.2,0,0.7-0.1,1-0.3c0.3-0.2,1.1-0.4,1.7-0.5s1.5-0.3,2-0.4
		C73.3,71.5,74.5,71.4,75.6,71.4z M59.7,78c0.7,0,0.6,0.9-0.2,1.5S58,80.2,58,79.7C58,79.1,59.2,78,59.7,78z M57.9,81.8
		c0.1,0,0.2,0,0.3,0c0.4,0.1,0.3,0.2-1,1.5c-1.6,1.5-1.8,1.7-1.8,1.3c0-0.1,0.2-0.7,0.4-1.2C56.3,82.5,57.1,81.8,57.9,81.8z
		 M97.3,91.8c0.1,0,0.2,0.1,0.4,0.3c0.5,0.5,0.5,5.4,0,5.4c-0.2,0-0.4-0.1-0.4-0.3c-0.9-1.4-1.1-3.1-0.6-3.8c0.2-0.2,0.3-0.7,0.3-1
		C97,91.9,97.1,91.7,97.3,91.8z M80.8,96.5c0.2,0,0.3,0,0.3,0.1s-0.1,0.1-0.3,0.2c-0.2,0.1-0.3,0-0.3-0.1
		C80.5,96.6,80.6,96.5,80.8,96.5z M93.3,98.8c0.1,0,0.1,0,0.2,0c0.2,0.1,0.2,0.2,0.2,0.3c-0.1,0.2-0.4,0.2-0.5,0.1
		C93,99,93.2,98.8,93.3,98.8z M72.4,100.3c0.2,0,0.1,0.9-0.2,1.5c-0.2,0.3-0.4,0.8-0.5,1.1c-0.1,0.4-0.2,0.2-0.2-0.6
		c0-0.9,0.1-1.2,0.4-1.5C72.1,100.5,72.4,100.3,72.4,100.3z M95.8,100.3c0.2,0,0.4,0.3,0.6,0.9c0.2,0.7,0.2,0.9,0,1.5
		c-0.6,1.3-1.1,2.3-1.5,2.9c-0.2,0.3-0.5,0.8-0.6,1s-0.3,0.5-0.4,0.5s-0.4,0.5-0.7,0.9s-0.7,0.8-0.7,0.8c-0.1,0-0.2,0.1-0.2,0.3
		s-0.2,0.3-0.3,0.3c-2,0.1-2.4,0.1-2.5-0.3s-0.8-0.5-1.2-0.1c-0.2,0.2-0.5,0.3-0.8,0.3c-0.4,0-0.5-0.1-0.5-0.6
		c0-0.3-0.1-0.7-0.3-0.9c-0.2-0.2-0.3-0.8-0.3-1.5c0-1.2,0.5-2.2,1.4-3c0.5-0.4,3-1.3,3.5-1.3c0.7,0,3.4-1,4.1-1.6
		C95.5,100.4,95.6,100.3,95.8,100.3z M87.8,111.9c0.3,0,0.5,0.1,0.6,0.3c0.1,0.2,0.1,0.3,0.1,0.3s-0.2,0.1-0.5,0.3s-0.6,0.4-0.9,0.5
		s-0.5,0.3-0.5,0.4s-0.3,0.2-0.6,0.3s-0.7,0.3-0.8,0.4c-0.1,0.2-0.4,0.3-0.5,0.3s-0.5,0.1-0.7,0.2c-0.5,0.3-1.8,0.7-3.6,1.1
		c-1.5,0.4-7.1,0.5-7.8,0.3l0,0c-0.2-0.1-0.9-0.2-1.5-0.3c-1.2-0.2-1.4-0.3-1.4-1.1c0-0.6,1.1-1.8,1.6-1.8c0.2,0,0.5-0.1,0.7-0.3
		c0.8-0.6,5.2-0.2,6.9,0.6c0.3,0.2,0.7,0.3,1,0.3c0.2,0,0.6,0.1,0.9,0.3c0.7,0.3,1.8,0.5,2.3,0.4c0.2-0.1,0.7-0.5,1.2-0.9
		C85.3,112.4,86.9,111.8,87.8,111.9z"/>
</g>
<g id="en" class="st2">
	<g id="text6065-3-2-9-6-6-5-5" class="st3">
		<path id="path2462" class="st1" d="M51.9,22.4c0,0.4,0,0.7-0.1,1c0,0.3-0.2,0.6-0.4,0.9c-0.1,0.2-0.3,0.3-0.4,0.5
			c-0.2,0.1-0.3,0.3-0.6,0.4c-0.2,0.1-0.4,0.2-0.7,0.3c-0.2,0.1-0.5,0.1-0.7,0.1c-0.6,0-1.1-0.1-1.5-0.4c-0.4-0.2-0.8-0.5-1-0.9
			s-0.3-0.7-0.4-1c0-0.3-0.1-0.6-0.1-1v-6.4c0-0.3,0-0.7,0.1-0.9c0.1-0.3,0.2-0.6,0.4-0.9c0.2-0.3,0.5-0.6,1-0.8
			c0.4-0.2,0.8-0.4,1.3-0.4c0.9,0,1.6,0.3,2.1,0.9c0.6,0.6,0.9,1.3,0.9,2.2v0.7H50V16c0-0.3-0.1-0.6-0.3-0.9
			c-0.2-0.2-0.5-0.4-0.8-0.4s-0.6,0.1-0.8,0.4c-0.2,0.2-0.3,0.5-0.3,0.9v6.9c0,0.2,0.1,0.4,0.3,0.6s0.5,0.4,0.9,0.4s0.7-0.1,0.8-0.3
			s0.2-0.4,0.2-0.5s0-0.3,0-0.4V22h1.8L51.9,22.4z"/>
		<path id="path2464" class="st1" d="M58.5,25.5h-5.3V13H55v10.7h3.5V25.5z"/>
		<path id="path2466" class="st1" d="M58.9,25.5V13h1.8v12.5H58.9z"/>
		<path id="path2468" class="st1" d="M68.5,25.5v-7.6l-1.8,5.3h-0.9L64,17.9v7.6h-1.8V13H64l2.4,6.7l2.3-6.7h1.6v12.5H68.5z"/>
		<path id="path2470" class="st1" d="M70.6,25.5L73.4,13H75l2.8,12.5h-1.9l-0.5-2.7H73l-0.5,2.7H70.6z M73.4,21.2H75l-0.8-4.6
			L73.4,21.2z"/>
		<path id="path2472" class="st1" d="M79.4,25.5V14.7h-2.1V13h6v1.7h-2.1v10.8H79.4z"/>
		<path id="path2474" class="st1" d="M89.5,23.7v1.8h-5.4V13h5.4v1.6H86v3.7h3.1V20H86v3.7C86,23.7,89.5,23.7,89.5,23.7z"/>
		<path id="path2476" class="st1" d="M45.4,42.8l2.8-12.5h1.5l2.8,12.5h-1.9l-0.5-2.7h-2.3l-0.5,2.7H45.4z M48.1,38.4h1.7L49,33.9
			L48.1,38.4z"/>
		<path id="path2478" class="st1" d="M59.1,39.6c0,0.4,0,0.7-0.1,1c0,0.3-0.2,0.6-0.4,0.9c-0.1,0.2-0.3,0.3-0.4,0.5
			c-0.2,0.1-0.3,0.3-0.6,0.4c-0.2,0.1-0.4,0.2-0.7,0.3c-0.2,0.1-0.5,0.1-0.7,0.1c-0.6,0-1.1-0.1-1.5-0.4c-0.4-0.2-0.8-0.5-1-0.9
			s-0.3-0.7-0.4-1c0-0.3-0.1-0.6-0.1-1v-6.4c0-0.3,0-0.7,0.1-0.9c0.1-0.3,0.2-0.6,0.4-0.9s0.5-0.6,1-0.8c0.4-0.2,0.8-0.4,1.3-0.4
			c0.9,0,1.6,0.3,2.1,0.9c0.6,0.6,0.9,1.3,0.9,2.2v0.7h-1.8v-0.7c0-0.3-0.1-0.6-0.3-0.9c-0.2-0.2-0.5-0.4-0.8-0.4s-0.6,0.1-0.8,0.4
			c-0.2,0.2-0.3,0.5-0.3,0.9v6.9c0,0.2,0.1,0.4,0.3,0.6c0.2,0.2,0.5,0.4,0.9,0.4s0.7-0.1,0.8-0.3s0.2-0.4,0.2-0.5s0-0.3,0-0.4v-0.6
			H59L59.1,39.6z"/>
		<path id="path2480" class="st1" d="M62.1,42.8V31.9H60v-1.7h6v1.7h-2.1v10.8L62.1,42.8L62.1,42.8z"/>
		<path id="path2482" class="st1" d="M66.9,42.8V30.3h1.8v12.5H66.9z"/>
		<path id="path2484" class="st1" d="M70.6,31.5c0.3-0.4,0.6-0.7,1.1-0.9c0.4-0.2,0.9-0.4,1.4-0.4s0.9,0.1,1.3,0.3
			c0.4,0.2,0.8,0.4,1,0.8c0.3,0.3,0.5,0.7,0.6,1s0.1,0.7,0.1,1.1v6.4c0,0.4,0,0.7-0.1,1s-0.2,0.6-0.4,1c-0.2,0.3-0.6,0.6-1,0.9
			c-0.4,0.2-0.9,0.4-1.4,0.4c-0.3,0-0.6,0-0.9-0.1s-0.5-0.2-0.8-0.3c-0.2-0.1-0.4-0.3-0.6-0.5s-0.3-0.4-0.4-0.5
			c-0.2-0.4-0.3-0.7-0.3-0.9s-0.1-0.5-0.1-0.8v-6.4c0-0.4,0-0.7,0.1-1C70.3,32,70.4,31.7,70.6,31.5L70.6,31.5z M74.1,32.4
			c-0.2-0.3-0.6-0.5-1-0.5c-0.2,0-0.4,0.1-0.6,0.2c-0.2,0.1-0.3,0.2-0.4,0.4C72,32.6,72,32.8,72,32.9c0,0.1,0,0.3,0,0.4v6.4
			c0,0.1,0,0.1,0,0.2c0,0.1,0,0.1,0,0.2c0,0.1,0.1,0.3,0.3,0.6c0.2,0.3,0.5,0.4,0.9,0.4c0.2,0,0.4,0,0.6-0.1s0.3-0.2,0.4-0.4
			c0.1-0.1,0.1-0.3,0.2-0.4c0-0.1,0-0.3,0-0.5v-6.4c0-0.2,0-0.4,0-0.5C74.3,32.7,74.2,32.6,74.1,32.4L74.1,32.4z"/>
		<path id="path2486" class="st1" d="M82.2,42.8l-2.8-7.6v7.6h-1.8V30.3h1.7l2.8,7.6v-7.6h1.8v12.5C83.9,42.8,82.2,42.8,82.2,42.8z"
			/>
	</g>
</g>
<g id="tw">
	<g class="st4">
		<path class="st1" d="M55.8,14.6H45.4c-0.8,1.2-1.6,2.2-2.5,2.9l-1-1c1.2-1,2.3-2.4,3.2-4.2l1.4,0.4c-0.1,0.2-0.2,0.4-0.4,0.7h9.8
			V14.6z M46,23.9c-0.8,0.9-1.8,1.8-3.2,2.6l-1-1.1c1.3-0.7,2.3-1.5,3.1-2.3L46,23.9z M52.2,22.6h-4.3v4h-1.4v-4h-4.3v-1.2h4.3v-2.3
			h1.4v2.3h4.3V22.6z M45.8,20.5l-1.2,0.7C44,20.6,43.5,20,43,19.6l1.2-0.7C44.9,19.4,45.4,20,45.8,20.5z M56.4,23.5
			c-0.1,1-0.3,1.8-0.6,2.4s-0.7,0.9-1.2,0.9c-0.3,0-0.7-0.1-0.9-0.4c-0.3-0.3-0.5-1-0.7-2.1s-0.3-2.5-0.3-4.1c0-0.5,0-1.1,0-1.6
			h-9.2v-1.2h10.7c0,0.9,0,1.8,0,2.6c0,1.9,0.1,3.2,0.2,4s0.2,1.1,0.3,1.1c0,0,0.1-0.2,0.2-0.6s0.2-1,0.3-1.7L56.4,23.5z M54.9,16.5
			h-9.6v-1.1h9.6V16.5z M52.3,25.5l-1.1,0.9c-0.9-0.9-1.8-1.7-2.7-2.4l1.1-0.9C50.6,23.8,51.5,24.6,52.3,25.5z M51.5,19.6
			c-0.5,0.6-1,1.1-1.6,1.6l-1.2-0.8c0.7-0.6,1.2-1.1,1.6-1.5L51.5,19.6z"/>
		<path class="st1" d="M62.8,12.6c-0.3,0.9-0.7,1.8-1.1,2.6l-0.6,1.2v10.3h-1.4v-8c-0.2,0.3-0.5,0.6-0.8,1l-0.7-1.5
			c1.2-1.5,2.3-3.5,3.1-6L62.8,12.6z M63.6,24.6h-1.4v-9.8h1.4V24.6z M72.5,22.5h-3.9c-0.7,2-2.1,3.4-4.2,4.3l-0.9-1.1
			c1.9-0.8,3.1-1.8,3.7-3.2h-3v-1.3h3.4c0.1-0.5,0.2-1,0.2-1.7h-1.8c-0.3,0.5-0.6,1-1,1.4l-1.2-0.8c0.7-0.8,1.4-1.8,1.9-3.1l1.3,0.4
			c0,0.2-0.1,0.5-0.3,0.8h5.4v1.3h-2.9c0,0.4-0.1,1-0.2,1.7h3.6V22.5z M72.6,16.7h-8.6v-1.3h5.4c0.1-0.5,0.2-1,0.2-1.4h-5v-1.3h6.6
			c-0.1,1.1-0.2,2-0.3,2.7h1.7V16.7z M72.7,26l-1.1,0.9c-0.8-1-1.9-1.9-3.2-2.8l1-1C70.8,24,71.9,25,72.7,26z"/>
		<path class="st1" d="M79.7,12.9c-1.2,1.6-2.7,2.9-4.4,3.9l-0.7-1.4c1.3-0.7,2.5-1.7,3.7-3.1L79.7,12.9z M80,15.9
			c-0.5,0.9-1,1.7-1.6,2.4v8.3h-1.5v-6.6c-0.6,0.6-1.1,1-1.6,1.4L74.6,20c1.4-0.9,2.7-2.5,4-4.7L80,15.9z M89,18.4h-2.2v6.6
			c0,1.1-0.6,1.6-1.8,1.6c-0.8,0-1.5,0-2.2,0l-0.5-1.5c0.5,0,1.3,0,2.5,0c0.1,0,0.2,0,0.3-0.1s0.1-0.2,0.1-0.3v-6.3h-5.3V17H89V18.4
			z M88.6,14.3h-8.2v-1.4h8.2V14.3z"/>
		<path class="st1" d="M99.1,16.2h-3.2v0.9h2.8v4.8h-2.8v0.9h2.8V24h-2.8v1c1-0.1,2-0.2,2.9-0.4l0.1,1.2c-2.4,0.4-4.9,0.7-7.5,1
			l-0.3-1.2l3.5-0.4V24h-2.9v-1.1h2.9v-0.9h-2.9v-4.8h2.9v-0.9h-3.3V15h3.3V14c-0.7,0.1-1.6,0.2-2.6,0.2l-0.4-1.1
			c2.5-0.1,4.7-0.4,6.7-0.8l0.6,1c-0.8,0.2-1.8,0.4-3,0.5V15h3.2V16.2z M94.6,19v-0.8h-1.5V19H94.6z M94.6,20.8V20h-1.5v0.8H94.6z
			 M97.4,19v-0.9h-1.5V19H97.4z M97.4,20.8V20h-1.5v0.8H97.4z M105.1,15.4c0,2.3-0.1,4.5-0.2,6.6c-0.1,2.1-0.2,3.3-0.3,3.7
			c-0.1,0.3-0.3,0.6-0.6,0.8s-0.7,0.3-1.3,0.3c-0.3,0-0.6,0-0.9,0l-0.4-1.4c0.4,0,0.7,0,1,0c0.5,0,0.8-0.1,0.8-0.2s0.2-1.1,0.3-2.9
			c0.1-1.8,0.1-3.6,0.1-5.4h-1.4c0,4-0.8,7.3-2.2,10l-1.3-0.6c1.5-2.6,2.1-5.7,2-9.3h-1.4v-1.4h1.5c0-1.3,0-2.3,0-3h1.4c0,1,0,2,0,3
			H105.1z"/>
	</g>
</g>
</svg>
