<?xml version="1.0" encoding="utf-8"?>
<!-- Generator: Adobe Illustrator 24.3.0, SVG Export Plug-In . SVG Version: 6.00 Build 0)  -->
<svg version="1.1" id="圖層_1" xmlns="http://www.w3.org/2000/svg" xmlns:xlink="http://www.w3.org/1999/xlink" x="0px" y="0px"
	 viewBox="0 0 148.1 148.3" style="enable-background:new 0 0 148.1 148.3;" xml:space="preserve">
<style type="text/css">
	.st0{fill-rule:evenodd;clip-rule:evenodd;fill:#F99D26;}
	.st1{fill:#FFFFFF;}
	.st2{display:none;}
	.st3{display:inline;}
	.st4{enable-background:new    ;}
</style>
<g id="圖層_4">
	<path id="rect8528-63-2-4-3-6" class="st0" d="M0.9,0h146.4c0.5,0,0.8,0.4,0.8,0.8v146.7c0,0.5-0.4,0.8-0.8,0.8H0.9
		c-0.5,0-0.8-0.4-0.8-0.8V0.8C0,0.4,0.4,0,0.9,0z"/>
	<g id="text6075-0-6-9-2-5-9-0-9-4-2">
		<path id="path2381" class="st1" d="M14.9,42.3V16.8L10.6,20v-4.6l4.3-3.1h4.2v29.9L14.9,42.3z"/>
		<path id="path2383" class="st1" d="M26.2,42.3V16.8L21.9,20v-4.6l4.3-3.1h4.2v29.9L26.2,42.3z"/>
	</g>
	<path id="path7902-0" class="st1" d="M37.6,97.8l10.5,13.8c0.4,0.5,0.3,1.1-0.5,1.1H26.1c-0.8,0-0.9-0.6-0.5-1.1l10.5-13.8
		C36.6,97.1,37.1,97.1,37.6,97.8L37.6,97.8z M103.2,103h21.2c0.5,0,0.9,0.4,0.9,0.9v3.8c0,0.5-0.4,0.9-0.9,0.9h-21.2
		c-0.5,0-0.9-0.4-0.9-0.9v-3.8C102.3,103.4,102.7,103,103.2,103z M103.2,110c-0.5,0-0.9,0.4-0.9,0.9v21.6c0,0.5,0.4,0.9,0.9,0.9
		h21.2c0.5,0,0.9-0.4,0.9-0.9v-21.6c0-0.5-0.4-0.9-0.9-0.9H103.2z M106.3,113.3h5.4c0.5,0,0.9,0.4,0.9,0.9v2.5
		c0,0.5-0.4,0.9-0.9,0.9h-5.4c-0.5,0-0.9-0.4-0.9-0.9v-2.5C105.5,113.7,105.9,113.3,106.3,113.3z M116.3,113.3h5.4
		c0.5,0,0.9,0.4,0.9,0.9v2.5c0,0.5-0.4,0.9-0.9,0.9h-5.4c-0.5,0-0.9-0.4-0.9-0.9v-2.5C115.4,113.7,115.8,113.3,116.3,113.3z
		 M106.3,120.7h5.4c0.5,0,0.9,0.4,0.9,0.9v2.5c0,0.5-0.4,0.9-0.9,0.9h-5.4c-0.5,0-0.9-0.4-0.9-0.9v-2.5
		C105.5,121.1,105.9,120.7,106.3,120.7z M116.3,120.7h5.4c0.5,0,0.9,0.4,0.9,0.9v2.5c0,0.5-0.4,0.9-0.9,0.9h-5.4
		c-0.5,0-0.9-0.4-0.9-0.9v-2.5C115.4,121.1,115.8,120.7,116.3,120.7z M52.3,58.3c-0.5,0-0.9,0.4-0.9,0.9v73.3c0,0.5,0.4,0.9,0.9,0.9
		H73c0.5,0,0.9-0.4,0.9-0.9V59.2c0-0.5-0.4-0.9-0.9-0.9H52.3z M56.3,68.6h3.2c0.5,0,0.9,0.4,0.9,0.9v3.8c0,0.5-0.4,0.9-0.9,0.9h-3.2
		c-0.5,0-0.9-0.4-0.9-0.9v-3.8C55.4,69,55.8,68.6,56.3,68.6z M66,68.6h3.2c0.5,0,0.9,0.4,0.9,0.9v3.8c0,0.5-0.4,0.9-0.9,0.9H66
		c-0.5,0-0.9-0.4-0.9-0.9v-3.8C65.1,69,65.5,68.6,66,68.6z M56.3,81.3h3.2c0.5,0,0.9,0.4,0.9,0.9V86c0,0.5-0.4,0.9-0.9,0.9h-3.2
		c-0.5,0-0.9-0.4-0.9-0.9v-3.8C55.4,81.7,55.8,81.3,56.3,81.3z M66,81.3h3.2c0.5,0,0.9,0.4,0.9,0.9V86c0,0.5-0.4,0.9-0.9,0.9H66
		c-0.5,0-0.9-0.4-0.9-0.9v-3.8C65.1,81.7,65.5,81.3,66,81.3z M56.3,94h3.2c0.5,0,0.9,0.4,0.9,0.9v3.8c0,0.5-0.4,0.9-0.9,0.9h-3.2
		c-0.5,0-0.9-0.4-0.9-0.9v-3.8C55.4,94.4,55.8,94,56.3,94z M66,94h3.2c0.5,0,0.9,0.4,0.9,0.9v3.8c0,0.5-0.4,0.9-0.9,0.9H66
		c-0.5,0-0.9-0.4-0.9-0.9v-3.8C65.1,94.4,65.5,94,66,94z M56.3,106.7h3.2c0.5,0,0.9,0.4,0.9,0.9v3.8c0,0.5-0.4,0.9-0.9,0.9h-3.2
		c-0.5,0-0.9-0.4-0.9-0.9v-3.8C55.4,107.1,55.8,106.7,56.3,106.7z M66,106.7h3.2c0.5,0,0.9,0.4,0.9,0.9v3.8c0,0.5-0.4,0.9-0.9,0.9
		H66c-0.5,0-0.9-0.4-0.9-0.9v-3.8C65.1,107.1,65.5,106.7,66,106.7z M56.3,119.3h3.2c0.5,0,0.9,0.4,0.9,0.9v3.8
		c0,0.5-0.4,0.9-0.9,0.9h-3.2c-0.5,0-0.9-0.4-0.9-0.9v-3.8C55.4,119.7,55.8,119.3,56.3,119.3z M66,119.3h3.2c0.5,0,0.9,0.4,0.9,0.9
		v3.8c0,0.5-0.4,0.9-0.9,0.9H66c-0.5,0-0.9-0.4-0.9-0.9v-3.8C65.1,119.7,65.5,119.3,66,119.3z M77.4,100.4v32.1
		c0,0.5,0.4,0.9,0.9,0.9h20.4c0.5,0,0.9-0.4,0.9-0.9V73.2c0-0.5-0.7-1.2-1.4-0.2l-20,25.3C77.5,99.1,77.4,99.4,77.4,100.4
		L77.4,100.4z M96.6,80.3c0.4,0,0.4,0.9,0.4,1.2V87c0,0.5-0.4,0.9-0.9,0.9h-4.2c-0.5,0-1.4-0.2-0.9-0.9l5.1-6.3
		C96.3,80.4,96.4,80.3,96.6,80.3z M90.7,90.9h5.4c0.5,0,0.9,0.4,0.9,0.9v2.5c0,0.5-0.4,0.9-0.9,0.9h-5.4c-0.5,0-0.9-0.4-0.9-0.9
		v-2.5C89.8,91.3,90.2,90.9,90.7,90.9z M86.6,92.9c0.4-0.1,0.4,0.7,0.4,1.3v7.7c0,0.5-0.4,0.9-0.9,0.9H81c-0.5,0-1.2-0.4-0.9-0.9
		l6-8.6C86.3,93.1,86.5,92.9,86.6,92.9z M90.7,98.3h5.4c0.5,0,0.9,0.4,0.9,0.9v2.5c0,0.5-0.4,0.9-0.9,0.9h-5.4
		c-0.5,0-0.9-0.4-0.9-0.9v-2.5C89.8,98.7,90.2,98.3,90.7,98.3z M81,105.7h5.1c0.5,0,0.9,0.4,0.9,0.9v2.5c0,0.5-0.4,0.9-0.9,0.9H81
		c-0.5,0-0.9-0.4-0.9-0.9v-2.5C80.1,106.1,80.5,105.7,81,105.7z M90.7,105.7h5.4c0.5,0,0.9,0.4,0.9,0.9v2.5c0,0.5-0.4,0.9-0.9,0.9
		h-5.4c-0.5,0-0.9-0.4-0.9-0.9v-2.5C89.8,106.1,90.2,105.7,90.7,105.7z M81,113.3h5.1c0.5,0,0.9,0.4,0.9,0.9v2.5
		c0,0.5-0.4,0.9-0.9,0.9H81c-0.5,0-0.9-0.4-0.9-0.9v-2.5C80.1,113.7,80.5,113.3,81,113.3z M90.7,113.3h5.4c0.5,0,0.9,0.4,0.9,0.9
		v2.5c0,0.5-0.4,0.9-0.9,0.9h-5.4c-0.5,0-0.9-0.4-0.9-0.9v-2.5C89.8,113.7,90.2,113.3,90.7,113.3z M81,120.7h5.1
		c0.5,0,0.9,0.4,0.9,0.9v2.5c0,0.5-0.4,0.9-0.9,0.9H81c-0.5,0-0.9-0.4-0.9-0.9v-2.5C80.1,121.1,80.5,120.7,81,120.7z M90.7,120.7
		h5.4c0.5,0,0.9,0.4,0.9,0.9v2.5c0,0.5-0.4,0.9-0.9,0.9h-5.4c-0.5,0-0.9-0.4-0.9-0.9v-2.5C89.8,121.1,90.2,120.7,90.7,120.7z
		 M25.9,114.7c-0.5,0-0.9,0.4-0.9,0.9v16.9c0,0.5,0.4,0.9,0.9,0.9h7.2v-0.1v-9.8c0-0.8,0.6-1.4,1.4-1.4h4.6c0.8,0,1.4,0.6,1.4,1.4
		v9.8v0.1h6.8c0.5,0,0.9-0.4,0.9-0.9v-16.9c0-0.5-0.4-0.9-0.9-0.9H25.9z"/>
</g>
<g id="en" class="st2">
	<g id="text6065-3-2-9-6-6-5-0-0-8-8" class="st3">
		<path id="path2318" class="st1" d="M42.8,22.1c0,0.1,0,0.2,0,0.3s0,0.2,0,0.2c0,0.1,0.1,0.3,0.3,0.5s0.5,0.4,0.9,0.4
			c0.2,0,0.5,0,0.7-0.1s0.4-0.3,0.5-0.4s0.1-0.3,0.1-0.4s0-0.2,0-0.3v-0.2v-0.9V21c0-0.3,0-0.5-0.1-0.6c-0.1-0.2-0.3-0.3-0.7-0.5
			c-0.2-0.1-0.7-0.3-1.3-0.5s-1.1-0.6-1.5-1.1s-0.6-1.1-0.6-2v-0.6c0-0.9,0.3-1.6,0.9-2.2c0.6-0.6,1.3-0.9,2.1-0.9
			c0.9,0,1.6,0.3,2.2,0.9c0.6,0.6,0.9,1.4,0.9,2.2v0.6h-1.8v-0.6c0-0.1,0-0.2,0-0.2c0-0.1,0-0.1,0-0.2s0-0.1-0.1-0.2
			c0-0.1-0.1-0.2-0.2-0.3c-0.2-0.2-0.5-0.4-0.9-0.4s-0.7,0.1-0.9,0.4c-0.2,0.3-0.3,0.6-0.3,1v0.6v0.2c0,0.2,0,0.4,0.1,0.6
			c0.1,0.1,0.3,0.3,0.6,0.5c0.1,0,0.2,0.1,0.4,0.2s0.5,0.2,0.8,0.3c0.6,0.2,1.1,0.6,1.6,1.1s0.7,1.2,0.7,2v1c0,0.4,0,0.8-0.1,1.1
			c-0.1,0.3-0.3,0.7-0.8,1.3c-0.4,0.5-1.2,0.8-2.2,0.8c-1.1,0-1.9-0.3-2.4-1S41,23.1,41,22.3v-0.4h1.8V22.1z"/>
		<path id="path2320" class="st1" d="M53.8,23.9c-0.3,0.4-0.6,0.8-1.1,1c-0.4,0.3-0.9,0.4-1.4,0.4c-0.3,0-0.5,0-0.8-0.1
			c-0.2-0.1-0.5-0.2-0.7-0.3c-0.2-0.1-0.4-0.3-0.6-0.4c-0.2-0.2-0.3-0.3-0.4-0.5c-0.2-0.3-0.3-0.7-0.4-0.9c0-0.3-0.1-0.5-0.1-0.8
			v-9.6h1.8v9.6c0,0.1,0,0.2,0,0.2c0,0.1,0,0.1,0,0.2s0.1,0.3,0.3,0.5s0.4,0.3,0.8,0.3c0.4,0,0.6-0.1,0.8-0.4s0.3-0.6,0.3-0.9v-9.6
			h1.8v9.6c0,0.3,0,0.6-0.1,0.9C54,23.4,53.9,23.7,53.8,23.9L53.8,23.9z"/>
		<path id="path2322" class="st1" d="M56.8,22.1c0,0.1,0,0.2,0,0.3s0,0.2,0,0.2c0,0.1,0.1,0.3,0.3,0.5s0.5,0.4,0.9,0.4
			c0.2,0,0.5,0,0.7-0.1s0.4-0.3,0.5-0.4s0.1-0.3,0.1-0.4s0-0.2,0-0.3v-0.2v-0.9V21c0-0.3,0-0.5-0.1-0.6c-0.1-0.2-0.3-0.3-0.7-0.5
			c-0.2-0.1-0.7-0.3-1.3-0.5s-1.1-0.6-1.5-1.1s-0.6-1.1-0.6-2v-0.6c0-0.9,0.3-1.6,0.9-2.2c0.6-0.6,1.3-0.9,2.1-0.9
			c0.9,0,1.6,0.3,2.2,0.9c0.6,0.6,0.9,1.4,0.9,2.2v0.6h-1.8v-0.6c0-0.1,0-0.2,0-0.2c0-0.1,0-0.1,0-0.2s0-0.1-0.1-0.2
			c0-0.1-0.1-0.2-0.2-0.3c-0.2-0.2-0.5-0.4-0.9-0.4s-0.7,0.1-0.9,0.4c-0.2,0.3-0.3,0.6-0.3,1v0.6v0.2c0,0.2,0,0.4,0.1,0.6
			c0.1,0.1,0.3,0.3,0.6,0.5c0.1,0,0.2,0.1,0.4,0.2s0.5,0.2,0.8,0.3c0.6,0.2,1.1,0.6,1.6,1.1s0.7,1.2,0.7,2v1c0,0.4,0,0.8-0.1,1.1
			c-0.1,0.3-0.3,0.7-0.8,1.3c-0.4,0.5-1.2,0.8-2.2,0.8c-1.1,0-1.9-0.3-2.4-1S55,23.1,55,22.3v-0.4h1.8V22.1z"/>
		<path id="path2324" class="st1" d="M63.6,25.2V14.4h-2.1v-1.7h6v1.7h-2.1v10.8H63.6z"/>
		<path id="path2326" class="st1" d="M66.6,25.2l2.8-12.5h1.5l2.8,12.5h-1.9l-0.5-2.7H69l-0.5,2.7H66.6z M69.3,20.9H71l-0.8-4.6
			L69.3,20.9z"/>
		<path id="path2328" class="st1" d="M74.6,25.2V12.7h1.8v12.5H74.6z"/>
		<path id="path2330" class="st1" d="M82.3,25.2l-2.8-7.6v7.6h-1.8V12.7h1.7l2.8,7.6v-7.6H84v12.5C84,25.2,82.3,25.2,82.3,25.2z"/>
		<path id="path2332" class="st1" d="M84.3,25.2l2.8-12.5h1.5l2.8,12.5h-1.9L89,22.5h-2.3l-0.5,2.7H84.3z M87,20.9h1.7l-0.8-4.6
			L87,20.9z"/>
		<path id="path2334" class="st1" d="M95.1,12.7c0.4,0,0.7,0.1,1.1,0.2c0.4,0.2,0.8,0.5,1.1,0.8c0.4,0.4,0.6,1,0.6,1.9v1
			c0,1-0.4,1.6-1.1,2c0.8,0.4,1.1,1.1,1.1,2.1v1.5c0,0.9-0.3,1.6-0.9,2.2s-1.3,0.9-2.2,0.9H92V12.7H95.1z M96.1,16.4v-0.8
			c0-0.4-0.1-0.7-0.3-0.9c-0.2-0.2-0.5-0.4-0.9-0.4h-1v3.5H95c0.4,0,0.7-0.1,0.9-0.4C96,17.2,96.1,16.9,96.1,16.4L96.1,16.4z
			 M96.1,22.2v-1.5c0-0.4-0.1-0.7-0.3-0.9c-0.2-0.2-0.5-0.4-0.9-0.4h-1v4h1c0.4,0,0.7-0.1,0.9-0.4C96,22.9,96.1,22.6,96.1,22.2z"/>
		<path id="path2336" class="st1" d="M104.2,25.2h-5.3V12.7h1.8v10.7h3.5V25.2z"/>
		<path id="path2338" class="st1" d="M110,23.4v1.8h-5.4V12.7h5.4v1.6h-3.6V18h3.1v1.7h-3.1v3.7L110,23.4z"/>
		<path id="path2340" class="st1" d="M118.1,22.1c0,0.4,0,0.7-0.1,1c0,0.3-0.2,0.6-0.4,0.9c-0.1,0.2-0.3,0.3-0.4,0.5
			c-0.2,0.1-0.3,0.3-0.6,0.4c-0.2,0.1-0.4,0.2-0.7,0.3c-0.2,0.1-0.5,0.1-0.7,0.1c-0.6,0-1.1-0.1-1.5-0.4c-0.4-0.2-0.8-0.5-1-0.9
			s-0.3-0.7-0.4-1c0-0.3-0.1-0.6-0.1-1v-6.4c0-0.3,0-0.7,0.1-0.9c0.1-0.3,0.2-0.6,0.4-0.9c0.2-0.3,0.5-0.6,1-0.8
			c0.4-0.2,0.8-0.4,1.3-0.4c0.9,0,1.6,0.3,2.1,0.9c0.6,0.6,0.9,1.3,0.9,2.2v0.7h-1.8v-0.7c0-0.3-0.1-0.6-0.3-0.9
			c-0.2-0.2-0.5-0.4-0.8-0.4s-0.6,0.1-0.8,0.4c-0.2,0.2-0.3,0.5-0.3,0.9v6.9c0,0.2,0.1,0.4,0.3,0.6c0.2,0.2,0.5,0.4,0.9,0.4
			s0.7-0.1,0.8-0.3s0.2-0.4,0.2-0.5s0-0.3,0-0.4v-0.6h1.8L118.1,22.1z"/>
		<path id="path2342" class="st1" d="M119.2,25.2V12.7h1.8v12.5H119.2z"/>
		<path id="path2344" class="st1" d="M123.9,25.2V14.4h-2.1v-1.7h6v1.7h-2.1v10.8H123.9z"/>
		<path id="path2346" class="st1" d="M128.5,25.2V12.7h1.8v12.5H128.5z"/>
		<path id="path2348" class="st1" d="M136.6,23.4v1.8h-5.4V12.7h5.4v1.6H133V18h3.1v1.7H133v3.7L136.6,23.4z"/>
		<path id="path2350" class="st1" d="M139,22.1c0,0.1,0,0.2,0,0.3s0,0.2,0,0.2c0,0.1,0.1,0.3,0.3,0.5s0.5,0.4,0.9,0.4
			c0.2,0,0.5,0,0.7-0.1s0.4-0.3,0.5-0.4s0.1-0.3,0.1-0.4s0-0.2,0-0.3v-0.2v-0.9V21c0-0.3,0-0.5-0.1-0.6c-0.1-0.2-0.3-0.3-0.7-0.5
			c-0.2-0.1-0.7-0.3-1.3-0.5s-1.1-0.6-1.5-1.1s-0.6-1.1-0.6-2v-0.6c0-0.9,0.3-1.6,0.9-2.2c0.6-0.6,1.3-0.9,2.1-0.9
			c0.9,0,1.6,0.3,2.2,0.9c0.6,0.6,0.9,1.4,0.9,2.2v0.6h-1.8v-0.6c0-0.1,0-0.2,0-0.2c0-0.1,0-0.1,0-0.2s0-0.1-0.1-0.2
			c0-0.1-0.1-0.2-0.2-0.3c-0.2-0.2-0.5-0.4-0.9-0.4s-0.7,0.1-0.9,0.4c-0.2,0.3-0.3,0.6-0.3,1v0.6v0.2c0,0.2,0,0.4,0.1,0.6
			c0.1,0.1,0.3,0.3,0.6,0.5c0.1,0,0.2,0.1,0.4,0.2s0.5,0.2,0.8,0.3c0.6,0.2,1.1,0.6,1.6,1.1s0.7,1.2,0.7,2v1c0,0.4,0,0.8-0.1,1.1
			c-0.1,0.3-0.3,0.7-0.8,1.3c-0.4,0.5-1.2,0.8-2.2,0.8c-1.1,0-1.9-0.3-2.4-1s-0.7-1.4-0.7-2.2v-0.4h1.8V22.1z"/>
		<path id="path2352" class="st1" d="M41,42.5L43.8,30h1.5l2.8,12.5h-1.9l-0.5-2.7h-2.3l-0.5,2.7H41z M43.7,38.1h1.7l-0.8-4.6
			L43.7,38.1z"/>
		<path id="path2354" class="st1" d="M53.4,42.5l-2.8-7.6v7.6h-1.8V30h1.7l2.8,7.6V30h1.8v12.5H53.4z"/>
		<path id="path2356" class="st1" d="M59,30c0.8,0,1.5,0.3,2.1,0.9S62,32.1,62,33v6.5c0,0.9-0.3,1.7-0.8,2.2s-1.3,0.9-2.2,0.9h-2.8
			V30H59z M60.2,39.4v-6.5c0-0.3-0.1-0.6-0.4-0.9c-0.2-0.2-0.6-0.4-0.9-0.4H58v9.2h0.9C59.7,40.8,60.2,40.3,60.2,39.4L60.2,39.4z"/>
		<path id="path2358" class="st1" d="M70.8,39.3c0,0.4,0,0.7-0.1,1c0,0.3-0.2,0.6-0.4,0.9c-0.1,0.2-0.3,0.3-0.4,0.5
			c-0.2,0.1-0.3,0.3-0.6,0.4c-0.2,0.1-0.4,0.2-0.7,0.3c-0.2,0.1-0.5,0.1-0.7,0.1c-0.6,0-1.1-0.1-1.5-0.4c-0.4-0.2-0.8-0.5-1-0.9
			s-0.3-0.7-0.4-1c0-0.3-0.1-0.6-0.1-1v-6.4c0-0.3,0-0.7,0.1-0.9c0.1-0.3,0.2-0.6,0.4-0.9s0.5-0.6,1-0.8c0.4-0.2,0.8-0.4,1.3-0.4
			c0.9,0,1.6,0.3,2.1,0.9c0.6,0.6,0.9,1.3,0.9,2.2v0.7h-1.8v-0.7c0-0.3-0.1-0.6-0.3-0.9c-0.2-0.2-0.5-0.4-0.8-0.4S67.2,31.7,67,32
			c-0.2,0.2-0.3,0.5-0.3,0.9v6.9c0,0.2,0.1,0.4,0.3,0.6c0.2,0.2,0.5,0.4,0.9,0.4s0.7-0.1,0.8-0.3c0.1-0.2,0.2-0.4,0.2-0.5
			s0-0.3,0-0.4V39h1.8L70.8,39.3z"/>
		<path id="path2360" class="st1" d="M72.5,31.2c0.3-0.4,0.6-0.7,1.1-0.9c0.4-0.2,0.9-0.4,1.4-0.4s0.9,0.1,1.3,0.3
			c0.4,0.2,0.8,0.4,1,0.8c0.3,0.3,0.5,0.7,0.6,1s0.1,0.6,0.1,1v6.4c0,0.4,0,0.7-0.1,1s-0.2,0.6-0.4,1c-0.2,0.3-0.6,0.6-1,0.9
			c-0.4,0.2-0.9,0.4-1.4,0.4c-0.3,0-0.6,0-0.9-0.1s-0.5-0.2-0.8-0.3c-0.2-0.1-0.4-0.3-0.6-0.5s-0.3-0.4-0.4-0.5
			c-0.2-0.4-0.3-0.7-0.3-0.9S72,39.9,72,39.6V33c0-0.4,0-0.7,0.1-1C72.2,31.7,72.3,31.4,72.5,31.2L72.5,31.2z M76,32.1
			c-0.2-0.3-0.6-0.5-1-0.5c-0.2,0-0.4,0.1-0.6,0.2S74.1,32,74,32.2c-0.1,0.1-0.1,0.3-0.1,0.4c0,0.1,0,0.3,0,0.4v6.4
			c0,0.1,0,0.1,0,0.2c0,0.1,0,0.1,0,0.2c0,0.1,0.1,0.3,0.3,0.6c0.2,0.3,0.5,0.4,0.9,0.4c0.2,0,0.4,0,0.6-0.1s0.3-0.2,0.4-0.4
			c0.1-0.1,0.1-0.3,0.2-0.4s0-0.3,0-0.5V33c0-0.2,0-0.4,0-0.5C76.2,32.4,76.1,32.3,76,32.1L76,32.1z"/>
		<path id="path2362" class="st1" d="M85,42.5v-7.6l-1.8,5.3h-0.9l-1.8-5.3v7.6h-1.8V30h1.7l2.4,6.7l2.3-6.7h1.6v12.5H85z"/>
		<path id="path2364" class="st1" d="M93.7,42.5v-7.6l-1.8,5.3H91l-1.8-5.3v7.6h-1.8V30h1.7l2.4,6.7l2.3-6.7h1.6v12.5H93.7z"/>
		<path id="path2366" class="st1" d="M102.2,41.2c-0.3,0.4-0.6,0.8-1.1,1c-0.4,0.3-0.9,0.4-1.4,0.4c-0.3,0-0.5,0-0.8-0.1
			c-0.2-0.1-0.5-0.2-0.7-0.3s-0.4-0.3-0.6-0.4c-0.2-0.2-0.3-0.3-0.4-0.5c-0.2-0.3-0.3-0.7-0.4-0.9c0-0.3-0.1-0.5-0.1-0.8V30h1.8v9.6
			c0,0.1,0,0.2,0,0.2c0,0.1,0,0.1,0,0.2c0,0.1,0.1,0.3,0.3,0.5c0.2,0.2,0.4,0.3,0.8,0.3s0.6-0.1,0.8-0.4c0.2-0.3,0.3-0.6,0.3-0.9V30
			h1.8v9.6c0,0.3,0,0.6-0.1,0.9C102.5,40.7,102.4,40.9,102.2,41.2L102.2,41.2z"/>
		<path id="path2368" class="st1" d="M108.3,42.5l-2.8-7.6v7.6h-1.8V30h1.7l2.8,7.6V30h1.8v12.5H108.3z"/>
		<path id="path2370" class="st1" d="M110.9,42.5V30h1.8v12.5H110.9z"/>
		<path id="path2372" class="st1" d="M116,42.5V31.6h-2.1V30h6v1.7h-2.1v10.8H116z"/>
		<path id="path2374" class="st1" d="M120.3,42.5V30h1.8v12.5H120.3z"/>
		<path id="path2376" class="st1" d="M128.5,40.7v1.8h-5.4V30h5.4v1.6h-3.6v3.7h3.1V37h-3.1v3.7H128.5z"/>
		<path id="path2378" class="st1" d="M130.6,39.4c0,0.1,0,0.2,0,0.3s0,0.2,0,0.2c0,0.1,0.1,0.3,0.3,0.5s0.5,0.4,0.9,0.4
			c0.2,0,0.5,0,0.7-0.1s0.4-0.3,0.5-0.4c0.1-0.1,0.1-0.3,0.1-0.4c0-0.1,0-0.2,0-0.3v-0.2v-0.9v-0.2c0-0.3,0-0.5-0.1-0.6
			c-0.1-0.2-0.3-0.3-0.7-0.5c-0.2-0.1-0.7-0.3-1.3-0.5s-1.1-0.6-1.5-1.1s-0.6-1.1-0.6-2V33c0-0.9,0.3-1.6,0.9-2.2
			c0.6-0.6,1.3-0.9,2.1-0.9c0.9,0,1.6,0.3,2.2,0.9c0.6,0.6,0.9,1.4,0.9,2.2v0.6h-1.8V33c0-0.1,0-0.2,0-0.2c0-0.1,0-0.1,0-0.2
			c0-0.1,0-0.1-0.1-0.2c0-0.1-0.1-0.2-0.2-0.3c-0.2-0.2-0.5-0.4-0.9-0.4s-0.7,0.1-0.9,0.4s-0.3,0.6-0.3,1v0.6v0.2
			c0,0.2,0,0.4,0.1,0.6c0.1,0.1,0.3,0.3,0.6,0.5c0.1,0,0.2,0.1,0.4,0.2c0.2,0.1,0.5,0.2,0.8,0.3c0.6,0.2,1.1,0.6,1.6,1.1
			s0.7,1.2,0.7,2v1c0,0.4,0,0.8-0.1,1.1s-0.3,0.7-0.8,1.3c-0.4,0.5-1.2,0.8-2.2,0.8c-1.1,0-1.9-0.3-2.4-1s-0.7-1.4-0.7-2.2v-0.4h1.8
			V39.4z"/>
	</g>
</g>
<g id="tw">
	<g class="st4">
		<path class="st1" d="M47.8,19.7c0,0.3-0.2,0.8-0.6,1.6c-0.4,0.8-1,1.5-1.7,2.2c-0.7,0.7-1.6,1.3-2.6,1.9l-1.1-1.2
			c2.3-1.2,3.8-2.7,4.5-4.4h-3.8v-1.4h5.3V19.7z M56.4,24.2l-1,1.2c-2.3-1.5-4-3.5-5.2-5.8v5.1c0,0.8-0.2,1.3-0.5,1.6
			c-0.4,0.2-1.1,0.4-2.1,0.4c-0.4,0-0.8,0-1.4,0l-0.5-1.6c0.7,0,1.2,0,1.7,0c0.7,0,1.1,0,1.2-0.1c0.1,0,0.2-0.1,0.2-0.3v-8h-4.3
			v-1.4h5.8v1.1c0.2,0.9,0.6,1.7,1.1,2.6c1.6-1.2,2.8-2.3,3.7-3.5l1.1,1c-1,1.2-2.4,2.4-4.1,3.6C53.3,21.8,54.7,23.1,56.4,24.2z
			 M52.5,14l-0.7,1.3c-1.6-0.7-3.5-1.3-5.8-1.8l0.8-1.3C48.8,12.7,50.7,13.3,52.5,14z"/>
		<path class="st1" d="M60.2,22.8c-0.1,1.3-0.4,2.5-0.8,3.8L58.1,26c0.4-1,0.7-2.2,0.8-3.6L60.2,22.8z M63.7,21.7l-1.2,0.4
			c0-0.3-0.1-0.6-0.2-0.7c-1.6,0.4-2.9,0.7-3.7,0.8L58.2,21c0.8-0.6,1.7-1.8,2.6-3.3l-2,0.3l-0.3-1.3c0.8-0.6,1.5-2,2.3-4.4l1.3,0.6
			c-0.6,1.5-1.3,2.7-2,3.6c0.2,0,0.5-0.1,0.8-0.1c0.3-0.1,0.6-0.1,0.6-0.1c0.3-0.5,0.6-1.2,0.9-1.9l1.3,0.5
			c-1.1,2.5-2.3,4.4-3.4,5.7c0.4-0.1,1-0.2,1.7-0.4c-0.1-0.3-0.2-0.5-0.3-0.9l1.2-0.4C63.2,19.8,63.5,20.7,63.7,21.7z M61.9,25.9
			l-1.2,0.1c0-0.9-0.1-1.9-0.3-3.2l1.1-0.2C61.9,24,62,25.1,61.9,25.9z M63.6,24.8L62.6,25c-0.1-0.7-0.2-1.4-0.5-2.3l1.1-0.3
			C63.4,23.3,63.6,24.1,63.6,24.8z M71.8,24.8h-5l0.5,0.7c-0.9,0.4-2.1,0.8-3.7,1.3l-0.8-1.1c1-0.2,2-0.5,2.8-0.9h-1.6v-5.2h7.6
			V24.8z M72.6,14.1h-3.8v0.6h3.4v1H64v-1h3.4v-0.6h-3.9V13h3.9v-0.6h1.4V13h3.8V14.1z M72.3,19h-8.7v-2.8h8.7V19z M66.1,18.1v-0.9
			H65v0.9H66.1z M70.4,21.1v-0.6h-4.9v0.6H70.4z M70.4,22.6v-0.6h-4.9v0.6H70.4z M70.4,23.9v-0.6h-4.9v0.6H70.4z M68.6,18.1v-0.9
			h-1.2v0.9H68.6z M72.7,25.7l-0.6,1.1c-1.2-0.4-2.4-0.6-3.3-0.7l0.7-1.1C70.8,25.2,71.9,25.5,72.7,25.7z M71.1,18.1v-0.9h-1.2v0.9
			H71.1z"/>
		<path class="st1" d="M78.9,17.8h-1.2v4c0.2-0.1,0.5-0.3,0.9-0.5l0.2,1.5c-1.1,0.8-2.3,1.5-3.7,2.2l-0.6-1.4
			c0.5-0.2,1.1-0.5,1.7-0.9v-4.9h-1.4v-1.4h1.4v-4h1.4v4h1.2V17.8z M89.2,23.5c-0.1,0.6-0.2,1.2-0.5,1.9c-0.3,0.7-0.5,1.1-0.7,1.2
			c-0.2,0.1-0.4,0.2-0.6,0.2c-0.3,0-0.7-0.1-1-0.4c-0.3-0.3-0.7-0.9-1.1-1.9c-0.5,0.6-1.4,1.4-2.5,2.4l-0.9-1c1.2-1.1,2.2-2.1,2.9-3
			c-0.4-1.9-0.6-4.2-0.6-7h-3.5v2h2.8c0,0.9,0,1.9-0.1,3.3c0,1.3-0.1,2.1-0.2,2.3S83.1,23.8,83,24s-0.3,0.3-0.6,0.4
			c-0.2,0.1-0.7,0.1-1.4,0.1L80.7,23c0.3,0,0.6,0,0.8,0c0.1,0,0.2,0,0.3-0.1c0.1-0.1,0.1-0.5,0.2-1.3s0.1-1.6,0.1-2.5h-1.5v1.3
			c0,1.1-0.2,2.3-0.5,3.5c-0.3,1.2-0.8,2.2-1.4,2.9L77.7,26c1.1-1.6,1.7-3.4,1.7-5.6v-6h4.8v-2h1.4v2h2.1c-0.5-0.4-1-0.7-1.6-1
			l0.9-1c0.7,0.3,1.2,0.7,1.7,1.1l-0.8,1H89v1.3h-3.4c0,1.4,0.1,3.1,0.3,5.1c0.5-0.9,0.9-2.2,1.4-4l1.3,0.5
			c-0.7,2.4-1.4,4.2-2.3,5.6c0.2,0.7,0.4,1.2,0.6,1.6c0.2,0.4,0.4,0.6,0.4,0.6c0.2,0,0.4-0.8,0.7-2.3L89.2,23.5z"/>
		<path class="st1" d="M95.7,19.1c-0.3,3.3-1.5,5.8-3.8,7.6l-1-0.9c1.6-1.2,2.5-2.5,2.9-4c-0.8,0.1-1.6,0.3-2.5,0.4l-0.3-1.2
			c0.8-0.9,1.4-1.9,2-2.9c-0.4,0.1-0.9,0.2-1.5,0.2L91.2,17c0.9-1.4,1.6-3,2.1-4.8l1.3,0.3c-0.6,1.7-1.2,3.1-1.8,4.2
			c0.3,0,0.7-0.1,1-0.2c0.2-0.4,0.4-0.9,0.7-1.6l1.2,0.5c-0.9,2-1.9,3.7-3,5.2c0.2,0,0.7-0.1,1.5-0.3l0.2-1.5L95.7,19.1z
			 M100.8,25.5L99.7,26c-0.1-0.5-0.3-0.9-0.4-1.2c-1.3,0.7-2.4,1.2-3.1,1.5l-0.5-1.2c0.2-0.1,0.3-0.3,0.3-0.5V13.9h1.6
			c-0.1-0.4-0.3-0.8-0.5-1.4l1.3-0.3c0.2,0.5,0.4,1.1,0.6,1.7h1.4v6.7h-3v3.8c0.3-0.1,0.8-0.4,1.6-0.8c-0.2-0.5-0.4-0.9-0.6-1.2
			l1.1-0.5C100,23.1,100.5,24.3,100.8,25.5z M99,16.6v-1.3h-1.8v1.3H99z M99,19.3v-1.4h-1.8v1.4H99z M104.1,18.4
			c0.8,1.4,1.3,2.8,1.3,4c0,1-0.2,1.6-0.6,1.9c-0.4,0.3-1,0.4-1.6,0.4l-0.4-1.4c0.2,0,0.4,0,0.6,0c0.4,0,0.6-0.1,0.7-0.2
			s0.1-0.4,0.1-0.7c0-1.2-0.5-2.5-1.4-3.9c0.6-1.7,1-3.2,1.2-4.5h-1.5v12.6h-1.3v-14h4V14C104.9,15.4,104.6,16.9,104.1,18.4z"/>
	</g>
</g>
</svg>
