<?xml version="1.0" encoding="utf-8"?>
<!-- Generator: Adobe Illustrator 24.3.0, SVG Export Plug-In . SVG Version: 6.00 Build 0)  -->
<svg version="1.1" id="圖層_1" xmlns="http://www.w3.org/2000/svg" xmlns:xlink="http://www.w3.org/1999/xlink" x="0px" y="0px"
	 viewBox="0 0 148.1 148.3" style="enable-background:new 0 0 148.1 148.3;" xml:space="preserve">
<style type="text/css">
	.st0{fill-rule:evenodd;clip-rule:evenodd;fill:#CF8D2A;}
	.st1{fill:#FFFFFF;}
	.st2{fill-rule:evenodd;clip-rule:evenodd;fill:#FFFFFF;}
	.st3{display:none;}
	.st4{display:inline;}
	.st5{enable-background:new    ;}
</style>
<path id="rect8528-63-2-4-3" class="st0" d="M0.9,0h146.4c0.5,0,0.8,0.4,0.8,0.8v146.7c0,0.5-0.4,0.8-0.8,0.8H0.9
	c-0.5,0-0.8-0.4-0.8-0.8V0.8C0,0.4,0.4,0,0.9,0z"/>
<g id="text6075-0-6-9-2-5-9-0-9-4-2-8">
	<path id="path2457" class="st1" d="M15.3,42.3V16.8L11.1,20v-4.6l4.3-3.1h4.2v29.9L15.3,42.3z"/>
	<path id="path2459" class="st1" d="M35.9,42.3H23.2v-3.9l8-15.5c0.4-0.7,0.5-1.4,0.5-2.2v-2.2c0-0.6-0.2-1.1-0.6-1.5
		s-0.9-0.7-1.5-0.7c-0.5,0-1,0.2-1.5,0.6c-0.4,0.4-0.6,0.9-0.6,1.4v2.6h-4.3v-2.1c0-1.2,0.4-2.6,1.3-4.2s2.7-2.5,5.4-2.5
		c1.7,0,3.1,0.6,4.3,1.9s1.8,2.8,1.8,4.5v2.7c0,1.2-0.3,2.4-1,3.7L28.2,38h7.7V42.3z"/>
</g>
<path class="st2" d="M112.4,77.4c-4.5-3.9-10.1-5.5-15.2-5.5c-10.7,0-17.7,7.7-21.1,11.7c0,0,2.6,5.4,4.1,6.2c0,0,6.8-11.1,17-11.1
	c3.6,0,7.6,1.2,10.5,3.8c2.9,2.6,5.2,6.8,5.2,13.7c0,4.2-1.4,8.2-3.7,11.1c-2.3,2.9-5.6,4.7-10,4.7c-4.8,0-8.6-1.4-12.3-4.3
	c-3.7-2.9-7.1-7.5-10.5-13.9c-1.7-3.3-4.5-8.6-8.8-13.2C63.3,76,57.1,72,49.2,72c-5.3,0-10.9,1.7-15.1,5.6c-4.2,3.9-6.9,10.2-7,18.3
	c-0.1,13.6,10.3,22.8,22.1,22.8c6.8,0,11.8-3.4,13.6-4.8l2.7,2.5c0.5,0.4,1.2,0.2,1.3-0.4l2.8-13.6c0.2-0.8-0.4-1.3-1-1.1l-13.2,4.4
	c-0.6,0.2-0.7,0.9-0.3,1.4l2.4,2.2c-1.6,1-4.6,2.5-8.3,2.5c-8.5,0-15.3-5.6-15.2-15.9c0-6.7,2-10.7,4.8-13.3
	c2.8-2.6,6.5-3.8,10.4-3.8c5.7,0,9.9,2.7,13.4,6.5c3.5,3.8,6,8.4,7.7,11.7c3.6,6.9,7.5,12.3,12.3,16.1c4.8,3.8,10.4,5.8,16.6,5.8
	c6.4,0,11.8-2.9,15.4-7.2c3.6-4.3,5.3-9.8,5.3-15.5C119.9,87.7,116.9,81.3,112.4,77.4z"/>
<g id="en" class="st3">
	<g id="text6065-3-2-9-6-6-5-0-0-8-8-8" class="st4">
		<path id="path2386" class="st1" d="M47.7,25.2V12.7h3.1c0.8,0,1.5,0.3,2.1,0.9c0.6,0.6,0.9,1.3,0.9,2.1v1.2c0,1.2-0.5,2-1.5,2.7
			l1.9,5.7h-1.9l-1.7-5.4h-1.1v5.4L47.7,25.2L47.7,25.2z M51.7,17.9c0.1-0.1,0.2-0.3,0.2-0.5S52,17,52,16.8v-1.2
			c0-0.4-0.1-0.7-0.3-0.9s-0.5-0.4-0.9-0.4h-1.3v3.9h1.3C51.1,18.3,51.4,18.2,51.7,17.9L51.7,17.9z"/>
		<path id="path2388" class="st1" d="M60,23.4v1.8h-5.4V12.7H60v1.6h-3.6V18h3.1v1.7h-3.1v3.7L60,23.4z"/>
		<path id="path2390" class="st1" d="M62.1,22.1c0,0.1,0,0.2,0,0.3s0,0.2,0,0.2c0,0.1,0.1,0.3,0.3,0.5s0.5,0.4,0.9,0.4
			c0.2,0,0.5,0,0.7-0.1c0.2-0.1,0.4-0.3,0.5-0.4s0.1-0.3,0.1-0.4s0-0.2,0-0.3v-0.2v-0.9V21c0-0.3,0-0.5-0.1-0.6
			c-0.1-0.2-0.3-0.3-0.7-0.5c-0.2-0.1-0.7-0.3-1.3-0.5s-1.1-0.6-1.5-1.1s-0.6-1.1-0.6-2v-0.6c0-0.9,0.3-1.6,0.9-2.2
			c0.6-0.6,1.3-0.9,2.1-0.9c0.9,0,1.6,0.3,2.2,0.9c0.6,0.6,0.9,1.4,0.9,2.2v0.6h-1.8v-0.6c0-0.1,0-0.2,0-0.2c0-0.1,0-0.1,0-0.2
			c0-0.1,0-0.1-0.1-0.2c0-0.1-0.1-0.2-0.2-0.3c-0.2-0.2-0.5-0.4-0.9-0.4s-0.7,0.1-0.9,0.4c-0.2,0.3-0.3,0.6-0.3,1v0.6v0.2
			c0,0.2,0,0.4,0.1,0.6c0.1,0.1,0.3,0.3,0.6,0.5c0.1,0,0.2,0.1,0.4,0.2s0.5,0.2,0.8,0.3c0.6,0.2,1.1,0.6,1.6,1.1s0.7,1.2,0.7,2v1
			c0,0.4,0,0.8-0.1,1.1c-0.1,0.3-0.3,0.7-0.8,1.3c-0.4,0.5-1.2,0.8-2.2,0.8c-1.1,0-1.9-0.3-2.4-1s-0.7-1.4-0.7-2.2v-0.4h1.8
			L62.1,22.1L62.1,22.1z"/>
		<path id="path2392" class="st1" d="M67.2,25.2V12.7h2.9l0,0c0.4,0,0.7,0.1,1.1,0.2c0.3,0.1,0.6,0.3,0.9,0.6
			c0.3,0.2,0.5,0.5,0.6,0.9c0.2,0.3,0.2,0.6,0.3,1v1.8v0.2c0,0.4-0.1,0.8-0.2,1.2c-0.1,0.3-0.4,0.7-0.6,0.9
			c-0.3,0.3-0.6,0.5-0.9,0.6s-0.7,0.2-1.1,0.2H70h-1v4.9H67.2z M71,18.3c0.1-0.1,0.2-0.2,0.2-0.4c0-0.1,0.1-0.3,0.1-0.5v-1.8
			c0-0.3-0.1-0.6-0.3-0.9c-0.2-0.2-0.5-0.4-0.9-0.4H69v4.2h1c0.2,0,0.4,0,0.6-0.1C70.7,18.5,70.9,18.4,71,18.3L71,18.3z"/>
		<path id="path2394" class="st1" d="M74.5,13.9c0.3-0.4,0.6-0.7,1.1-0.9c0.4-0.2,0.9-0.4,1.4-0.4s0.9,0.1,1.3,0.3s0.8,0.4,1,0.8
			c0.3,0.3,0.5,0.7,0.6,1s0.1,0.7,0.1,1.1v6.4c0,0.4,0,0.7-0.1,1s-0.2,0.6-0.4,1c-0.2,0.3-0.6,0.6-1,0.9c-0.4,0.2-0.9,0.4-1.4,0.4
			c-0.3,0-0.6,0-0.9-0.1s-0.5-0.2-0.8-0.3s-0.4-0.3-0.6-0.5s-0.3-0.4-0.4-0.5C74.1,23.5,74,23.2,74,23s-0.1-0.5-0.1-0.8v-6.4
			c0-0.4,0-0.7,0.1-1C74.1,14.5,74.3,14.2,74.5,13.9L74.5,13.9z M77.9,14.9c-0.2-0.3-0.6-0.5-1-0.5c-0.2,0-0.4,0.1-0.6,0.2
			c-0.2,0.1-0.3,0.2-0.4,0.4c-0.1,0.1-0.1,0.3-0.1,0.4s0,0.3,0,0.4v6.4c0,0.1,0,0.1,0,0.2s0,0.1,0,0.2s0.1,0.3,0.3,0.6
			c0.2,0.3,0.5,0.4,0.9,0.4c0.2,0,0.4,0,0.6-0.1s0.3-0.2,0.4-0.4c0.1-0.1,0.1-0.3,0.2-0.4c0-0.1,0-0.3,0-0.5v-6.4c0-0.2,0-0.4,0-0.5
			C78.1,15.1,78,15,77.9,14.9L77.9,14.9z"/>
		<path id="path2396" class="st1" d="M85.8,25.2L83,17.6v7.6h-1.8V12.7h1.7l2.8,7.6v-7.6h1.8v12.5C87.5,25.2,85.8,25.2,85.8,25.2z"
			/>
		<path id="path2398" class="st1" d="M89.8,22.1c0,0.1,0,0.2,0,0.3s0,0.2,0,0.2c0,0.1,0.1,0.3,0.3,0.5c0.2,0.2,0.5,0.4,0.9,0.4
			c0.2,0,0.5,0,0.7-0.1s0.4-0.3,0.5-0.4s0.1-0.3,0.1-0.4s0-0.2,0-0.3v-0.2v-0.9V21c0-0.3,0-0.5-0.1-0.6c-0.1-0.2-0.3-0.3-0.7-0.5
			c-0.2-0.1-0.7-0.3-1.3-0.5c-0.6-0.2-1.1-0.6-1.5-1.1s-0.6-1.1-0.6-2v-0.6c0-0.9,0.3-1.6,0.9-2.2c0.6-0.6,1.3-0.9,2.1-0.9
			c0.9,0,1.6,0.3,2.2,0.9c0.6,0.6,0.9,1.4,0.9,2.2v0.6h-1.8v-0.6c0-0.1,0-0.2,0-0.2c0-0.1,0-0.1,0-0.2s0-0.1-0.1-0.2
			c0-0.1-0.1-0.2-0.2-0.3c-0.2-0.2-0.5-0.4-0.9-0.4s-0.7,0.1-0.9,0.4c-0.2,0.3-0.3,0.6-0.3,1v0.6v0.2c0,0.2,0,0.4,0.1,0.6
			c0.1,0.1,0.3,0.3,0.6,0.5c0.1,0,0.2,0.1,0.4,0.2c0.2,0.1,0.5,0.2,0.8,0.3c0.6,0.2,1.1,0.6,1.6,1.1s0.7,1.2,0.7,2v1
			c0,0.4,0,0.8-0.1,1.1c-0.1,0.3-0.3,0.7-0.8,1.3c-0.4,0.5-1.2,0.8-2.2,0.8c-1.1,0-1.9-0.3-2.4-1S88,23.1,88,22.3v-0.4h1.8V22.1z"/>
		<path id="path2400" class="st1" d="M95.1,25.2V12.7h1.8v12.5H95.1z"/>
		<path id="path2402" class="st1" d="M101.1,12.7c0.4,0,0.7,0.1,1.1,0.2c0.4,0.2,0.8,0.5,1.1,0.8c0.4,0.4,0.6,1,0.6,1.9v1
			c0,1-0.4,1.6-1.1,2c0.8,0.4,1.1,1.1,1.1,2.1v1.5c0,0.9-0.3,1.6-0.9,2.2s-1.3,0.9-2.2,0.9H98V12.7H101.1z M102.2,16.4v-0.8
			c0-0.4-0.1-0.7-0.3-0.9c-0.2-0.2-0.5-0.4-0.9-0.4h-1v3.5h1.1c0.4,0,0.7-0.1,0.9-0.4C102.1,17.2,102.2,16.9,102.2,16.4L102.2,16.4z
			 M102.2,22.2v-1.5c0-0.4-0.1-0.7-0.3-0.9c-0.2-0.2-0.5-0.4-0.9-0.4h-1v4h1c0.4,0,0.7-0.1,0.9-0.4
			C102.1,22.9,102.2,22.6,102.2,22.2z"/>
		<path id="path2404" class="st1" d="M110.2,25.2h-5.3V12.7h1.8v10.7h3.5V25.2z"/>
		<path id="path2406" class="st1" d="M116.1,23.4v1.8h-5.4V12.7h5.4v1.6h-3.6V18h3.1v1.7h-3.1v3.7L116.1,23.4z"/>
		<path id="path2408" class="st1" d="M53.4,39.3c0,0.4,0,0.7-0.1,1c0,0.3-0.2,0.6-0.4,0.9c-0.1,0.2-0.3,0.3-0.4,0.5
			c-0.2,0.1-0.3,0.3-0.6,0.4c-0.2,0.1-0.4,0.2-0.7,0.3c-0.2,0.1-0.5,0.1-0.7,0.1c-0.6,0-1.1-0.1-1.5-0.4c-0.4-0.2-0.8-0.5-1-0.9
			s-0.3-0.7-0.4-1c0-0.3-0.1-0.6-0.1-1v-6.4c0-0.3,0-0.7,0.1-0.9c0.1-0.3,0.2-0.6,0.4-0.9s0.5-0.6,1-0.8c0.4-0.2,0.8-0.4,1.3-0.4
			c0.9,0,1.6,0.3,2.1,0.9c0.6,0.6,0.9,1.3,0.9,2.2v0.7h-1.8v-0.7c0-0.3-0.1-0.6-0.3-0.9c-0.2-0.2-0.5-0.4-0.8-0.4s-0.6,0.1-0.8,0.4
			c-0.2,0.2-0.3,0.5-0.3,0.9v6.9c0,0.2,0.1,0.4,0.3,0.6c0.2,0.2,0.5,0.4,0.9,0.4s0.7-0.1,0.8-0.3s0.2-0.4,0.2-0.5s0-0.3,0-0.4V39
			h1.8L53.4,39.3z"/>
		<path id="path2410" class="st1" d="M55.4,31.2c0.3-0.4,0.6-0.7,1.1-0.9c0.4-0.2,0.9-0.4,1.4-0.4s0.9,0.1,1.3,0.3
			c0.4,0.2,0.8,0.4,1,0.8c0.3,0.3,0.5,0.7,0.6,1s0.1,0.7,0.1,1.1v6.4c0,0.4,0,0.7-0.1,1s-0.2,0.6-0.4,1c-0.2,0.3-0.6,0.6-1,0.9
			c-0.4,0.2-0.9,0.4-1.4,0.4c-0.3,0-0.6,0-0.9-0.1c-0.3-0.1-0.5-0.2-0.8-0.3c-0.2-0.1-0.4-0.3-0.6-0.5c-0.2-0.2-0.3-0.4-0.4-0.5
			C55.1,41,55,40.7,55,40.5s-0.1-0.5-0.1-0.8V33c0-0.4,0-0.7,0.1-1C55,31.7,55.2,31.4,55.4,31.2L55.4,31.2z M58.8,32.1
			c-0.2-0.3-0.6-0.5-1-0.5c-0.2,0-0.4,0.1-0.6,0.2c-0.2,0.1-0.3,0.2-0.4,0.4c-0.1,0.1-0.1,0.3-0.1,0.4c0,0.1,0,0.3,0,0.4v6.4
			c0,0.1,0,0.1,0,0.2c0,0.1,0,0.1,0,0.2c0,0.1,0.1,0.3,0.3,0.6s0.5,0.4,0.9,0.4c0.2,0,0.4,0,0.6-0.1c0.2-0.1,0.3-0.2,0.4-0.4
			c0.1-0.1,0.1-0.3,0.2-0.4s0-0.3,0-0.5V33c0-0.2,0-0.4,0-0.5C59,32.4,58.9,32.3,58.8,32.1L58.8,32.1z"/>
		<path id="path2412" class="st1" d="M66.6,42.5l-2.8-7.6v7.6H62V30h1.7l2.8,7.6V30h1.8v12.5H66.6z"/>
		<path id="path2414" class="st1" d="M70.5,39.4c0,0.1,0,0.2,0,0.3s0,0.2,0,0.2c0,0.1,0.1,0.3,0.3,0.5c0.2,0.2,0.5,0.4,0.9,0.4
			c0.2,0,0.5,0,0.7-0.1s0.4-0.3,0.5-0.4S73,40,73,39.9s0-0.2,0-0.3v-0.2v-0.9v-0.2c0-0.3,0-0.5-0.1-0.6c-0.1-0.2-0.3-0.3-0.7-0.5
			C72,37,71.6,36.8,71,36.6s-1.1-0.6-1.5-1.1s-0.6-1.1-0.6-2V33c0-0.9,0.3-1.6,0.9-2.2s1.3-0.9,2.1-0.9c0.9,0,1.6,0.3,2.2,0.9
			S75,32.2,75,33v0.6h-1.8V33c0-0.1,0-0.2,0-0.2c0-0.1,0-0.1,0-0.2c0-0.1,0-0.1-0.1-0.2c0-0.1-0.1-0.2-0.2-0.3
			c-0.2-0.2-0.5-0.4-0.9-0.4s-0.7,0.1-0.9,0.4c-0.2,0.3-0.3,0.6-0.3,1v0.6v0.2c0,0.2,0,0.4,0.1,0.6c0.1,0.1,0.3,0.3,0.6,0.5
			c0.1,0,0.2,0.1,0.4,0.2c0.2,0.1,0.5,0.2,0.8,0.3c0.6,0.2,1.1,0.6,1.6,1.1s0.7,1.2,0.7,2v1c0,0.4,0,0.8-0.1,1.1s-0.3,0.7-0.8,1.3
			c-0.4,0.5-1.2,0.8-2.2,0.8c-1.1,0-1.9-0.3-2.4-1s-0.7-1.4-0.7-2.2v-0.4h1.8L70.5,39.4L70.5,39.4z"/>
		<path id="path2416" class="st1" d="M81.1,41.2c-0.3,0.4-0.6,0.8-1.1,1c-0.4,0.3-0.9,0.4-1.4,0.4c-0.3,0-0.5,0-0.8-0.1
			c-0.2-0.1-0.5-0.2-0.7-0.3s-0.4-0.3-0.6-0.4c-0.2-0.2-0.3-0.3-0.4-0.5c-0.2-0.3-0.3-0.7-0.4-0.9c0-0.3-0.1-0.5-0.1-0.8V30h1.8v9.6
			c0,0.1,0,0.2,0,0.2c0,0.1,0,0.1,0,0.2c0,0.1,0.1,0.3,0.3,0.5c0.2,0.2,0.4,0.3,0.8,0.3s0.6-0.1,0.8-0.4c0.2-0.3,0.3-0.6,0.3-0.9V30
			h1.8v9.6c0,0.3,0,0.6-0.1,0.9S81.3,40.9,81.1,41.2L81.1,41.2z"/>
		<path id="path2418" class="st1" d="M88.4,42.5v-7.6l-1.8,5.3h-0.9l-1.8-5.3v7.6h-1.8V30h1.7l2.4,6.7l2.3-6.7h1.6v12.5H88.4z"/>
		<path id="path2420" class="st1" d="M91.4,42.5V30h2.9l0,0c0.4,0,0.7,0.1,1.1,0.2c0.3,0.1,0.6,0.3,0.9,0.6s0.5,0.5,0.6,0.9
			c0.2,0.3,0.2,0.6,0.3,1v1.8v0.2c0,0.4-0.1,0.8-0.2,1.2c-0.1,0.3-0.4,0.7-0.6,0.9c-0.3,0.3-0.6,0.5-0.9,0.6s-0.7,0.2-1.1,0.2h-0.2
			h-0.9v4.9C93.3,42.5,91.4,42.5,91.4,42.5z M95.2,35.5c0.1-0.1,0.2-0.2,0.2-0.4c0-0.1,0.1-0.3,0.1-0.5v-1.8c0-0.3-0.1-0.6-0.3-0.9
			c-0.2-0.2-0.5-0.4-0.9-0.4h-1.1v4.2h0.9c0.2,0,0.4,0,0.6-0.1C94.9,35.7,95.1,35.6,95.2,35.5L95.2,35.5z"/>
		<path id="path2422" class="st1" d="M99.7,42.5V31.6h-2.1V30h6v1.7h-2.1v10.8H99.7z"/>
		<path id="path2424" class="st1" d="M104.2,42.5V30h1.8v12.5H104.2z"/>
		<path id="path2426" class="st1" d="M107.8,31.2c0.3-0.4,0.6-0.7,1.1-0.9c0.4-0.2,0.9-0.4,1.4-0.4s0.9,0.1,1.3,0.3
			c0.4,0.2,0.8,0.4,1,0.8c0.3,0.3,0.5,0.7,0.6,1s0.1,0.7,0.1,1.1v6.4c0,0.4,0,0.7-0.1,1s-0.2,0.6-0.4,1c-0.2,0.3-0.6,0.6-1,0.9
			c-0.4,0.2-0.9,0.4-1.4,0.4c-0.3,0-0.6,0-0.9-0.1s-0.5-0.2-0.8-0.3c-0.2-0.1-0.4-0.3-0.6-0.5s-0.3-0.4-0.4-0.5
			c-0.2-0.4-0.3-0.7-0.3-0.9s-0.1-0.5-0.1-0.8V33c0-0.4,0-0.7,0.1-1C107.5,31.7,107.7,31.4,107.8,31.2L107.8,31.2z M111.3,32.1
			c-0.2-0.3-0.6-0.5-1-0.5c-0.2,0-0.4,0.1-0.6,0.2s-0.3,0.2-0.4,0.4c-0.1,0.1-0.1,0.3-0.1,0.4c0,0.1,0,0.3,0,0.4v6.4
			c0,0.1,0,0.1,0,0.2c0,0.1,0,0.1,0,0.2c0,0.1,0.1,0.3,0.3,0.6c0.2,0.3,0.5,0.4,0.9,0.4c0.2,0,0.4,0,0.6-0.1s0.3-0.2,0.4-0.4
			c0.1-0.1,0.1-0.3,0.2-0.4s0-0.3,0-0.5V33c0-0.2,0-0.4,0-0.5C111.5,32.4,111.4,32.3,111.3,32.1L111.3,32.1z"/>
		<path id="path2428" class="st1" d="M119.3,42.5l-2.8-7.6v7.6h-1.8V30h1.7l2.8,7.6V30h1.8v12.5H119.3z"/>
		<path id="path2430" class="st1" d="M47,59.7l2.8-12.5h1.5l2.8,12.5h-1.9L51.7,57h-2.3l-0.5,2.7H47z M49.8,55.4h1.7l-0.8-4.6
			L49.8,55.4z"/>
		<path id="path2432" class="st1" d="M59.6,59.7l-2.8-7.6v7.6H55V47.2h1.7l2.8,7.6v-7.6h1.8v12.5H59.6z"/>
		<path id="path2434" class="st1" d="M65.1,47.2c0.8,0,1.5,0.3,2.1,0.9c0.6,0.6,0.9,1.2,0.9,2.1v6.5c0,0.9-0.3,1.7-0.8,2.2
			c-0.6,0.6-1.3,0.9-2.2,0.9h-2.8V47.2H65.1z M66.3,56.6v-6.5c0-0.3-0.1-0.6-0.4-0.9c-0.2-0.2-0.6-0.4-0.9-0.4h-1V58h0.9
			C65.8,58.1,66.3,57.6,66.3,56.6L66.3,56.6z"/>
		<path id="path2436" class="st1" d="M71,59.7V47.2h3l0,0c0.4,0,0.7,0.1,1.1,0.2c0.3,0.1,0.6,0.3,0.9,0.6s0.5,0.5,0.6,0.9
			c0.2,0.3,0.2,0.6,0.3,1v1.8v0.2c0,0.4-0.1,0.8-0.2,1.2c-0.1,0.3-0.4,0.7-0.6,0.9s-0.6,0.5-0.9,0.6s-0.7,0.2-1.1,0.2h-0.2H73v4.9
			C73,59.7,71,59.7,71,59.7z M74.8,52.7c0.1-0.1,0.2-0.2,0.2-0.4c0-0.1,0.1-0.3,0.1-0.5V50c0-0.3-0.1-0.6-0.3-0.9
			c-0.2-0.2-0.5-0.4-0.9-0.4h-1.1v4.2h0.9c0.2,0,0.4,0,0.6-0.1C74.5,53,74.7,52.9,74.8,52.7L74.8,52.7z"/>
		<path id="path2438" class="st1" d="M77.9,59.7V47.2H81c0.8,0,1.5,0.3,2.1,0.9c0.6,0.6,0.9,1.3,0.9,2.1v1.2c0,1.2-0.5,2-1.5,2.7
			l1.9,5.7h-1.9l-1.7-5.4h-1.1v5.4h-1.8V59.7z M81.9,52.4c0.1-0.1,0.2-0.3,0.2-0.5s0.1-0.4,0.1-0.6v-1.2c0-0.4-0.1-0.7-0.3-0.9
			c-0.2-0.2-0.5-0.4-0.9-0.4h-1.3v3.9H81C81.3,52.8,81.6,52.7,81.9,52.4L81.9,52.4z"/>
		<path id="path2440" class="st1" d="M85.3,48.4c0.3-0.4,0.6-0.7,1.1-0.9c0.4-0.2,0.9-0.4,1.4-0.4s0.9,0.1,1.3,0.3s0.8,0.4,1,0.8
			c0.3,0.3,0.5,0.7,0.6,1s0.1,0.7,0.1,1.1v6.4c0,0.4,0,0.7-0.1,1s-0.2,0.6-0.4,1c-0.2,0.3-0.6,0.6-1,0.9c-0.4,0.2-0.9,0.4-1.4,0.4
			c-0.3,0-0.6,0-0.9-0.1s-0.5-0.2-0.8-0.3s-0.4-0.3-0.6-0.5s-0.3-0.4-0.4-0.5c-0.2-0.4-0.3-0.7-0.3-0.9s-0.1-0.5-0.1-0.8v-6.4
			c0-0.4,0-0.7,0.1-1C85,49,85.1,48.7,85.3,48.4L85.3,48.4z M88.8,49.4c-0.2-0.3-0.6-0.5-1-0.5c-0.2,0-0.4,0.1-0.6,0.2
			c-0.2,0.1-0.3,0.2-0.4,0.4c-0.1,0.1-0.1,0.3-0.1,0.4c0,0.1,0,0.3,0,0.4v6.4c0,0.1,0,0.1,0,0.2c0,0.1,0,0.1,0,0.2
			c0,0.1,0.1,0.3,0.3,0.6c0.2,0.3,0.5,0.4,0.9,0.4c0.2,0,0.4,0,0.6-0.1s0.3-0.2,0.4-0.4c0.1-0.1,0.1-0.3,0.2-0.4c0-0.1,0-0.3,0-0.5
			v-6.4c0-0.2,0-0.4,0-0.5C88.9,49.6,88.9,49.5,88.8,49.4L88.8,49.4z"/>
		<path id="path2442" class="st1" d="M94.8,47.2c0.8,0,1.5,0.3,2.1,0.9c0.6,0.6,0.9,1.2,0.9,2.1v6.5c0,0.9-0.3,1.7-0.8,2.2
			c-0.6,0.6-1.3,0.9-2.2,0.9H92V47.2H94.8z M96,56.6v-6.5c0-0.3-0.1-0.6-0.4-0.9c-0.2-0.2-0.6-0.4-0.9-0.4h-0.9V58h0.9
			C95.5,58.1,96,57.6,96,56.6L96,56.6z"/>
		<path id="path2444" class="st1" d="M104.6,58.4c-0.3,0.4-0.6,0.8-1.1,1c-0.4,0.3-0.9,0.4-1.4,0.4c-0.3,0-0.5,0-0.8-0.1
			c-0.2-0.1-0.5-0.2-0.7-0.3s-0.4-0.3-0.6-0.4c-0.2-0.2-0.3-0.3-0.4-0.5c-0.2-0.3-0.3-0.7-0.4-0.9c0-0.3-0.1-0.5-0.1-0.8v-9.6h1.8
			v9.6c0,0.1,0,0.2,0,0.2c0,0.1,0,0.1,0,0.2c0,0.1,0.1,0.3,0.3,0.5c0.2,0.2,0.4,0.3,0.8,0.3s0.6-0.1,0.8-0.4
			c0.2-0.3,0.3-0.6,0.3-0.9v-9.6h1.8v9.6c0,0.3,0,0.6-0.1,0.9S104.8,58.2,104.6,58.4L104.6,58.4z"/>
		<path id="path2446" class="st1" d="M112.2,56.6c0,0.4,0,0.7-0.1,1c0,0.3-0.2,0.6-0.4,0.9c-0.1,0.2-0.3,0.3-0.4,0.5
			c-0.2,0.1-0.3,0.3-0.6,0.4c-0.2,0.1-0.4,0.2-0.7,0.3s-0.5,0.1-0.7,0.1c-0.6,0-1.1-0.1-1.5-0.4c-0.4-0.2-0.8-0.5-1-0.9
			s-0.3-0.7-0.4-1c0-0.3-0.1-0.6-0.1-1v-6.4c0-0.3,0-0.7,0.1-0.9c0.1-0.3,0.2-0.6,0.4-0.9s0.5-0.6,1-0.8c0.4-0.2,0.8-0.4,1.3-0.4
			c0.9,0,1.6,0.3,2.1,0.9c0.6,0.6,0.9,1.3,0.9,2.2v0.7h-1.8v-0.7c0-0.3-0.1-0.6-0.3-0.9c-0.2-0.2-0.5-0.4-0.8-0.4s-0.6,0.1-0.8,0.4
			c-0.2,0.2-0.3,0.5-0.3,0.9v6.9c0,0.2,0.1,0.4,0.3,0.6c0.2,0.2,0.5,0.4,0.9,0.4s0.7-0.1,0.8-0.3s0.2-0.4,0.2-0.5s0-0.3,0-0.4v-0.6
			h1.8L112.2,56.6z"/>
		<path id="path2448" class="st1" d="M114.6,59.7V48.9h-2.1v-1.7h6v1.7h-2.1v10.8H114.6z"/>
		<path id="path2450" class="st1" d="M119.2,59.7V47.2h1.8v12.5H119.2z"/>
		<path id="path2452" class="st1" d="M122.7,48.4c0.3-0.4,0.6-0.7,1.1-0.9c0.4-0.2,0.9-0.4,1.4-0.4s0.9,0.1,1.3,0.3s0.8,0.4,1,0.8
			c0.3,0.3,0.5,0.7,0.6,1s0.1,0.7,0.1,1.1v6.4c0,0.4,0,0.7-0.1,1s-0.2,0.6-0.4,1c-0.2,0.3-0.6,0.6-1,0.9c-0.4,0.2-0.9,0.4-1.4,0.4
			c-0.3,0-0.6,0-0.9-0.1s-0.5-0.2-0.8-0.3s-0.4-0.3-0.6-0.5s-0.3-0.4-0.4-0.5c-0.2-0.4-0.3-0.7-0.3-0.9s-0.1-0.5-0.1-0.8v-6.4
			c0-0.4,0-0.7,0.1-1C122.3,49,122.5,48.7,122.7,48.4L122.7,48.4z M126.2,49.4c-0.2-0.3-0.6-0.5-1-0.5c-0.2,0-0.4,0.1-0.6,0.2
			c-0.2,0.1-0.3,0.2-0.4,0.4c-0.1,0.1-0.1,0.3-0.1,0.4c0,0.1,0,0.3,0,0.4v6.4c0,0.1,0,0.1,0,0.2c0,0.1,0,0.1,0,0.2
			c0,0.1,0.1,0.3,0.3,0.6c0.2,0.3,0.5,0.4,0.9,0.4c0.2,0,0.4,0,0.6-0.1s0.3-0.2,0.4-0.4c0.1-0.1,0.1-0.3,0.2-0.4c0-0.1,0-0.3,0-0.5
			v-6.4c0-0.2,0-0.4,0-0.5C126.3,49.6,126.3,49.5,126.2,49.4L126.2,49.4z"/>
		<path id="path2454" class="st1" d="M133.9,59.7l-2.8-7.6v7.6h-1.8V47.2h1.7l2.8,7.6v-7.6h1.8v12.5H133.9z"/>
	</g>
</g>
<g id="tw">
	<g class="st5">
		<path class="st1" d="M54.3,24.5h-7.2l0.8,0.9c-1.8,0.7-3.6,1.2-5.3,1.4l-0.7-1.3c1.9-0.2,3.4-0.6,4.7-1H44v-6.2h10.4v6.2H54.3z
			 M56.2,17.7H41.9v-1.1h6.4v-0.7h-5.4v-1h5.4v-0.6h-6V13h6v-0.7h1.5V13h6.1v1.1h-6.1v0.6h5.4v1h-5.4v0.7h6.4
			C56.2,16.4,56.2,17.7,56.2,17.7z M52.8,20v-0.7h-7.4V20H52.8z M52.8,21.7V21h-7.4v0.7H52.8z M52.8,23.4v-0.8h-7.4v0.8H52.8z
			 M56.3,25.6l-0.7,1.2c-1.3-0.4-3-0.7-5-0.9l0.7-1.2C53.3,24.9,54.9,25.1,56.3,25.6z"/>
		<path class="st1" d="M62.5,12.6c-0.2,0.6-0.4,1.2-0.7,1.9l-0.4,1v11h-1.5v-8.1c-0.2,0.4-0.6,0.9-1,1.3L58.2,18
			c1.2-1.6,2.2-3.6,2.9-6L62.5,12.6z M72.6,20.1h-4.5v4.7h4.1v1.4h-9.7v-1.4h4.1v-4.7h-4.5v-1.4h4.5v-4.6h-3.8v-1.4h9v1.4h-3.7v4.6
			h4.5C72.6,18.7,72.6,20.1,72.6,20.1z"/>
		<path class="st1" d="M78.5,18.3l-0.9,1.2c-0.9-0.8-1.9-1.5-2.9-2l0.9-1.2C76.6,16.9,77.6,17.5,78.5,18.3z M78.7,21.2
			c-0.8,2.1-1.7,3.9-2.7,5.5l-1.3-0.9c1-1.5,1.9-3.3,2.7-5.4L78.7,21.2z M78.7,14.6l-1,1.1c-0.8-0.9-1.8-1.7-2.9-2.4l1.1-1.1
			C76.9,12.9,77.9,13.7,78.7,14.6z M88.5,24.8c0,0.7-0.2,1.2-0.5,1.4c-0.3,0.2-0.9,0.3-1.8,0.3c-0.3,0-0.6,0-0.9,0l-0.5-1.4
			c0.9,0,1.5,0,1.8,0s0.5-0.1,0.5-0.4v-1.9c-1.8,0.5-3.6,0.9-5.6,1.3L81,23.3c-0.3,1.4-0.8,2.5-1.6,3.3l-1.2-0.9
			c0.4-0.4,0.8-1,1-1.7c0.3-0.7,0.4-1.9,0.4-3.4v-3.4h3.7v-4.8h1.5v4.8h3.7V24.8z M82.4,16l-1.3,0.7c-0.7-1.3-1.4-2.4-2.1-3.3
			l1.3-0.8C81.3,13.9,82,15,82.4,16z M87.1,21.5v-3.1h-5.9v1c1.7,0.1,3.4,0.3,5,0.5l-0.4,1.4c-1.4-0.2-2.9-0.4-4.7-0.6
			c0,0.7,0,1.4-0.1,2.1C83.2,22.5,85.2,22.1,87.1,21.5z M89,13.2c-0.4,1.1-1,2.3-1.8,3.5L85.8,16c0.7-1.1,1.4-2.2,1.8-3.4L89,13.2z"
			/>
		<path class="st1" d="M105.2,16.6c0,1.3-0.1,2-0.4,2.2c-0.2,0.2-0.5,0.4-0.7,0.4l-0.7,0.1v5.4h-7.1l0.7,0.7
			c-1.7,0.7-3.5,1.1-5.4,1.2L91,25.5c1.7-0.1,3.2-0.4,4.4-0.8h-2.3v-4.8c-0.5,0.1-1.1,0.2-1.6,0.3L91,18.9c1.8-0.2,3.1-0.6,3.8-1.4
			h-3.2l0.5-2.7h3.5V14h-4.3v-1h4.3v-0.8H97V13h2.3v-0.8h1.4V13h3.8v2.7h-3.8v0.8h4.5V16.6z M95.6,15.8h-2.2l-0.1,0.8h2.1
			C95.5,16.3,95.6,16,95.6,15.8z M102,20.4v-0.7h-7.4v0.7H102z M102,22.1v-0.7h-7.4v0.7H102z M102,23.7V23h-7.4v0.7H102z
			 M103.7,17.6h-2.9v0.8h-1.4v-0.8h-3c-0.2,0.3-0.5,0.7-1.1,1.2h7.3l-0.2-0.6c0.6,0,0.9,0,1-0.1C103.7,18,103.7,17.8,103.7,17.6z
			 M99.4,16.6v-0.8H97c0,0.3-0.1,0.6-0.2,0.8H99.4z M99.4,14.8V14h-2.3v0.8H99.4z M105.5,25.7l-0.6,1.1c-1.7-0.4-3.3-0.7-5-0.8
			l0.6-1.1C102.6,25,104.2,25.3,105.5,25.7z M103.2,14.8V14h-2.4v0.8H103.2z"/>
	</g>
	<g class="st5">
		<path class="st1" d="M56.2,45.1l-0.8,1.2c-1.6-0.7-3-1.5-4.1-2.3c-1.4,0.9-3.1,1.7-5.1,2.4l-0.8-1.3c1.9-0.6,3.4-1.3,4.7-2.1
			C49,42,48,40.5,47,38.7c-0.6,3-2,5.5-4.2,7.5l-1-1.1c1.4-1.3,2.4-2.7,3-4.1c0.6-1.4,1-3.9,1.2-7.3h-3v-1.4h11
			c-0.4,1.5-0.8,3-1.4,4.4h2.6c-0.5,2.8-1.4,5-2.9,6.5C53.4,43.8,54.7,44.5,56.2,45.1z M52.1,33.6h-4.5c0,1.1-0.1,2-0.3,3h3.8
			C51.4,35.8,51.8,34.8,52.1,33.6z M53.5,38.1h-5.2c0.9,1.7,1.9,3.1,3,4.1C52.3,41.2,53,39.8,53.5,38.1z"/>
		<path class="st1" d="M72.5,45.9H58.3v-1.4h6.6v-3.6h-5v-1.4h5v-3.1h-3.7c-0.6,1-1.3,1.9-2,2.7L58.1,38c1.5-1.5,2.5-3.4,3-5.6
			l1.5,0.3c-0.2,0.7-0.4,1.4-0.7,2.2h3V32h1.5v2.9h5.9v1.4h-5.9v3.1h5.2v1.4h-5.2v3.6h6.1V45.9z"/>
		<path class="st1" d="M89,39H77.3v2.7c0,2-0.5,3.6-1.5,4.7l-1.2-1c0.3-0.3,0.6-0.8,0.9-1.5c0.2-0.7,0.4-1.7,0.4-3.2v-3H89V39z
			 M88.6,34.3h-2.4c-0.4,0.5-0.9,0.9-1.4,1.2c1.3,0.3,2.5,0.6,3.5,1l-0.5,1c-1.4-0.5-2.8-0.8-4.4-1.1c-2,0.8-4.1,1.1-6.3,1.1
			l-0.4-1.1c1.4,0,2.7-0.1,4.1-0.4c-1-0.2-2-0.3-3.2-0.4l0.7-1c1.5,0.1,3.2,0.4,4.9,0.7c0.5-0.3,0.9-0.6,1.3-0.9h-9.2V33h6.1
			c-0.1-0.3-0.3-0.5-0.5-0.8l1.5-0.3c0.2,0.4,0.4,0.7,0.6,1.1h5.7L88.6,34.3L88.6,34.3z M89,46H77.2v-1.2h5.2v-1.1h-3.3v-1.2h3.3
			v-0.9h-2.9c-0.4,0.6-0.9,1.1-1.3,1.5L77.3,42c0.8-0.6,1.4-1.5,1.8-2.6l1.4,0.4c-0.1,0.3-0.1,0.4-0.2,0.6h2.2v-1H84v1h4.3v1.2H84
			v0.9h3.9v1.2H84v1.1h5V46z"/>
	</g>
</g>
</svg>
