<?xml version="1.0" encoding="utf-8"?>
<!-- Generator: Adobe Illustrator 24.3.0, SVG Export Plug-In . SVG Version: 6.00 Build 0)  -->
<svg version="1.1" id="圖層_1" xmlns="http://www.w3.org/2000/svg" xmlns:xlink="http://www.w3.org/1999/xlink" x="0px" y="0px"
	 viewBox="0 0 148.1 148.3" style="enable-background:new 0 0 148.1 148.3;" xml:space="preserve">
<style type="text/css">
	.st0{fill-rule:evenodd;clip-rule:evenodd;fill:#F36D25;}
	.st1{fill:#FFFFFF;}
	.st2{display:none;}
	.st3{display:inline;}
	.st4{enable-background:new    ;}
</style>
<g id="圖層_4">
	<g id="rect8528-63-2-4-3-6-0-4">
		<path class="st0" d="M0.9,0h146.4c0.5,0,0.8,0.4,0.8,0.8v146.7c0,0.5-0.4,0.8-0.8,0.8H0.9c-0.5,0-0.8-0.4-0.8-0.8V0.8
			C0.1,0.4,0.5,0,0.9,0z"/>
	</g>
	<g id="text6075-0-6-9-2-5-9-0-9">
		<g id="path2270">
			<path class="st1" d="M15.3,27.1c-0.2-0.4-0.3-0.8-0.4-1.2c0-0.4,0-1,0-1.7v-6.1c0-0.7,0.1-1.3,0.3-1.8c0.1-0.3,0.3-0.7,0.5-1.1
				c0.3-0.4,0.6-0.9,1-1.5c0.8-1.2,2.3-1.7,4.5-1.7c2,0,3.6,0.7,4.7,2.1c1.2,1.3,1.7,2.9,1.7,4.6v4.9c0,1.2-0.2,2.3-0.7,3.5
				l-5.6,15.1h-4.9l5-12.6c-0.8,0.2-1.4,0.3-1.8,0.3c-1,0-1.8-0.3-2.6-0.8C16.3,28.6,15.7,27.9,15.3,27.1L15.3,27.1z M21.4,16.3
				c-0.7,0-1.3,0.3-1.6,0.8c-0.4,0.5-0.5,1.1-0.5,1.7v4.9c0,0.7,0.2,1.4,0.6,1.8s1,0.7,1.7,0.7s1.1-0.2,1.4-0.7s0.5-1.1,0.5-1.9
				v-4.9c0-0.7-0.2-1.3-0.5-1.8C22.6,16.5,22.1,16.3,21.4,16.3L21.4,16.3z"/>
		</g>
	</g>
	<g id="path7454">
		<path class="st1" d="M76.3,99.4c-0.2,0-0.5-0.1-0.7-0.2L57.5,88.7c-0.4-0.2-0.6-0.7-0.6-1.1v-21c0-0.5,0.2-0.9,0.7-1.1L75.8,55
			c0.4-0.2,0.9-0.2,1.3,0l18.1,10.5c0.4,0.2,0.6,0.7,0.6,1.1v21c0,0.5-0.2,0.9-0.7,1.1L76.9,99.2C76.7,99.3,76.5,99.4,76.3,99.4z
			 M59.5,86.9l16.8,9.7l16.9-9.7V67.3l-16.8-9.7l-16.9,9.7V86.9z"/>
	</g>
	<g id="path7452">
		<path class="st1" d="M94.6,131c-0.2,0-0.4-0.1-0.6-0.2l-18.2-10.5c-0.4-0.2-0.7-0.7-0.7-1.1v-21c0-0.5,0.2-0.9,0.7-1.1L94,86.6
			c0.4-0.2,0.9-0.2,1.3,0l18.2,10.5c0.4,0.2,0.7,0.7,0.7,1.1v21c0,0.5-0.2,0.9-0.7,1.1l-18.2,10.5C95,130.9,94.8,131,94.6,131z
			 M77.7,118.4l16.9,9.8l16.9-9.8V99l-16.9-9.8L77.7,99V118.4z"/>
	</g>
	<g id="path7450">
		<path class="st1" d="M58.1,130.9c-0.2,0-0.4-0.1-0.6-0.2l-18.2-10.5c-0.4-0.2-0.7-0.7-0.7-1.1v-21c0-0.5,0.2-0.9,0.7-1.1
			l18.2-10.5c0.4-0.2,0.9-0.2,1.3,0L76.9,97c0.4,0.2,0.7,0.7,0.7,1.1v21c0,0.5-0.2,0.9-0.7,1.1l-18.2,10.5
			C58.5,130.8,58.3,130.9,58.1,130.9z M41.2,118.3l16.9,9.8l16.9-9.8V98.9l-16.9-9.8l-16.9,9.8V118.3z"/>
	</g>
	<g id="path7448">
		<path class="st1" d="M58.1,131.1C58.1,131.1,58.1,131.1,58.1,131.1c-0.7,0-1.3-0.6-1.3-1.3V87.4c0-0.5,0.2-0.9,0.6-1.1l18-10.4
			c0.4-0.2,0.9-0.2,1.3,0l36.7,21.2c0.4,0.2,0.6,0.7,0.6,1.1c0,0.5-0.2,0.9-0.6,1.1l-36.3,21c-0.4,0.2-0.9,0.2-1.3,0l-16.4-9.5
			l-0.1,19C59.4,130.5,58.8,131.1,58.1,131.1z M59.4,107.8l17.1,9.9l33.7-19.5L76.1,78.5l-16.7,9.6V107.8z"/>
	</g>
	<g id="path7446">
		<rect x="75.2" y="76.8" class="st1" width="2.6" height="21.2"/>
	</g>
	<g id="path7414-8">
		<path class="st1" d="M76.2,77l18.4-10.6L76.5,55.9L58.1,66.5L76.2,77z"/>
		<path class="st1" d="M76.2,78.3c-0.2,0-0.5-0.1-0.7-0.2L57.4,67.6c-0.4-0.2-0.6-0.7-0.6-1.1c0-0.5,0.2-0.9,0.7-1.1l18.4-10.6
			c0.4-0.2,0.9-0.2,1.3,0l18.1,10.5c0.4,0.2,0.6,0.7,0.6,1.1s-0.2,0.9-0.7,1.1L76.8,78.1C76.6,78.2,76.4,78.3,76.2,78.3z M60.7,66.5
			l15.5,9L92,66.4l-15.5-9L60.7,66.5z"/>
	</g>
	<g id="path7414-8-8">
		<path class="st1" d="M58.1,108.6L76.5,98L58.4,87.6L40,98.2L58.1,108.6z"/>
		<path class="st1" d="M58.1,109.9c-0.2,0-0.4-0.1-0.6-0.2L39.4,99.3c-0.4-0.2-0.7-0.7-0.7-1.1c0-0.5,0.2-0.9,0.7-1.1l18.4-10.6
			c0.4-0.2,0.9-0.2,1.3,0l18.1,10.4c0.4,0.2,0.7,0.7,0.7,1.1c0,0.5-0.2,0.9-0.7,1.1l-18.4,10.6C58.5,109.8,58.3,109.9,58.1,109.9z
			 M42.6,98.2l15.5,8.9L73.9,98l-15.5-8.9L42.6,98.2z"/>
	</g>
	<g id="path7414-8-1">
		<path class="st1" d="M76.3,119l18.4,10.6v-20.9L76.3,98.2V119z"/>
		<path class="st1" d="M94.7,130.9c-0.2,0-0.4-0.1-0.6-0.2l-18.4-10.6c-0.4-0.2-0.7-0.7-0.7-1.1V98.2c0-0.5,0.2-0.9,0.6-1.1
			c0.4-0.2,0.9-0.2,1.3,0l18.4,10.5c0.4,0.2,0.7,0.7,0.7,1.1v20.9c0,0.5-0.2,0.9-0.6,1.1C95.1,130.8,94.9,130.9,94.7,130.9z
			 M77.6,118.2l15.8,9.1v-17.9l-15.8-9V118.2z"/>
	</g>
</g>
<g id="en" class="st2">
	<g id="text6065-3-2-9-6-6-5-0-0" class="st3">
		<path id="path2197" class="st1" d="M35.7,25.2V12.7h1.8v12.5H35.7z"/>
		<path id="path2199" class="st1" d="M42.7,25.2l-2.8-7.6v7.6h-1.8V12.7h1.7l2.8,7.6v-7.6h1.8v12.5C44.4,25.2,42.7,25.2,42.7,25.2z"
			/>
		<path id="path2201" class="st1" d="M48.1,12.7c0.8,0,1.5,0.3,2.1,0.9c0.6,0.6,0.9,1.2,0.9,2.1v6.5c0,0.9-0.3,1.7-0.8,2.2
			s-1.3,0.9-2.2,0.9h-2.8V12.7H48.1z M49.3,22.1v-6.5c0-0.3-0.1-0.6-0.4-0.9c-0.2-0.2-0.6-0.4-0.9-0.4h-0.9v9.2H48
			C48.8,23.6,49.3,23.1,49.3,22.1L49.3,22.1z"/>
		<path id="path2203" class="st1" d="M57.5,23.9c-0.3,0.4-0.6,0.8-1.1,1c-0.4,0.3-0.9,0.4-1.4,0.4c-0.3,0-0.5,0-0.8-0.1
			c-0.2-0.1-0.5-0.2-0.7-0.3c-0.2-0.1-0.4-0.3-0.6-0.4c-0.2-0.2-0.3-0.3-0.4-0.5c-0.2-0.3-0.3-0.7-0.4-0.9c0-0.3-0.1-0.5-0.1-0.8
			v-9.6h1.8v9.6c0,0.1,0,0.2,0,0.2c0,0.1,0,0.1,0,0.2s0.1,0.3,0.3,0.5s0.4,0.3,0.8,0.3c0.4,0,0.6-0.1,0.8-0.4s0.3-0.6,0.3-0.9v-9.6
			h1.8v9.6c0,0.3,0,0.6-0.1,0.9C57.8,23.4,57.7,23.7,57.5,23.9L57.5,23.9z"/>
		<path id="path2205" class="st1" d="M60.4,22.1c0,0.1,0,0.2,0,0.3s0,0.2,0,0.2c0,0.1,0.1,0.3,0.3,0.5s0.5,0.4,0.9,0.4
			c0.2,0,0.5,0,0.7-0.1s0.4-0.3,0.5-0.4s0.1-0.3,0.1-0.4s0-0.2,0-0.3v-0.2v-0.9V21c0-0.3,0-0.5-0.1-0.6c-0.1-0.2-0.3-0.3-0.7-0.5
			c-0.2-0.1-0.7-0.3-1.3-0.5s-1.1-0.6-1.5-1.1s-0.6-1.1-0.6-2v-0.6c0-0.9,0.3-1.6,0.9-2.2c0.6-0.6,1.3-0.9,2.1-0.9
			c0.9,0,1.6,0.3,2.2,0.9c0.6,0.6,0.9,1.4,0.9,2.2v0.6H63v-0.6c0-0.1,0-0.2,0-0.2c0-0.1,0-0.1,0-0.2c0-0.1,0-0.1-0.1-0.2
			c0-0.1-0.1-0.2-0.2-0.3c-0.2-0.2-0.5-0.4-0.9-0.4s-0.7,0.1-0.9,0.4c-0.2,0.3-0.3,0.6-0.3,1v0.6v0.2c0,0.2,0,0.4,0.1,0.6
			c0.1,0.1,0.3,0.3,0.6,0.5c0.1,0,0.2,0.1,0.4,0.2s0.5,0.2,0.8,0.3c0.6,0.2,1.1,0.6,1.6,1.1c0.5,0.5,0.7,1.2,0.7,2v1
			c0,0.4,0,0.8-0.1,1.1c-0.1,0.3-0.3,0.7-0.8,1.3c-0.4,0.5-1.2,0.8-2.2,0.8c-1.1,0-1.9-0.3-2.4-1s-0.7-1.4-0.7-2.2v-0.4h1.8
			C60.4,21.9,60.4,22.1,60.4,22.1z"/>
		<path id="path2207" class="st1" d="M66.6,25.2V14.4h-2.1v-1.7h6v1.7h-2.1v10.8H66.6z"/>
		<path id="path2209" class="st1" d="M70.9,25.2V12.7H74c0.8,0,1.5,0.3,2.1,0.9c0.6,0.6,0.9,1.3,0.9,2.1v1.2c0,1.2-0.5,2-1.5,2.7
			l1.9,5.7h-1.9l-1.7-5.4h-1.1v5.4L70.9,25.2L70.9,25.2z M74.9,17.9c0.1-0.1,0.2-0.3,0.2-0.5s0.1-0.4,0.1-0.6v-1.2
			c0-0.4-0.1-0.7-0.3-0.9c-0.2-0.2-0.5-0.4-0.9-0.4h-1.3v3.9H74C74.3,18.3,74.7,18.2,74.9,17.9L74.9,17.9z"/>
		<path id="path2211" class="st1" d="M79.2,25.2v-5.4l-2.4-7.1h1.9l1.5,4.9l1.5-4.9h1.9l-2.5,7.1v5.4H79.2z"/>
		<path id="path2213" class="st1" d="M82.3,26.6v-3.1h1.8v1.8L82.3,26.6z"/>
		<path id="path2215" class="st1" d="M86.8,25.2V12.7h1.8v12.5H86.8z"/>
		<path id="path2217" class="st1" d="M94.1,25.2l-2.8-7.6v7.6h-1.8V12.7h1.7l2.8,7.6v-7.6h1.8v12.5C95.8,25.2,94.1,25.2,94.1,25.2z"
			/>
		<path id="path2219" class="st1" d="M100.9,25.2l-2.8-7.6v7.6h-1.8V12.7H98l2.8,7.6v-7.6h1.8v12.5
			C102.6,25.2,100.9,25.2,100.9,25.2z"/>
		<path id="path2221" class="st1" d="M103.6,13.9c0.3-0.4,0.6-0.7,1.1-0.9c0.4-0.2,0.9-0.4,1.4-0.4s0.9,0.1,1.3,0.3s0.8,0.4,1,0.8
			s0.5,0.7,0.6,1s0.1,0.7,0.1,1.1v6.4c0,0.4,0,0.7-0.1,1s-0.2,0.6-0.4,1c-0.2,0.3-0.6,0.6-1,0.9c-0.4,0.2-0.9,0.4-1.4,0.4
			c-0.3,0-0.6,0-0.9-0.1s-0.5-0.2-0.8-0.3c-0.2-0.1-0.4-0.3-0.6-0.5s-0.3-0.4-0.4-0.5c-0.2-0.4-0.3-0.7-0.3-0.9
			c0-0.2-0.1-0.5-0.1-0.8V16c0-0.4,0-0.7,0.1-1C103.3,14.5,103.4,14.2,103.6,13.9L103.6,13.9z M107.1,14.9c-0.2-0.3-0.6-0.5-1-0.5
			c-0.2,0-0.4,0.1-0.6,0.2c-0.2,0.1-0.3,0.2-0.4,0.4c-0.1,0.1-0.1,0.3-0.1,0.4c0,0.1,0,0.3,0,0.4v6.4c0,0.1,0,0.1,0,0.2s0,0.1,0,0.2
			s0.1,0.3,0.3,0.6c0.2,0.3,0.5,0.4,0.9,0.4c0.2,0,0.4,0,0.6-0.1s0.3-0.2,0.4-0.4c0.1-0.1,0.1-0.3,0.2-0.4c0-0.1,0-0.3,0-0.5v-6.4
			c0-0.2,0-0.4,0-0.5C107.3,15.1,107.2,15,107.1,14.9L107.1,14.9z"/>
		<path id="path2223" class="st1" d="M111.9,25.2l-2.6-12.5h1.9l1.5,8.7l1.5-8.7h1.9l-2.6,12.5H111.9z"/>
		<path id="path2225" class="st1" d="M115.3,25.2l2.8-12.5h1.5l2.8,12.5h-1.9l-0.5-2.7h-2.3l-0.5,2.7H115.3z M118,20.9h1.7l-0.8-4.6
			L118,20.9z"/>
		<path id="path2227" class="st1" d="M123.6,25.2V14.4h-2.1v-1.7h6v1.7h-2.1v10.8H123.6z"/>
		<path id="path2229" class="st1" d="M127.9,25.2V12.7h1.8v12.5H127.9z"/>
		<path id="path2231" class="st1" d="M131,13.9c0.3-0.4,0.6-0.7,1.1-0.9c0.4-0.2,0.9-0.4,1.4-0.4s0.9,0.1,1.3,0.3
			c0.4,0.2,0.8,0.4,1,0.8s0.5,0.7,0.6,1s0.1,0.7,0.1,1.1v6.4c0,0.4,0,0.7-0.1,1s-0.2,0.6-0.4,1c-0.2,0.3-0.6,0.6-1,0.9
			c-0.4,0.2-0.9,0.4-1.4,0.4c-0.3,0-0.6,0-0.9-0.1c-0.3-0.1-0.5-0.2-0.8-0.3s-0.4-0.3-0.6-0.5c-0.2-0.2-0.3-0.4-0.4-0.5
			c-0.2-0.4-0.3-0.7-0.3-0.9c0-0.2-0.1-0.5-0.1-0.8V16c0-0.4,0-0.7,0.1-1C130.6,14.5,130.8,14.2,131,13.9L131,13.9z M134.4,14.9
			c-0.2-0.3-0.6-0.5-1-0.5c-0.2,0-0.4,0.1-0.6,0.2c-0.2,0.1-0.3,0.2-0.4,0.4c-0.1,0.1-0.1,0.3-0.1,0.4c0,0.1,0,0.3,0,0.4v6.4
			c0,0.1,0,0.1,0,0.2s0,0.1,0,0.2s0.1,0.3,0.3,0.6c0.2,0.3,0.5,0.4,0.9,0.4c0.2,0,0.4,0,0.6-0.1c0.2-0.1,0.3-0.2,0.4-0.4
			c0.1-0.1,0.1-0.3,0.2-0.4c0-0.1,0-0.3,0-0.5v-6.4c0-0.2,0-0.4,0-0.5C134.6,15.1,134.5,15,134.4,14.9L134.4,14.9z"/>
		<path id="path2233" class="st1" d="M142.1,25.2l-2.8-7.6v7.6h-1.8V12.7h1.7l2.8,7.6v-7.6h1.8v12.5
			C143.8,25.2,142.1,25.2,142.1,25.2z"/>
		<path id="path2235" class="st1" d="M35.1,42.5L37.9,30h1.5l2.8,12.5h-1.9l-0.5-2.7h-2.3L37,42.5H35.1z M37.8,38.1h1.7l-0.8-4.6
			L37.8,38.1z"/>
		<path id="path2237" class="st1" d="M46.9,42.5l-2.8-7.6v7.6h-1.8V30H44l2.8,7.6V30h1.8v12.5H46.9z"/>
		<path id="path2239" class="st1" d="M52.4,30c0.8,0,1.5,0.3,2.1,0.9s0.9,1.2,0.9,2.1v6.5c0,0.9-0.3,1.7-0.8,2.2s-1.3,0.9-2.2,0.9
			h-2.8V30H52.4z M53.5,39.4v-6.5c0-0.3-0.1-0.6-0.4-0.9c-0.2-0.2-0.6-0.4-0.9-0.4h-0.9v9.2h0.9C53.1,40.8,53.5,40.3,53.5,39.4z"/>
		<path id="path2241" class="st1" d="M57.9,42.5V30h1.8v12.5H57.9z"/>
		<path id="path2243" class="st1" d="M65.1,42.5l-2.8-7.6v7.6h-1.8V30h1.7l2.8,7.6V30h1.8v12.5H65.1z"/>
		<path id="path2245" class="st1" d="M67.3,42.5V30h5.3v1.7H69v3.8h3.1v1.7H69v5.4h-1.7V42.5z"/>
		<path id="path2247" class="st1" d="M72.9,42.5V30H76c0.8,0,1.5,0.3,2.1,0.9S79,32.2,79,33v1.2c0,1.2-0.5,2-1.5,2.7l1.9,5.7h-1.9
			l-1.7-5.4h-1.1v5.4L72.9,42.5z M76.9,35.1c0.1-0.1,0.2-0.3,0.2-0.5s0.1-0.4,0.1-0.6v-1.2c0-0.4-0.1-0.7-0.3-0.9
			c-0.2-0.2-0.5-0.4-0.9-0.4h-1.3v3.9H76C76.4,35.5,76.7,35.4,76.9,35.1L76.9,35.1z"/>
		<path id="path2249" class="st1" d="M79.2,42.5L82,30h1.5l2.8,12.5h-1.9l-0.5-2.7h-2.3l-0.5,2.7H79.2z M81.9,38.1h1.7l-0.8-4.6
			L81.9,38.1z"/>
		<path id="path2251" class="st1" d="M87.8,39.4c0,0.1,0,0.2,0,0.3s0,0.2,0,0.2c0,0.1,0.1,0.3,0.3,0.5c0.2,0.2,0.5,0.4,0.9,0.4
			c0.2,0,0.5,0,0.7-0.1s0.4-0.3,0.5-0.4c0.1-0.1,0.1-0.3,0.1-0.4c0-0.1,0-0.2,0-0.3v-0.2v-0.9v-0.2c0-0.3,0-0.5-0.1-0.6
			c-0.1-0.2-0.3-0.3-0.7-0.5c-0.2-0.1-0.7-0.3-1.3-0.5c-0.6-0.2-1.1-0.6-1.5-1.1s-0.6-1.1-0.6-2V33c0-0.9,0.3-1.6,0.9-2.2
			s1.3-0.9,2.1-0.9c0.9,0,1.6,0.3,2.2,0.9s0.9,1.4,0.9,2.2v0.6h-1.8V33c0-0.1,0-0.2,0-0.2c0-0.1,0-0.1,0-0.2c0-0.1,0-0.1-0.1-0.2
			c0-0.1-0.1-0.2-0.2-0.3c-0.2-0.2-0.5-0.4-0.9-0.4s-0.7,0.1-0.9,0.4c-0.2,0.3-0.3,0.6-0.3,1v0.6v0.2c0,0.2,0,0.4,0.1,0.6
			c0.1,0.1,0.3,0.3,0.6,0.5c0.1,0,0.2,0.1,0.4,0.2c0.2,0.1,0.5,0.2,0.8,0.3c0.6,0.2,1.1,0.6,1.6,1.1s0.7,1.2,0.7,2v1
			c0,0.4,0,0.8-0.1,1.1s-0.3,0.7-0.8,1.3c-0.4,0.5-1.2,0.8-2.2,0.8c-1.1,0-1.9-0.3-2.4-1S86,40.4,86,39.6v-0.4h1.8V39.4z"/>
		<path id="path2253" class="st1" d="M94,42.5V31.6h-2.1V30h6v1.7h-2.1v10.8H94z"/>
		<path id="path2255" class="st1" d="M98.2,42.5V30h3.1c0.8,0,1.5,0.3,2.1,0.9s0.9,1.3,0.9,2.1v1.2c0,1.2-0.5,2-1.5,2.7l1.9,5.7
			h-1.9l-1.7-5.4H100v5.4L98.2,42.5z M102.2,35.1c0.1-0.1,0.2-0.3,0.2-0.5s0.1-0.4,0.1-0.6v-1.2c0-0.4-0.1-0.7-0.3-0.9
			c-0.2-0.2-0.5-0.4-0.9-0.4H100v3.9h1.3C101.6,35.5,101.9,35.4,102.2,35.1L102.2,35.1z"/>
		<path id="path2257" class="st1" d="M110.1,41.2c-0.3,0.4-0.6,0.8-1.1,1c-0.4,0.3-0.9,0.4-1.4,0.4c-0.3,0-0.5,0-0.8-0.1
			c-0.2-0.1-0.5-0.2-0.7-0.3s-0.4-0.3-0.6-0.4c-0.2-0.2-0.3-0.3-0.4-0.5c-0.2-0.3-0.3-0.7-0.4-0.9c0-0.3-0.1-0.5-0.1-0.8V30h1.8v9.6
			c0,0.1,0,0.2,0,0.2c0,0.1,0,0.1,0,0.2c0,0.1,0.1,0.3,0.3,0.5c0.2,0.2,0.4,0.3,0.8,0.3s0.6-0.1,0.8-0.4c0.2-0.3,0.3-0.6,0.3-0.9V30
			h1.8v9.6c0,0.3,0,0.6-0.1,0.9S110.2,40.9,110.1,41.2L110.1,41.2z"/>
		<path id="path2259" class="st1" d="M117.3,39.3c0,0.4,0,0.7-0.1,1c0,0.3-0.2,0.6-0.4,0.9c-0.1,0.2-0.3,0.3-0.4,0.5
			c-0.2,0.1-0.3,0.3-0.6,0.4c-0.2,0.1-0.4,0.2-0.7,0.3c-0.2,0.1-0.5,0.1-0.7,0.1c-0.6,0-1.1-0.1-1.5-0.4c-0.4-0.2-0.8-0.5-1-0.9
			s-0.3-0.7-0.4-1c0-0.3-0.1-0.6-0.1-1v-6.4c0-0.3,0-0.7,0.1-0.9c0.1-0.3,0.2-0.6,0.4-0.9s0.5-0.6,1-0.8c0.4-0.2,0.8-0.4,1.3-0.4
			c0.9,0,1.6,0.3,2.1,0.9c0.6,0.6,0.9,1.3,0.9,2.2v0.7h-1.8v-0.7c0-0.3-0.1-0.6-0.3-0.9c-0.2-0.2-0.5-0.4-0.8-0.4s-0.6,0.1-0.8,0.4
			c-0.2,0.2-0.3,0.5-0.3,0.9v6.9c0,0.2,0.1,0.4,0.3,0.6c0.2,0.2,0.5,0.4,0.9,0.4s0.7-0.1,0.8-0.3s0.2-0.4,0.2-0.5s0-0.3,0-0.4V39
			h1.8L117.3,39.3z"/>
		<path id="path2261" class="st1" d="M119.5,42.5V31.6h-2.1V30h6v1.7h-2.1v10.8H119.5z"/>
		<path id="path2263" class="st1" d="M129.2,41.2c-0.3,0.4-0.6,0.8-1.1,1c-0.4,0.3-0.9,0.4-1.4,0.4c-0.3,0-0.5,0-0.8-0.1
			c-0.2-0.1-0.5-0.2-0.7-0.3s-0.4-0.3-0.6-0.4c-0.2-0.2-0.3-0.3-0.4-0.5c-0.2-0.3-0.3-0.7-0.4-0.9c0-0.3-0.1-0.5-0.1-0.8V30h1.8v9.6
			c0,0.1,0,0.2,0,0.2c0,0.1,0,0.1,0,0.2c0,0.1,0.1,0.3,0.3,0.5c0.2,0.2,0.4,0.3,0.8,0.3s0.6-0.1,0.8-0.4c0.2-0.3,0.3-0.6,0.3-0.9V30
			h1.8v9.6c0,0.3,0,0.6-0.1,0.9S129.3,40.9,129.2,41.2L129.2,41.2z"/>
		<path id="path2265" class="st1" d="M130.4,42.5V30h3.1c0.8,0,1.5,0.3,2.1,0.9s0.9,1.3,0.9,2.1v1.2c0,1.2-0.5,2-1.5,2.7l1.9,5.7
			H135l-1.7-5.4h-1.1v5.4L130.4,42.5z M134.4,35.1c0.1-0.1,0.2-0.3,0.2-0.5s0.1-0.4,0.1-0.6v-1.2c0-0.4-0.1-0.7-0.3-0.9
			c-0.2-0.2-0.5-0.4-0.9-0.4h-1.3v3.9h1.3C133.8,35.5,134.2,35.4,134.4,35.1L134.4,35.1z"/>
		<path id="path2267" class="st1" d="M142.4,40.7v1.8H137V30h5.4v1.6h-3.6v3.7h3.1V37h-3.1v3.7H142.4z"/>
	</g>
</g>
<g id="tw">
	<g class="st4">
		<g>
			<path class="st1" d="M48.5,26H34.1v-1.5h6.4V14.4h-5.7v-1.5h13v1.5h-5.7v10.2h6.3V26H48.5z"/>
		</g>
		<g>
			<path class="st1" d="M64.9,22.7h-6.4v3.9H57v-3.9h-6.4v-1.2H57v-0.8h-5.6v-1.2H57v-0.8h-6.1v-1.2h3.7c-0.2-0.3-0.4-0.5-0.6-0.7
				l1.1-0.6h-4.7V15h5v-2.4H57V15h1.5v-2.4h1.4V15h4.9v1h-4.5l1,0.5c-0.2,0.4-0.4,0.6-0.5,0.8h3.8v1.2h-6.1v0.8h5.7v1.2h-5.7v0.8
				h6.4V22.7z M55.8,24c-1.5,1.1-2.9,1.9-4.3,2.5l-1-1.1c1.3-0.5,2.6-1.3,4.1-2.3L55.8,24z M54.4,13.9l-1.1,0.8
				c-0.5-0.6-1-1-1.5-1.4l1.1-0.8C53.5,12.9,54,13.4,54.4,13.9z M59.8,16h-4.3c0.3,0.4,0.6,0.8,0.9,1.3h2.5
				C59.3,16.9,59.6,16.5,59.8,16z M65.2,25.3l-0.8,1.2c-1.6-0.9-3.1-1.7-4.7-2.2l0.8-1.2C62,23.6,63.5,24.4,65.2,25.3z M63.6,13
				c-0.3,0.4-0.8,1-1.4,1.5l-1.3-0.8c0.5-0.4,1-0.9,1.4-1.4L63.6,13z"/>
		</g>
		<g>
			<path class="st1" d="M71.6,12.5l-0.4,1.1c-0.1,0.4-0.3,0.7-0.4,1.1l-0.4,1v11h-1.5v-8.2c-0.3,0.5-0.7,0.9-1.2,1.5l-0.8-1.5
				c1.3-1.4,2.3-3.5,3.2-6.1L71.6,12.5z M81.3,22.8c0,1.1-0.1,1.9-0.3,2.3s-0.3,0.7-0.5,0.9c-0.2,0.2-0.4,0.3-0.7,0.4
				s-1.1,0.1-2.5,0.1c-1.7,0-2.8,0-3.1-0.1c-0.3-0.1-0.5-0.3-0.7-0.6c-0.1-0.3-0.2-0.6-0.2-1.1V12.3h1.5v4.9H81v1.5h-6.2v5.9
				c0,0.2,0.1,0.3,0.3,0.3C75.3,25,76,25,77.3,25c1.1,0,1.8-0.1,2.1-0.2c0.2-0.1,0.4-1,0.4-2.6L81.3,22.8z"/>
		</g>
		<g>
			<path class="st1" d="M92.5,20.1l-1.1,1.1c-0.8-1-1.7-1.8-2.8-2.5l1.1-1.1C90.6,18.3,91.6,19.1,92.5,20.1z"/>
		</g>
		<g>
			<path class="st1" d="M109.5,15.2l-0.8,1.2c-0.9-0.7-1.5-1.2-1.8-1.4v0.9H103v-0.6c-0.9,0.6-1.7,1.1-2.5,1.5l-0.9-1.2
				c2.1-1,3.7-2.1,4.7-3.5l1.5,0.3c0,0.1-0.1,0.2-0.2,0.3C107,13.4,108.3,14.2,109.5,15.2z M108.5,26.6h-1.4V26h-3.4v0.6h-1.4v-3.3
				c-0.2,1.4-0.7,2.5-1.5,3.4l-1.1-1c0.9-1.1,1.4-2.6,1.4-4.5v-4.7h7.4v4.9h-6c0,0.2,0,0.4,0,0.8h6V26.6z M107,18.5v-0.8h-4.5v0.8
				H107z M107,20.3v-0.7h-4.5v0.7H107z M106.5,14.8c-0.7-0.4-1.3-0.8-1.8-1c-0.3,0.3-0.6,0.6-1.2,1H106.5z M107.1,24.8v-1.3h-3.4
				v1.3H107.1z M113.6,25.3c0,0.4-0.2,0.8-0.5,1s-1,0.3-2.1,0.3c-0.3,0-0.7,0-1,0l-0.5-1.4c0.5,0,1,0.1,1.4,0.1c0.6,0,0.9,0,1-0.1
				s0.2-0.2,0.2-0.4V12.3h1.4L113.6,25.3L113.6,25.3z M111.2,23.6h-1.4V13.5h1.4V23.6z"/>
		</g>
		<g>
			<path class="st1" d="M118.8,22.2c-0.5,1.4-1.1,2.5-1.6,3.3l-1.2-0.9c0.6-0.8,1.1-1.8,1.5-3L118.8,22.2z M123.7,21.1h-3.1v5.5
				h-1.4v-5.5h-3v-1.4h3v-1.3h-2.8v-1.3h1.6c-0.2-0.5-0.4-1.2-0.7-1.9l1-0.5h-1.9v-1.3h2.6c-0.1-0.3-0.3-0.6-0.5-1l1.6-0.3
				c0.3,0.6,0.5,1,0.6,1.3h2.8v1.3h-1.8l1,0.6c-0.3,0.7-0.5,1.3-0.8,1.8h1.6v1.3h-2.8v1.3h3.1L123.7,21.1L123.7,21.1z M121.3,14.8
				h-2.7c0.4,0.8,0.7,1.6,0.9,2.4h0.9C120.7,16.4,121,15.6,121.3,14.8z M123.4,23.7l-1.2,0.7c-0.3-0.9-0.6-1.7-1-2.5l1.2-0.6
				C122.9,22.3,123.2,23,123.4,23.7z M130.4,18.6h-1.5v8h-1.4v-8h-1.7c0,3.7-0.7,6.4-1.9,8l-1.2-1c1.1-1.4,1.6-3.6,1.6-6.6v-5.6
				c1.8-0.3,3.4-0.7,4.6-1.2l1,1.2c-1.2,0.5-2.6,0.9-4.2,1.2v2.5h4.6L130.4,18.6L130.4,18.6z"/>
		</g>
	</g>
	<g class="st4">
		<g>
			<path class="st1" d="M48.4,45.1l-0.8,1.2c-1.6-0.7-3-1.5-4.1-2.3c-1.4,0.9-3.1,1.7-5.1,2.4l-0.8-1.3c1.9-0.6,3.4-1.3,4.7-2.1
				c-1.1-1.1-2.1-2.5-3.1-4.3c-0.6,3-2,5.5-4.2,7.5l-1-1.1c1.4-1.3,2.4-2.7,3-4.1s1-3.9,1.2-7.3h-3v-1.4h11c-0.4,1.5-0.8,3-1.4,4.4
				h2.6c-0.5,2.8-1.4,5-2.9,6.5C45.7,43.8,46.9,44.5,48.4,45.1z M44.4,33.6h-4.5c0,1.1-0.1,2-0.3,3h3.8C43.7,35.8,44,34.8,44.4,33.6
				z M45.8,38.1h-5.2c0.9,1.7,1.9,3.1,3,4.1C44.5,41.2,45.3,39.8,45.8,38.1z"/>
		</g>
		<g>
			<path class="st1" d="M65.1,42.7l-0.8,1.2c-0.8-0.3-1.7-0.8-2.5-1.5v1h-3.3v1.3h5.9V46H51.2v-1.3H57v-1.3h-3.2v-1
				c-0.9,0.7-1.7,1.2-2.5,1.5l-0.8-1.2c1.4-0.5,2.5-1.2,3.2-2h-3.1v-1.3h2.7v-5H51v-1.3h2.3V32h1.4v1.1h6V32h1.5v1.1h2.3v1.3h-2.3v5
				h2.7v1.3h-3C62.6,41.5,63.7,42.1,65.1,42.7z M61.3,42.1c-0.7-0.6-1.2-1.1-1.4-1.5h-4.5c-0.4,0.6-0.8,1.1-1.2,1.5H57v-1h1.5v1
				H61.3z M60.7,35.2v-0.9h-6v0.9H60.7z M60.7,37.3v-0.9h-6v0.9H60.7z M60.7,39.4v-1h-6v1H60.7z"/>
		</g>
		<g>
			<path class="st1" d="M71.8,34H70c-0.3,1.4-0.5,2.5-0.8,3.3h2.6v7.3h-1.4V44h-0.9v1.3h-1.3V40c-0.2,0.3-0.4,0.7-0.7,1l-0.7-1.4
				c0.8-1.2,1.4-3.1,1.8-5.6H67v-1.4h4.9L71.8,34L71.8,34z M70.4,42.7v-4.1h-0.9v4.1H70.4z M81.4,44.9L81,46.2c-0.9,0-1.9,0-2.9,0
				s-1.8-0.1-2.6-0.4c-0.7-0.3-1.3-0.6-1.8-1.1c-0.4,0.8-0.8,1.4-1.1,1.8l-1.1-0.8c1-1.2,1.6-2.9,1.9-4.9l1.3,0.3
				c-0.1,0.7-0.2,1.5-0.5,2.4c0.5,0.5,1.1,0.9,1.7,1v-4.4h-3.4v-1.3h8.7c-0.3,1.2-0.5,2.1-0.7,2.7L79,41.2c0.1-0.3,0.2-0.6,0.3-1
				h-2.2v1.7H80v1.2h-2.8v1.8C78.7,44.9,80.1,45,81.4,44.9z M76.5,35.9l-0.7,0.9c-0.3-0.3-0.6-0.6-0.7-0.7v2.4h-1.3v-2.2
				c-0.4,0.6-0.7,1.1-1.1,1.5l-0.9-1c0.9-0.7,1.5-1.4,1.9-2.1h-1.2v-1.2h1.4v-1.3H75v1.3h1.1v1.2H75v0.1
				C75.7,35.2,76.2,35.6,76.5,35.9z M81.3,36.7l-0.8,1c-0.4-0.5-0.8-1-1.2-1.3v2.1H78v-2c-0.5,0.7-1,1.2-1.4,1.6l-0.9-0.9
				c0.9-0.7,1.7-1.6,2.1-2.5h-1.1v-1.2H78v-1.3h1.3v1.3H81v1.2h-1.7V35C80,35.4,80.7,36,81.3,36.7z"/>
		</g>
		<g>
			<path class="st1" d="M97.8,44.7l-0.4,1.4c-0.5,0-1.1,0-1.9,0c-3.4,0-5.6-0.1-6.6-0.4c-1-0.2-1.9-0.7-2.7-1.5
				c-0.7,0.9-1.3,1.6-1.9,2l-1.1-1.1c0.9-0.6,1.5-1.3,2-2.1c-0.6-0.9-1.1-2-1.5-3.2l1.3-0.4c0.2,0.8,0.5,1.5,0.9,2.2
				c0.3-1,0.5-2,0.5-3h-2.7v-1.4c1.1-1.3,1.9-2.4,2.4-3.5h-2.7v-1.4h4.3v1.4c-0.5,1-1.2,2.2-2.2,3.5h2.3c0,2.5-0.3,4.4-1,5.9
				c1,0.9,2.2,1.4,3.6,1.5s3,0.1,4.8,0.1C96.1,44.8,97,44.7,97.8,44.7z M97.6,43h-4.4v1.3h-1.4V43h-3.9v-1.2h3.9v-1h-3.3v-1.2h3.3
				v-1h-3v-1.1h3v-1.1h-3.9v-1.1h3.9v-1h-3V33h3v-1h1.4v1h3.5v2.2h0.9v1.1h-0.9v2.2h-3.5v1H97v1.2h-3.8v1h4.4V43z M95.1,35.2v-1h-2
				v1H95.1z M95.1,37.5v-1.1h-2v1.1H95.1z"/>
		</g>
		<g>
			<path class="st1" d="M105.5,34.8h-5.7v-1.3h2.2c-0.2-0.4-0.4-0.8-0.6-1.2l1.5-0.4c0.2,0.4,0.5,0.9,0.7,1.6h2L105.5,34.8
				L105.5,34.8z M105.1,37.2h-4.9v-1.3h4.9V37.2z M105.1,39.6h-4.9v-1.3h4.9V39.6z M105.1,45.9h-1.4v-0.7h-2.1v1h-1.4v-5.7h4.9V45.9
				z M103.7,43.9V42h-2.1v1.9H103.7z M114.2,45.1l-0.7,1.3c-1.4-0.4-2.6-1.1-3.8-1.9c-1,0.8-2.2,1.4-3.6,2l-0.8-1.2
				c1.3-0.4,2.5-1,3.3-1.7c-0.9-1-1.6-2.1-2.1-3.4h-0.7v-1.3h7.1v1.3c-0.7,1.4-1.4,2.5-2.2,3.4C111.8,44.2,112.9,44.7,114.2,45.1z
				 M114,37.8h-2.1c-0.3,0-0.5-0.1-0.7-0.3s-0.3-0.5-0.3-0.8v-2.9h-2.2v1c0,0.7-0.2,1.4-0.5,2.1s-0.9,1.2-1.5,1.5l-1-1
				c1.1-0.6,1.6-1.6,1.6-3v-1.9h5.1v3.6c0,0.1,0.1,0.2,0.2,0.3s0.2,0.1,0.3,0.1h1.3v1.3H114z M111.5,40.1h-3.3c0.5,1,1,1.8,1.6,2.4
				C110.4,42,111,41.2,111.5,40.1z"/>
		</g>
	</g>
</g>
</svg>
