<?xml version="1.0" encoding="utf-8"?>
<!-- Generator: Adobe Illustrator 24.3.0, SVG Export Plug-In . SVG Version: 6.00 Build 0)  -->
<svg version="1.1" id="圖層_1" xmlns="http://www.w3.org/2000/svg" xmlns:xlink="http://www.w3.org/1999/xlink" x="0px" y="0px"
	 viewBox="0 0 148.1 148.3" style="enable-background:new 0 0 148.1 148.3;" xml:space="preserve">
<style type="text/css">
	.st0{fill-rule:evenodd;clip-rule:evenodd;fill:#183668;}
	.st1{fill:#FFFFFF;}
	.st2{display:none;}
	.st3{display:inline;}
	.st4{enable-background:new    ;}
</style>
<g id="圖層_4">
	<g id="rect8528-63-2-4-3-6-0-4-3-6-3-7-4-9-4">
		<path class="st0" d="M0.9,0h146.4c0.5,0,0.8,0.4,0.8,0.8v146.7c0,0.5-0.4,0.8-0.8,0.8H0.9c-0.5,0-0.8-0.4-0.8-0.8V0.9
			C0.1,0.4,0.5,0,0.9,0L0.9,0z"/>
	</g>
	<g id="text6075-0-6-9-2-5-9-1-4-7-6-6">
		<g id="path2675">
			<path class="st1" d="M17.7,43V17.5l-4.3,3.2v-4.6l4.3-3.1h4.2v29.9L17.7,43L17.7,43z"/>
		</g>
		<g id="path2677">
			<path class="st1" d="M28.4,20.6h-3.8v-7.5h12.8V17l-7,26h-4.6l7.3-26h-4.7C28.4,17,28.4,20.6,28.4,20.6z"/>
		</g>
	</g>
	<g id="path8491">
		<path class="st1" d="M57.7,109.8c-10.6,0-19.3-8.7-19.3-19.3S47,71.2,57.6,71.2c10.7,0,19.4,8.7,19.4,19.3S68.3,109.8,57.7,109.8z
			 M57.6,75.2c-8.4,0-15.2,6.9-15.2,15.3s6.9,15.3,15.3,15.3S73,98.9,73,90.5S66.1,75.2,57.6,75.2z"/>
	</g>
	<g id="path8491-5">
		<path class="st1" d="M75.2,97c-10.6,0-19.3-8.7-19.3-19.3c0-10.6,8.7-19.3,19.3-19.3c10.6,0,19.3,8.7,19.3,19.3
			C94.5,88.3,85.8,97,75.2,97z M75.2,62.4c-8.4,0-15.3,6.9-15.3,15.3S66.8,93,75.2,93s15.3-6.9,15.3-15.3S83.6,62.4,75.2,62.4z"/>
	</g>
	<g id="path8491-6">
		<path class="st1" d="M85.9,130.2c-10.6,0-19.3-8.7-19.3-19.3c0-10.6,8.7-19.3,19.3-19.3c10.6,0,19.3,8.7,19.3,19.3
			C105.2,121.5,96.5,130.2,85.9,130.2z M85.9,95.6c-8.4,0-15.3,6.9-15.3,15.3s6.9,15.3,15.3,15.3s15.3-6.9,15.3-15.3
			S94.3,95.6,85.9,95.6z"/>
	</g>
	<g id="path8491-0">
		<path class="st1" d="M92.6,109.6c-10.6,0-19.3-8.7-19.3-19.3S82,71,92.6,71c10.6,0,19.3,8.7,19.3,19.3S103.2,109.6,92.6,109.6z
			 M92.6,75c-8.4,0-15.3,6.9-15.3,15.3s6.9,15.3,15.3,15.3s15.3-6.9,15.3-15.3S101,75,92.6,75z"/>
	</g>
	<g id="path8491-52">
		<path class="st1" d="M64.3,130.3c-10.6,0-19.3-8.7-19.3-19.3s8.7-19.3,19.3-19.3s19.3,8.7,19.3,19.3S74.9,130.3,64.3,130.3z
			 M64.3,95.7c-8.4,0-15.3,6.9-15.3,15.3s6.9,15.3,15.3,15.3s15.3-6.9,15.3-15.3S72.7,95.7,64.3,95.7z"/>
	</g>
</g>
<g id="en" class="st2">
	<g id="text6065-3-2-9-6-6-5-5-2-9-7-0" class="st3">
		<path id="path2628" class="st1" d="M48.7,25.8V13.3h2.9l0,0c0.4,0,0.7,0.1,1.1,0.2c0.3,0.1,0.6,0.3,0.9,0.6s0.5,0.5,0.6,0.9
			c0.2,0.3,0.2,0.6,0.3,1v1.8V18c0,0.4-0.1,0.8-0.2,1.2c-0.1,0.3-0.4,0.7-0.6,0.9s-0.6,0.5-0.9,0.6c-0.3,0.1-0.7,0.2-1.1,0.2h-0.2
			h-0.9v4.9C50.6,25.8,48.7,25.8,48.7,25.8z M52.5,18.8c0.1-0.1,0.2-0.2,0.2-0.4c0-0.1,0.1-0.3,0.1-0.5v-1.8c0-0.3-0.1-0.6-0.3-0.9
			c-0.2-0.2-0.5-0.4-0.9-0.4h-1.1V19h0.9c0.2,0,0.4,0,0.6-0.1C52.2,19,52.3,18.9,52.5,18.8L52.5,18.8z"/>
		<path id="path2630" class="st1" d="M54.6,25.8l2.8-12.5H59l2.8,12.5h-1.9l-0.5-2.7H57l-0.5,2.7H54.6z M57.3,21.4H59l-0.8-4.6
			L57.3,21.4z"/>
		<path id="path2632" class="st1" d="M62.7,25.8V13.3h3.1c0.8,0,1.5,0.3,2.1,0.9c0.6,0.6,0.9,1.3,0.9,2.1v1.2c0,1.2-0.5,2-1.5,2.7
			l1.9,5.7h-1.9l-1.7-5.4h-1.1v5.4L62.7,25.8z M66.6,18.4c0.1-0.1,0.2-0.3,0.2-0.5s0.1-0.4,0.1-0.6v-1.2c0-0.4-0.1-0.7-0.3-0.9
			c-0.2-0.2-0.5-0.4-0.9-0.4h-1.3v3.9h1.3C66.1,18.8,66.4,18.7,66.6,18.4L66.6,18.4z"/>
		<path id="path2634" class="st1" d="M71.2,25.8V14.9h-2.1v-1.7h6v1.7H73v10.8L71.2,25.8L71.2,25.8z"/>
		<path id="path2636" class="st1" d="M80.4,25.8l-2.8-7.6v7.6h-1.8V13.3h1.7l2.8,7.6v-7.6h1.8v12.5H80.4z"/>
		<path id="path2638" class="st1" d="M88.5,24v1.8h-5.4V13.3h5.4v1.6h-3.6v3.7H88v1.7h-3.1V24H88.5z"/>
		<path id="path2640" class="st1" d="M89.3,25.8V13.3h3.1c0.8,0,1.5,0.3,2.1,0.9c0.6,0.6,0.9,1.3,0.9,2.1v1.2c0,1.2-0.5,2-1.5,2.7
			l1.9,5.7h-1.9l-1.7-5.4h-1.1v5.4L89.3,25.8z M93.3,18.4c0.1-0.1,0.2-0.3,0.2-0.5s0.1-0.4,0.1-0.6v-1.2c0-0.4-0.1-0.7-0.3-0.9
			c-0.2-0.2-0.5-0.4-0.9-0.4h-1.3v3.9h1.3C92.7,18.8,93,18.7,93.3,18.4L93.3,18.4z"/>
		<path id="path2642" class="st1" d="M97.8,22.7c0,0.1,0,0.2,0,0.3s0,0.2,0,0.2c0,0.1,0.1,0.3,0.3,0.5c0.2,0.2,0.5,0.4,0.9,0.4
			c0.2,0,0.5,0,0.7-0.1s0.4-0.3,0.5-0.4s0.1-0.3,0.1-0.4s0-0.2,0-0.3v-0.2v-0.9v-0.2c0-0.3,0-0.5-0.1-0.6c-0.1-0.2-0.3-0.3-0.7-0.5
			c-0.2-0.1-0.7-0.3-1.3-0.5c-0.6-0.2-1.1-0.6-1.5-1.1s-0.6-1.1-0.6-2v-0.6c0-0.9,0.3-1.6,0.9-2.2c0.6-0.6,1.3-0.9,2.1-0.9
			c0.9,0,1.6,0.3,2.2,0.9c0.6,0.6,0.9,1.4,0.9,2.2v0.6h-1.8v-0.6c0-0.1,0-0.2,0-0.2c0-0.1,0-0.1,0-0.2s0-0.1-0.1-0.2
			s-0.1-0.2-0.2-0.3c-0.2-0.2-0.5-0.4-0.9-0.4s-0.7,0.1-0.9,0.4c-0.2,0.3-0.3,0.6-0.3,1V17l0,0c0,0.2,0,0.4,0.1,0.6
			c0.1,0.1,0.3,0.3,0.6,0.5c0.1,0,0.2,0.1,0.4,0.2c0.2,0.1,0.5,0.2,0.8,0.3c0.6,0.2,1.1,0.6,1.6,1.1s0.7,1.2,0.7,2v1
			c0,0.4,0,0.8-0.1,1.1c-0.1,0.3-0.3,0.7-0.8,1.3c-0.4,0.5-1.2,0.8-2.2,0.8c-1.1,0-1.9-0.3-2.4-1S96,23.5,96,22.7v-0.4h1.8V22.7z"/>
		<path id="path2644" class="st1" d="M103.2,25.8V13.3h1.8v5.3h2.3v-5.3h1.8v12.5h-1.8v-5.6H105v5.6H103.2z"/>
		<path id="path2646" class="st1" d="M110.8,25.8V13.3h1.8v12.5H110.8z"/>
		<path id="path2648" class="st1" d="M114.1,25.8V13.3h2.9l0,0c0.4,0,0.7,0.1,1.1,0.2c0.3,0.1,0.6,0.3,0.9,0.6s0.5,0.5,0.6,0.9
			c0.2,0.3,0.2,0.6,0.3,1v1.8V18c0,0.4-0.1,0.8-0.2,1.2c-0.1,0.3-0.4,0.7-0.6,0.9s-0.6,0.5-0.9,0.6s-0.7,0.2-1.1,0.2h-0.2H116v4.9
			C116,25.8,114.1,25.8,114.1,25.8z M117.9,18.8c0.1-0.1,0.2-0.2,0.2-0.4c0-0.1,0.1-0.3,0.1-0.5v-1.8c0-0.3-0.1-0.6-0.3-0.9
			c-0.2-0.2-0.5-0.4-0.9-0.4h-1.1V19h0.9c0.2,0,0.4,0,0.6-0.1C117.6,19,117.7,18.9,117.9,18.8L117.9,18.8z"/>
		<path id="path2650" class="st1" d="M122.6,22.7c0,0.1,0,0.2,0,0.3s0,0.2,0,0.2c0,0.1,0.1,0.3,0.3,0.5c0.2,0.2,0.5,0.4,0.9,0.4
			c0.2,0,0.5,0,0.7-0.1s0.4-0.3,0.5-0.4s0.1-0.3,0.1-0.4s0-0.2,0-0.3v-0.2v-0.9v-0.2c0-0.3,0-0.5-0.1-0.6c-0.1-0.2-0.3-0.3-0.7-0.5
			c-0.2-0.1-0.7-0.3-1.3-0.5c-0.6-0.2-1.1-0.6-1.5-1.1s-0.6-1.1-0.6-2v-0.6c0-0.9,0.3-1.6,0.9-2.2c0.6-0.6,1.3-0.9,2.1-0.9
			c0.9,0,1.6,0.3,2.2,0.9c0.6,0.6,0.9,1.4,0.9,2.2v0.6h-1.8v-0.6c0-0.1,0-0.2,0-0.2c0-0.1,0-0.1,0-0.2s0-0.1-0.1-0.2
			s-0.1-0.2-0.2-0.3c-0.2-0.2-0.5-0.4-0.9-0.4s-0.7,0.1-0.9,0.4c-0.2,0.3-0.3,0.6-0.3,1V17l0,0c0,0.2,0,0.4,0.1,0.6
			c0.1,0.1,0.3,0.3,0.6,0.5c0.1,0,0.2,0.1,0.4,0.2c0.2,0.1,0.5,0.2,0.8,0.3c0.6,0.2,1.1,0.6,1.6,1.1s0.7,1.2,0.7,2v1
			c0,0.4,0,0.8-0.1,1.1c-0.1,0.3-0.3,0.7-0.8,1.3c-0.4,0.5-1.2,0.8-2.2,0.8c-1.1,0-1.9-0.3-2.4-1s-0.7-1.4-0.7-2.2v-0.4h1.8V22.7z"
			/>
		<path id="path2652" class="st1" d="M48.7,43V30.5H54v1.7h-3.6V36h3.1v1.7h-3.1V43H48.7z"/>
		<path id="path2654" class="st1" d="M54.9,31.7c0.3-0.4,0.6-0.7,1.1-0.9c0.4-0.2,0.9-0.4,1.4-0.4s0.9,0.1,1.3,0.3
			c0.4,0.2,0.8,0.4,1,0.8c0.3,0.3,0.5,0.7,0.6,1s0.1,0.7,0.1,1.1V40c0,0.4,0,0.7-0.1,1s-0.2,0.6-0.4,1c-0.2,0.3-0.6,0.6-1,0.9
			c-0.4,0.2-0.9,0.4-1.4,0.4c-0.3,0-0.6,0-0.9-0.1c-0.3-0.1-0.5-0.2-0.8-0.3c-0.2-0.1-0.4-0.3-0.6-0.5c-0.2-0.2-0.3-0.4-0.4-0.5
			c-0.2-0.4-0.3-0.7-0.3-0.9s-0.1-0.5-0.1-0.8v-6.4c0-0.4,0-0.7,0.1-1C54.6,32.3,54.7,32,54.9,31.7L54.9,31.7z M58.4,32.7
			c-0.2-0.3-0.6-0.5-1-0.5c-0.2,0-0.4,0.1-0.6,0.2c-0.2,0.1-0.3,0.2-0.4,0.4c-0.1,0.1-0.1,0.3-0.1,0.4c0,0.1,0,0.3,0,0.4V40
			c0,0.1,0,0.1,0,0.2c0,0.1,0,0.1,0,0.2c0,0.1,0.1,0.3,0.3,0.6s0.5,0.4,0.9,0.4c0.2,0,0.4,0,0.6-0.1c0.2-0.1,0.3-0.2,0.4-0.4
			c0.1-0.1,0.1-0.3,0.2-0.4s0-0.3,0-0.5v-6.4c0-0.2,0-0.4,0-0.5C58.5,32.9,58.5,32.8,58.4,32.7L58.4,32.7z"/>
		<path id="path2656" class="st1" d="M61.9,43V30.5H65c0.8,0,1.5,0.3,2.1,0.9s0.9,1.3,0.9,2.1v1.2c0,1.2-0.5,2-1.5,2.7l1.9,5.7h-1.9
			l-1.7-5.4h-1.1V43H61.9z M65.9,35.7c0.1-0.1,0.2-0.3,0.2-0.5s0.1-0.4,0.1-0.6v-1.2c0-0.4-0.1-0.7-0.3-0.9
			c-0.2-0.2-0.5-0.4-0.9-0.4h-1.3V36H65C65.3,36.1,65.6,36,65.9,35.7L65.9,35.7z"/>
		<path id="path2658" class="st1" d="M72.5,43V32.2h-2.1v-1.7h6v1.7h-2.1V43H72.5z"/>
		<path id="path2660" class="st1" d="M77.1,43V30.5h1.8v5.3h2.3v-5.3H83V43h-1.8v-5.6h-2.3V43H77.1z"/>
		<path id="path2662" class="st1" d="M90,41.2V43h-5.4V30.5H90v1.6h-3.6v3.7h3.1v1.7h-3.1v3.7H90z"/>
		<path id="path2664" class="st1" d="M98.2,41.7c-0.3,0.4-0.7,0.8-1.1,1s-0.9,0.4-1.5,0.4c-0.5,0-0.9-0.1-1.4-0.3
			c-0.4-0.2-0.8-0.5-1-0.8s-0.4-0.7-0.5-1s-0.1-0.7-0.1-1.1v-6.3c0-0.3,0-0.6,0.1-0.9c0.1-0.3,0.3-0.8,0.7-1.3
			c0.4-0.6,1.1-0.9,2.3-0.9c0.5,0,1,0.1,1.4,0.4s0.8,0.5,1,0.9c0.2,0.3,0.4,0.7,0.4,1c0.1,0.3,0.1,0.6,0.1,1v0.5h-1.8v-0.5
			c0-0.1,0-0.2,0-0.3s0-0.2,0-0.2c0-0.1-0.1-0.3-0.3-0.5c-0.2-0.2-0.5-0.4-0.9-0.4c-0.5,0-0.8,0.1-1,0.4c-0.1,0.3-0.2,0.5-0.3,0.6
			c0,0.1,0,0.3,0,0.4v6.3c0,0.1,0,0.2,0,0.3s0,0.2,0,0.2c0,0.1,0.1,0.3,0.3,0.6c0.2,0.3,0.5,0.4,1,0.4s0.8-0.1,0.9-0.4
			c0.1-0.1,0.1-0.2,0.2-0.3c0-0.1,0.1-0.2,0.1-0.3s0-0.1,0-0.2c0-0.1,0-0.2,0-0.3v-2.2h-1.4v-1.6h3.2v3.8c0,0.3,0,0.5,0,0.7
			s0,0.3-0.1,0.5c0,0.1-0.1,0.3-0.1,0.4C98.4,41.5,98.3,41.6,98.2,41.7L98.2,41.7z"/>
		<path id="path2666" class="st1" d="M100.7,31.7c0.3-0.4,0.6-0.7,1.1-0.9c0.4-0.2,0.9-0.4,1.4-0.4s0.9,0.1,1.3,0.3
			c0.4,0.2,0.8,0.4,1,0.8c0.3,0.3,0.5,0.7,0.6,1s0.1,0.7,0.1,1.1V40c0,0.4,0,0.7-0.1,1s-0.2,0.6-0.4,1c-0.2,0.3-0.6,0.6-1,0.9
			c-0.4,0.2-0.9,0.4-1.4,0.4c-0.3,0-0.6,0-0.9-0.1s-0.5-0.2-0.8-0.3c-0.2-0.1-0.4-0.3-0.6-0.5s-0.3-0.4-0.4-0.5
			c-0.2-0.4-0.3-0.7-0.3-0.9s-0.1-0.5-0.1-0.8v-6.4c0-0.4,0-0.7,0.1-1C100.3,32.3,100.5,32,100.7,31.7L100.7,31.7z M104.2,32.7
			c-0.2-0.3-0.6-0.5-1-0.5c-0.2,0-0.4,0.1-0.6,0.2c-0.2,0.1-0.3,0.2-0.4,0.4c-0.1,0.1-0.1,0.3-0.1,0.4c0,0.1,0,0.3,0,0.4V40
			c0,0.1,0,0.1,0,0.2c0,0.1,0,0.1,0,0.2c0,0.1,0.1,0.3,0.3,0.6c0.2,0.3,0.5,0.4,0.9,0.4c0.2,0,0.4,0,0.6-0.1s0.3-0.2,0.4-0.4
			c0.1-0.1,0.1-0.3,0.2-0.4c0-0.1,0-0.3,0-0.5v-6.4c0-0.2,0-0.4,0-0.5C104.3,32.9,104.3,32.8,104.2,32.7L104.2,32.7z"/>
		<path id="path2668" class="st1" d="M106.9,43l2.8-12.5h1.5L114,43h-1.9l-0.5-2.7h-2.3l-0.5,2.7H106.9z M109.6,38.7h1.7l-0.8-4.6
			L109.6,38.7z"/>
		<path id="path2670" class="st1" d="M120.3,43H115V30.5h1.8v10.7h3.5V43z"/>
		<path id="path2672" class="st1" d="M122.1,39.9c0,0.1,0,0.2,0,0.3s0,0.2,0,0.2c0,0.1,0.1,0.3,0.3,0.5c0.2,0.2,0.5,0.4,0.9,0.4
			c0.2,0,0.5,0,0.7-0.1s0.4-0.3,0.5-0.4c0.1-0.1,0.1-0.3,0.1-0.4c0-0.1,0-0.2,0-0.3v-0.2V39v-0.2c0-0.3,0-0.5-0.1-0.6
			c-0.1-0.2-0.3-0.3-0.7-0.5c-0.2-0.1-0.7-0.3-1.3-0.5s-1.1-0.6-1.5-1.1s-0.6-1.1-0.6-2v-0.6c0-0.9,0.3-1.6,0.9-2.2s1.3-0.9,2.1-0.9
			c0.9,0,1.6,0.3,2.2,0.9s0.9,1.4,0.9,2.2v0.6h-1.8v-0.6c0-0.1,0-0.2,0-0.2c0-0.1,0-0.1,0-0.2c0-0.1,0-0.1-0.1-0.2
			c0-0.1-0.1-0.2-0.2-0.3c-0.2-0.2-0.5-0.4-0.9-0.4s-0.7,0.1-0.9,0.4c-0.2,0.3-0.3,0.6-0.3,1v0.6v0.2c0,0.2,0,0.4,0.1,0.6
			c0.1,0.1,0.3,0.3,0.6,0.5c0.1,0,0.2,0.1,0.4,0.2c0.2,0.1,0.5,0.2,0.8,0.3c0.6,0.2,1.1,0.6,1.6,1.1s0.7,1.2,0.7,2v1
			c0,0.4,0,0.8-0.1,1.1s-0.3,0.7-0.8,1.3c-0.4,0.5-1.2,0.8-2.2,0.8c-1.1,0-1.9-0.3-2.4-1s-0.7-1.4-0.7-2.2v-0.4h1.8V39.9z"/>
	</g>
</g>
<g id="tw">
	<g class="st4">
		<g>
			<path class="st1" d="M54.3,14.8c-2.7,2.8-6.5,4.7-11.6,5.7L42,19.2c2.4-0.4,4.4-0.9,5.8-1.5c-0.5-0.6-1.2-1.2-2.3-1.9
				c-1,0.5-1.9,0.9-2.5,1.2l-0.9-1.1c2.3-0.9,4.2-2.1,5.7-3.6l1.4,0.5c-0.2,0.2-0.4,0.5-0.7,0.8h5.8V14.8z M56.1,20.7
				c0,0.2-0.3,0.6-1,1.4S53.7,23.5,53,24c-0.8,0.5-1.7,1-2.6,1.4s-2.1,0.7-3.3,1c-1.2,0.2-2.5,0.3-3.8,0.4l-0.6-1.4
				c2.7,0.1,5.1-0.3,7.1-1.2c-0.5-0.6-1.3-1.3-2.3-2.1c-1.2,0.6-2.3,1-3.4,1.3l-0.9-1.2c3.1-0.8,5.7-2.2,7.7-4.3l1.4,0.5
				c-0.2,0.3-0.5,0.6-0.9,0.9h4.7C56.1,19.3,56.1,20.7,56.1,20.7z M52.3,14.8H47c-0.1,0-0.1,0.1-0.3,0.2c0.9,0.7,1.7,1.3,2.4,2
				C50.4,16.3,51.4,15.6,52.3,14.8z M54.5,20.7h-4.7c-0.1,0.1-0.5,0.3-1.1,0.8c0.8,0.6,1.6,1.3,2.4,2.1
				C52.6,22.7,53.7,21.7,54.5,20.7z"/>
		</g>
		<g>
			<path class="st1" d="M72.6,22.5c0,1.2-0.1,2.1-0.3,2.7c-0.2,0.6-0.5,1-0.8,1.1c-0.4,0.2-1.1,0.3-2.1,0.3c-0.7,0-1.2,0-1.6-0.1
				c-0.4,0-0.7-0.2-0.9-0.4c-0.2-0.2-0.4-0.5-0.4-0.9v-6.6H64c-0.1,2.2-0.5,3.9-1.2,5.1s-1.9,2.1-3.5,3l-1.1-1.2
				c1.5-0.6,2.5-1.4,3.2-2.4c0.6-1,1-2.5,1.1-4.5h-3.8v-1.4h13.8v1.4H68v6c0,0.2,0.1,0.3,0.2,0.3s0.6,0.1,1.3,0.1c0.6,0,1,0,1.1-0.1
				c0.2-0.1,0.3-0.2,0.3-0.3c0-0.2,0.1-0.5,0.2-1s0.1-1.1,0.1-1.9L72.6,22.5z M71.4,14.2H59.6v-1.4h11.8V14.2z"/>
		</g>
		<g>
			<path class="st1" d="M81.8,21.2H79v0.4c1.1,0.7,2,1.4,2.6,2.1l-0.9,1.1c-0.6-0.6-1.2-1.2-1.8-1.7v3.6h-1.3v-3.5
				c-0.7,1-1.4,1.8-2.2,2.4l-0.9-1.1c1.3-1,2.2-2,2.8-3.3h-2.6v-1.3h2.9v-1.1h-2.3v-6.1h5.9v6.1H79v1.1h2.8V21.2z M77.7,15v-1.1h-1
				V15H77.7z M77.7,17.5v-1.2h-1v1.2H77.7z M80,15v-1.1h-1V15H80z M80,17.5v-1.2h-1v1.2H80z M88.9,20.7c0,0.2-0.3,0.7-0.8,1.4
				s-1,1.3-1.4,1.7s-0.9,0.8-1.4,1.2c-0.5,0.4-1.1,0.7-1.6,1c-0.6,0.3-1.2,0.6-1.8,0.8L81,25.6c1.6-0.5,2.8-1.2,3.8-1.9
				c-0.4-0.4-0.8-0.8-1.3-1.2l-1.1,0.8l-1-1c1.9-1.2,3.2-2.5,4-3.9l1.2,0.5c-0.1,0.2-0.2,0.4-0.3,0.6H89L88.9,20.7L88.9,20.7z
				 M88.3,14.7c0,0.1-0.2,0.5-0.7,1.1c-0.5,0.6-0.9,1.1-1.3,1.5s-0.8,0.7-1.2,1c-0.4,0.3-0.9,0.6-1.3,0.9s-0.9,0.5-1.4,0.8l-0.9-1.2
				c0.8-0.3,1.7-0.8,2.7-1.6c-0.3-0.4-0.8-0.7-1.3-1.2c-0.1,0.1-0.3,0.2-0.5,0.4l-0.9-1.1c1.4-1,2.4-2,3.1-3.2l1.3,0.5
				c-0.1,0.3-0.3,0.5-0.4,0.7h2.8C88.3,13.3,88.3,14.7,88.3,14.7z M86.7,14.7h-2.2c-0.1,0.1-0.3,0.3-0.5,0.5c0.5,0.4,1,0.8,1.3,1.1
				C85.7,16,86.2,15.4,86.7,14.7z M87.4,20.7h-2c-0.3,0.3-0.5,0.6-0.8,0.8c0.5,0.4,1,0.9,1.3,1.3C86.4,22.2,86.9,21.5,87.4,20.7z"/>
		</g>
		<g>
			<path class="st1" d="M95.6,12.6c-0.2,0.5-0.4,1.2-0.8,2l-0.5,1.1v10.9h-1.5v-8.3c-0.4,0.6-0.8,1.1-1.1,1.4L91,18.3
				c1.2-1.6,2.2-3.6,3.1-6L95.6,12.6z M105.4,22.7h-4.5v4h-1.5v-4h-4.6v-1.4h4.6v-2h-4v-1.4h4v-5.5h1.5v5.5h3.9v1.4h-3.9v2h4.5V22.7
				z M98.5,16.8l-1.4,0.5c-0.4-1.4-0.9-2.6-1.5-3.7L97,13C97.5,14.1,98,15.3,98.5,16.8z M104.8,13.6c-0.4,1.3-1,2.5-1.7,3.8
				l-1.3-0.7c0.5-0.9,1.1-2.1,1.6-3.6L104.8,13.6z"/>
		</g>
		<g>
			<path class="st1" d="M114.1,16.9h-4.7v9.7H108v-14h6.1V16.9z M112.7,14.3v-0.6h-3.2v0.6H112.7z M112.7,15.9v-0.6h-3.2v0.6H112.7z
				 M114.5,21.3l-0.9,0.5c-0.1-0.1-0.1-0.2-0.2-0.3c-1.2,0.2-2.2,0.3-3.1,0.3L110,21c0.6-0.3,1.2-0.7,1.8-1.2
				c-0.6,0.1-1.1,0.1-1.5,0.2l-0.3-0.8c0.8-0.4,1.4-1,1.9-1.8l1,0.4c-0.4,0.5-0.8,0.9-1.3,1.3c0.5,0,0.9-0.1,1.2-0.2
				c0.2-0.2,0.4-0.4,0.5-0.7l1,0.4c-0.8,0.9-1.6,1.7-2.5,2.3c0.3,0,0.6,0,1-0.1c-0.1-0.1-0.1-0.2-0.2-0.2l0.9-0.4
				C114,20.4,114.2,20.9,114.5,21.3z M114.2,22.7c0,1.1-0.2,1.9-0.7,2.4s-1.3,1-2.5,1.3l-0.8-1.1c1.1-0.2,1.9-0.5,2.2-1h-2.1v-2h1.3
				v1h1.2c0,0,0-0.1,0-0.3v-1h1.3L114.2,22.7L114.2,22.7z M119.4,21.3l-1,0.5c0-0.1-0.1-0.2-0.2-0.4c-0.7,0.1-1.8,0.2-3.2,0.4
				l-0.2-0.8c0.6-0.3,1.2-0.7,1.7-1.2l-1.6,0.2l-0.2-0.9c0.7-0.4,1.2-1,1.7-1.9l1.1,0.3c-0.4,0.6-0.9,1.1-1.4,1.4
				c0.6-0.1,1-0.1,1.2-0.2c0.2-0.2,0.3-0.4,0.4-0.6l1.1,0.4c-0.8,1-1.6,1.8-2.4,2.3c0.5-0.1,0.9-0.1,1.1-0.1
				c-0.1-0.1-0.1-0.2-0.2-0.3l1-0.4C118.8,20.4,119.2,20.9,119.4,21.3z M119,24.3h-2.5v2h-1.4V22h1.4v1.3h1.2v-1h1.3V24.3z
				 M121.3,25.3c0,0.3-0.1,0.6-0.3,0.8s-0.4,0.4-0.6,0.5c-0.3,0.1-0.7,0.1-1.3,0.1c-0.2,0-0.5,0-0.6,0l-0.6-1.4c0.3,0,0.6,0,0.9,0
				c0.4,0,0.7,0,0.8,0c0.2,0,0.2-0.2,0.2-0.4V17h-4.7v-4.3h6.1L121.3,25.3L121.3,25.3z M119.9,14.3v-0.6h-3.2v0.6H119.9z
				 M119.9,15.9v-0.6h-3.2v0.6H119.9z"/>
		</g>
		<g>
			<path class="st1" d="M128.1,12.5c-0.3,0.8-0.6,1.6-0.9,2.2l-0.4,0.9v10.9h-1.4v-8.3c-0.2,0.3-0.6,0.8-1.1,1.4l-0.6-1.5
				c1.2-1.6,2.2-3.6,3-6.1L128.1,12.5z M131.6,23c-1.1,1.4-2.2,2.5-3.1,3.3l-1.2-0.9c1.1-0.8,2.2-1.9,3.1-3.1L131.6,23z M133.6,12.9
				c-1.2,1.3-2.9,2.5-5.1,3.8l-1-1c2.1-1.1,3.7-2.2,4.9-3.5L133.6,12.9z M138.3,21.7l-1.2,0.7c-0.2-0.4-0.4-0.8-0.7-1.1
				c-0.9,0.1-1.8,0.2-2.7,0.3v3.6c0,0.4-0.1,0.7-0.4,1c-0.2,0.3-0.9,0.4-1.9,0.4c-0.2,0-0.4,0-0.5,0l-0.6-1.4c1.1,0,1.7,0,1.8,0
				s0.1-0.1,0.1-0.3v-3.1c-1.2,0.1-2.6,0.2-4.2,0.3l-0.2-1.1c1.5-0.7,2.8-1.3,4-2.1c-1.6,0.1-2.7,0.1-3.4,0.2l-0.3-1.2
				c2.5-1.2,4.4-2.6,5.8-4.1l1.3,0.7c-0.9,1-2.3,2.1-4.3,3.2c1.6-0.1,2.5-0.1,2.8-0.2c0.3,0,0.9-0.5,1.8-1.5l1.4,0.7
				c-1.3,1.2-3.2,2.5-5.8,4c1.1,0,2.5-0.2,4.3-0.4c-0.2-0.3-0.5-0.6-0.8-0.9l1.3-0.6C137.1,19.8,137.8,20.9,138.3,21.7z M138.3,25.6
				l-1.2,0.8c-0.8-1.2-1.7-2.3-2.8-3.4l1.1-0.8C136.5,23.2,137.5,24.3,138.3,25.6z"/>
		</g>
	</g>
</g>
</svg>
